<?xml version="1.0" standalone="no"?>
<!DOCTYPE svg PUBLIC "-//W3C//DTD SVG 1.1//EN" "http://www.w3.org/Graphics/SVG/1.1/DTD/svg11.dtd" >
<svg xmlns="http://www.w3.org/2000/svg">
<metadata></metadata>
<defs>
<font id="thesansregular" horiz-adv-x="1126" >
<font-face units-per-em="2048" ascent="1638" descent="-410" />
<missing-glyph horiz-adv-x="446" />
<glyph horiz-adv-x="0" />
<glyph unicode="&#xd;" horiz-adv-x="446" />
<glyph unicode=" "  horiz-adv-x="446" />
<glyph unicode="&#x09;" horiz-adv-x="446" />
<glyph unicode="&#xa0;" horiz-adv-x="446" />
<glyph unicode="!" horiz-adv-x="663" d="M129 1464h436l-51 -1022h-328zM131 176q0 43 16.5 80t45 64.5t67.5 44t84 16.5t84 -16.5t67.5 -44t45 -64.5t16.5 -80t-16.5 -81t-45 -65.5t-67.5 -43t-84 -15.5t-84 15.5t-67.5 43t-45 65.5t-16.5 81z" />
<glyph unicode="&#x22;" horiz-adv-x="944" d="M66 1448h362l-41 -594h-281zM516 1448h363l-41 -594h-281z" />
<glyph unicode="#" d="M41 317v258h149l19 185h-123v258h150l32 313h264l-32 -313h198l33 313h264l-32 -313h122v-258h-149l-18 -185h122v-258h-149l-33 -317h-264l33 317h-199l-33 -317h-264l33 317h-123zM455 575h198l19 185h-199z" />
<glyph unicode="$" d="M113 920q0 139 85 242.5t226 142.5v190h260v-170q45 -2 95 -7t106 -18l-27 -307q-66 18 -122 25.5t-99 7.5q-70 0 -101.5 -19.5t-31.5 -54.5q0 -33 37 -53t93 -39.5t121.5 -46.5t122 -71t93.5 -114.5t37 -176.5q0 -139 -89.5 -248t-242.5 -156v-221h-260v203 q-63 2 -120.5 7t-117.5 13l25 326q68 -23 129 -31t121 -8q76 0 116.5 21.5t40.5 62.5q0 39 -36.5 60.5t-92 41t-120 43t-120 66.5t-92 111.5t-36.5 177.5z" />
<glyph unicode="%" horiz-adv-x="1587" d="M61 1018q0 78 28 141.5t75 107.5t108.5 68.5t128.5 24.5q68 0 127.5 -18.5t104.5 -58.5t70.5 -100.5t25.5 -144.5q0 -80 -28.5 -145.5t-77 -110.5t-109.5 -69.5t-127 -24.5q-152 0 -239 89t-87 241zM156 117l1038 1261l229 -168l-1038 -1261zM330 1024q0 -72 21.5 -92.5 t43.5 -20.5q25 0 46.5 28t21.5 87q0 72 -18.5 91.5t-45.5 19.5t-48 -27t-21 -86zM858 301q0 78 27.5 141.5t75 107.5t108.5 68.5t129 24.5t127 -18.5t104.5 -58.5t71 -100t25.5 -144q0 -80 -29 -145.5t-77 -111t-109.5 -70t-126.5 -24.5q-152 0 -239 89.5t-87 240.5z M1126 307q0 -72 21.5 -92t44.5 -20q25 0 46.5 27.5t21.5 86.5q0 72 -18.5 91.5t-45.5 19.5t-48.5 -26.5t-21.5 -86.5z" />
<glyph unicode="&#x26;" horiz-adv-x="1638" d="M72 389q0 123 59 219.5t162 177.5q-72 90 -111 173t-39 180q0 76 31 145.5t90.5 120.5t146.5 82t201 31q205 0 312.5 -89.5t107.5 -246.5q0 -111 -59.5 -204t-169.5 -183q53 -45 118.5 -95.5t137.5 -101.5v-2q53 92 75.5 192.5t22.5 182.5h369q0 -147 -44 -298t-136 -280 q53 -37 123.5 -86t121.5 -84l-248 -282q-31 20 -67.5 45.5t-73.5 51t-69.5 49.5t-55.5 40q-94 -63 -225 -109.5t-291 -46.5q-133 0 -226 36t-151.5 94.5t-85 133t-26.5 154.5zM461 432q0 -49 40 -95t117 -46q47 0 92.5 11.5t86.5 31.5q-76 57 -153 120.5t-126 106.5 q-29 -33 -43 -66.5t-14 -62.5zM512 1159q0 -33 15.5 -71.5t52.5 -81.5q35 35 59.5 72.5t24.5 82.5q0 33 -18.5 56.5t-55.5 23.5q-35 0 -56.5 -23.5t-21.5 -58.5z" />
<glyph unicode="'" horiz-adv-x="493" d="M66 1448h362l-41 -594h-281z" />
<glyph unicode="(" horiz-adv-x="634" d="M53 586q0 270 75 532t234 510l279 -121q-104 -197 -161.5 -427t-57.5 -486t58.5 -489.5t168.5 -436.5l-289 -125q-158 248 -232.5 507t-74.5 536z" />
<glyph unicode=")" horiz-adv-x="634" d="M-12 1503l288 125q154 -248 229 -507t75 -535q0 -270 -75 -532.5t-237 -510.5l-278 121q106 197 163.5 427.5t57.5 486.5t-58.5 489t-164.5 436z" />
<glyph unicode="*" horiz-adv-x="819" d="M41 1077l205 66l-205 65l129 222l158 -146l-47 211h256l-45 -211l157 146l129 -222l-205 -65l205 -66l-129 -221l-157 145l47 -210h-258l47 210l-160 -143z" />
<glyph unicode="+" d="M72 455v311h313v336h356v-336h314v-311h-314v-340h-356v340h-313z" />
<glyph unicode="," horiz-adv-x="614" d="M61 -276q57 61 89 108t40.5 87t-5 76t-46.5 73q-39 43 -46 102t14.5 112.5t71.5 90.5t128 37q63 0 114.5 -33t80 -91.5t32 -137t-29.5 -170t-103.5 -190.5t-189.5 -198z" />
<glyph unicode="-" horiz-adv-x="696" d="M82 391v297h532v-297h-532z" />
<glyph unicode="." horiz-adv-x="614" d="M82 197q0 45 17.5 86t48 71.5t71.5 49t88 18.5q45 0 86 -18.5t72 -49t49 -71.5t18 -86q0 -47 -18 -88t-49 -72t-72 -48.5t-86 -17.5q-47 0 -88 17.5t-71.5 48.5t-48 72t-17.5 88z" />
<glyph unicode="/" horiz-adv-x="1024" d="M-63 -330l718 1880h375l-717 -1880h-376z" />
<glyph unicode="0" d="M37 670q0 174 39 303t109.5 215t169 129t218.5 43q266 0 390 -165t124 -523q0 -176 -41.5 -307.5t-113.5 -219.5t-169 -131t-210 -43q-115 0 -210 30t-162.5 108.5t-105.5 214t-38 346.5zM438 674q0 -135 8.5 -211t23.5 -113t38.5 -46t54.5 -9t53.5 12t38 52t23.5 114 t8 195q0 129 -8 202.5t-23.5 112.5t-39 49t-54.5 10q-29 0 -52.5 -14t-38.5 -54t-23.5 -111.5t-8.5 -188.5z" />
<glyph unicode="1" d="M100 1196l420 135h279v-995h260v-336h-950v336h303v602l-254 -98z" />
<glyph unicode="2" d="M82 0v307l65 62q139 131 222.5 217t128.5 143t58 92t13 64q0 55 -38.5 89t-120.5 34q-74 0 -139.5 -20.5t-118.5 -55.5l-60 340q80 39 186.5 62.5t223.5 23.5q131 0 224 -34t151.5 -91t85 -130t26.5 -149q0 -68 -15.5 -131t-54 -129.5t-104 -140.5t-166.5 -162l-35 -31 v-4q82 4 163 5t153 1h104v-362h-952z" />
<glyph unicode="3" d="M100 4l31 313q63 -20 125.5 -28t138.5 -8q125 0 174 39.5t49 93.5q0 49 -49 81.5t-180 32.5q-59 0 -112.5 -3t-110.5 -11v283h80q74 0 138.5 8t111.5 24.5t74.5 44t27.5 66.5q0 49 -39 79t-137 30q-86 0 -155.5 -16.5t-119.5 -41.5l-30 307q82 29 179 45.5t210 16.5 q250 0 367.5 -94.5t117.5 -247.5q0 -111 -54 -181.5t-146 -103.5l-5 -6q111 -20 174.5 -98.5t63.5 -182.5q0 -117 -48 -204.5t-134 -148t-204 -91.5t-257 -31q-86 0 -160 10.5t-121 22.5z" />
<glyph unicode="4" d="M23 580l421 751h508v-735h135v-334h-135v-262h-366v262h-527zM393 594q16 0 45 1t58.5 1h56.5h41v360h-2z" />
<glyph unicode="5" d="M141 2v330q66 -18 130.5 -28.5t160.5 -10.5q90 0 140.5 34.5t50.5 96.5q0 66 -61.5 99.5t-178.5 33.5q-70 0 -128 -4t-110 -12v790h832v-348h-473v-135h33q240 0 371.5 -105.5t131.5 -285.5q0 -111 -46 -201t-129 -152.5t-198.5 -96.5t-254.5 -34q-78 0 -144.5 7.5 t-126.5 21.5z" />
<glyph unicode="6" d="M43 584q0 180 49 322.5t142.5 241.5t228.5 152.5t305 53.5q49 0 102.5 -2t100.5 -9v-321q-102 20 -211 20q-123 0 -199 -48t-117 -140q-6 -12 -11 -24.5t-9 -30.5h2q47 31 104.5 47t133.5 16q104 0 183 -31.5t132 -85t80.5 -125t27.5 -153.5q0 -121 -37.5 -213 t-106.5 -154.5t-165 -95.5t-211 -33q-119 0 -215 34t-164.5 107.5t-106.5 189.5t-38 282zM430 428q0 -70 36 -112t114 -42q59 0 94 41.5t35 100.5q0 143 -144 143q-66 0 -100.5 -39t-34.5 -92z" />
<glyph unicode="7" d="M86 965v366h948v-321q-59 -117 -113.5 -249t-101.5 -264t-87 -260t-68 -237h-426q33 127 78.5 266.5t96 270.5t98.5 244.5t87 189.5q-29 0 -70 -1t-87 -2t-94 -2t-91 -1h-170z" />
<glyph unicode="8" d="M43 346q0 106 53.5 180t130.5 129q-66 47 -110.5 117t-44.5 174q0 96 39 173t107.5 130.5t161.5 82t202 28.5q111 0 198.5 -26.5t149 -73t93.5 -111t32 -137.5q0 -102 -46 -174t-118 -125q80 -47 136 -121t56 -189q0 -111 -45 -191.5t-118.5 -134.5t-171 -80t-201.5 -26 q-242 0 -373 99.5t-131 275.5zM428 375q0 -45 35 -77t108 -32q61 0 94 31t33 74q0 49 -47 81.5t-119 61.5q-47 -29 -75.5 -61.5t-28.5 -77.5zM444 981q0 -43 39 -73.5t99 -59.5q45 29 72.5 60.5t27.5 72.5q0 31 -24.5 61.5t-98.5 30.5q-63 0 -89 -28.5t-26 -63.5z" />
<glyph unicode="9" d="M37 864q0 119 39 211t108.5 155.5t164.5 96.5t210 33q242 0 383 -151.5t141 -460.5q0 -180 -48 -322.5t-140 -242t-226 -153t-304 -53.5q-49 0 -108.5 3.5t-113.5 13.5v321q59 -16 117.5 -21t112.5 -5q123 0 195.5 48t113.5 140q6 12 11 24.5t9 30.5h-2q-47 -31 -104 -47 t-133 -16q-104 0 -183 30.5t-133.5 85t-82 126t-27.5 153.5zM408 915q0 -143 143 -143q66 0 100.5 39t34.5 92q0 70 -36 112t-113 42q-59 0 -94 -41t-35 -101z" />
<glyph unicode=":" horiz-adv-x="645" d="M113 197q0 45 17 86t48 71.5t72 49t88 18.5q45 0 86 -18.5t71.5 -49t49 -71.5t18.5 -86q0 -47 -18.5 -88t-49 -72t-71.5 -48.5t-86 -17.5q-47 0 -88 17.5t-72 48.5t-48 72t-17 88zM113 748q0 45 17 85.5t48 71.5t72 49.5t88 18.5q45 0 86 -18.5t71.5 -49.5t49 -71.5 t18.5 -85.5q0 -47 -18.5 -88.5t-49 -72t-71.5 -48t-86 -17.5q-47 0 -88 17.5t-72 48t-48 71.5t-17 89z" />
<glyph unicode=";" horiz-adv-x="645" d="M92 -276q57 61 89 108t40 87t-5 76t-46 73q-39 43 -46 102t14.5 112.5t71.5 90.5t128 37q63 0 114.5 -33t80 -91.5t31.5 -137t-29.5 -170t-103.5 -190.5t-189 -198zM113 748q0 45 17 85.5t48 71.5t72 49.5t88 18.5q45 0 86 -18.5t71.5 -49.5t49 -71.5t18.5 -85.5 q0 -47 -18.5 -88.5t-49 -72t-71.5 -48t-86 -17.5q-47 0 -88 17.5t-72 48t-48 71.5t-17 89z" />
<glyph unicode="&#x3c;" d="M104 610l658 635l248 -248l-424 -385l426 -387l-246 -252z" />
<glyph unicode="=" d="M102 233v297h922v-297h-922zM102 684v297h922v-297h-922z" />
<glyph unicode="&#x3e;" d="M115 993l245 252l662 -637l-657 -635l-248 248l424 385z" />
<glyph unicode="?" horiz-adv-x="940" d="M88 1151l45 338q207 -4 349.5 -43t231.5 -101.5t129 -142.5t40 -164q0 -86 -29 -146.5t-69 -105.5t-85 -80.5t-79.5 -72.5t-50 -82t4.5 -109h-364q-33 90 -27 156t36 115t73 86t84 68.5t69.5 62.5t28.5 69q0 78 -99.5 113t-287.5 39zM186 176q0 43 16.5 80t45 64.5 t67.5 44t84 16.5t84 -16.5t68 -44t45 -64.5t16 -80t-16 -81t-45 -65.5t-68 -43t-84 -15.5t-84 15.5t-67.5 43t-45 65.5t-16.5 81z" />
<glyph unicode="@" horiz-adv-x="1964" d="M147 571q0 205 70 379t192.5 300t290.5 197t365 71q178 0 315.5 -48.5t229.5 -135.5t139 -206t47 -260q0 -152 -40 -264t-110.5 -188t-169 -113t-216.5 -37q-92 0 -147.5 41t-61.5 119h-9q-43 -68 -108.5 -114t-153.5 -46q-94 0 -156.5 77t-62.5 245q0 113 28.5 212 t90 171.5t157 114.5t226.5 42q74 0 142.5 -16t109.5 -39l-62 -362q-16 -92 -8 -125t51 -33q33 0 65 14.5t54.5 48t36.5 91t14 143.5q0 74 -21.5 140.5t-70.5 116.5t-130 80t-197 30q-117 0 -220.5 -43.5t-180.5 -123t-121 -193.5t-44 -255q0 -109 27 -193.5t87 -143 t157.5 -88.5t238.5 -30q88 0 185.5 18.5t189.5 49.5l57 -283q-115 -41 -245.5 -63.5t-233.5 -22.5q-203 0 -352.5 51.5t-247.5 145.5t-147.5 228.5t-49.5 299.5zM834 641q0 -53 7 -73.5t25 -20.5q33 0 72 59.5t68 208.5l12 64q-20 10 -47 10q-31 0 -55.5 -23.5t-43 -59.5 t-28.5 -80t-10 -85z" />
<glyph unicode="A" horiz-adv-x="1312" d="M-23 0l451 1382h436l473 -1382h-415l-72 225h-426l-70 -225h-377zM514 524h242l-70 224q-16 51 -28.5 99t-22.5 95h-4q-18 -92 -49 -197z" />
<glyph unicode="B" horiz-adv-x="1216" d="M98 0v1380q51 2 118 5.5t139.5 4.5t144 2t137.5 1q113 0 203 -21.5t154.5 -65.5t99 -112t34.5 -158q0 -92 -43 -170t-122 -118v-7q90 -31 146 -115t56 -184q0 -94 -35.5 -175t-108.5 -141t-183.5 -95t-257.5 -35q-63 0 -184.5 2t-297.5 2zM479 311q18 -2 48 -3t55 -1 q78 0 125 32.5t47 98.5q0 53 -43 90t-133 37h-18.5h-28t-30 -1t-22.5 -1v-252zM479 848q16 -2 37 -2h45q90 0 126 36t36 95q0 53 -40 80.5t-108 27.5q-33 0 -52 -1t-44 -3v-233z" />
<glyph unicode="C" horiz-adv-x="1107" d="M55 635q0 172 48.5 312t139.5 239.5t223 153t302 53.5q68 0 137.5 -9.5t128.5 -27.5l-47 -348q-98 39 -219 39q-135 0 -214 -90.5t-79 -258.5q0 -180 73 -274t234 -94q45 0 103.5 10t101.5 33l51 -340q-72 -27 -157.5 -39t-169.5 -12q-203 0 -331 62t-201 159.5 t-98.5 212t-25.5 219.5z" />
<glyph unicode="D" horiz-adv-x="1333" d="M98 2v1376q82 4 214 8.5t284 4.5t277.5 -34t217 -112t141.5 -206t50 -314q0 -178 -53 -314.5t-151.5 -230.5t-235.5 -142t-305 -48q-229 0 -439 12zM479 326q25 -6 88 -7q63 0 118.5 23t96.5 69t64.5 116.5t23.5 166.5q0 80 -10 148.5t-42 119t-90 79t-153 28.5h-54 t-42 -4v-739z" />
<glyph unicode="E" horiz-adv-x="983" d="M98 0v1382h809v-323h-428v-195h406v-311h-406v-223h428v-330h-809z" />
<glyph unicode="F" horiz-adv-x="942" d="M98 0v1382h789v-327h-408v-224h385v-313h-385v-518h-381z" />
<glyph unicode="G" horiz-adv-x="1359" d="M53 653q0 168 56.5 306.5t161 237.5t253 153.5t332.5 54.5q117 0 223.5 -17.5t182.5 -39.5l-74 -349q-72 29 -157 45.5t-189 16.5q-94 0 -165 -27.5t-117 -79t-69.5 -121t-23.5 -153.5q0 -162 81 -259t257 -97q43 0 78 10v420h381v-682q-100 -45 -228.5 -71t-269.5 -26 q-174 0 -307 48.5t-223.5 136.5t-136.5 213t-46 280z" />
<glyph unicode="H" horiz-adv-x="1372" d="M98 0v1382h381v-503h414v503h381v-1382h-381v545h-414v-545h-381z" />
<glyph unicode="I" horiz-adv-x="577" d="M98 0v1382h381v-1382h-381z" />
<glyph unicode="J" horiz-adv-x="702" d="M0 -6v319q18 -6 43 -11t61 -5q59 0 91 30.5t32 104.5v950h381v-958q0 -84 -19.5 -164t-66.5 -142.5t-127 -101.5t-200 -39q-72 0 -113 4.5t-82 12.5z" />
<glyph unicode="K" horiz-adv-x="1259" d="M98 0v1382h381v-591l299 591h461l-395 -665l418 -717h-490l-293 631v-631h-381z" />
<glyph unicode="L" horiz-adv-x="884" d="M98 0v1382h381v-1042h381v-340h-762z" />
<glyph unicode="M" horiz-adv-x="1781" d="M14 0l230 1382h430l145 -479q23 -72 40.5 -146.5t33.5 -166.5h4q16 88 34.5 162.5t45.5 156.5l147 473h418l227 -1382h-399l-76 461q-10 70 -20 146.5t-21 166.5h-4q-33 -176 -84 -362l-110 -412h-357l-108 375q-29 96 -52.5 195.5t-37.5 203.5h-4q-10 -104 -20.5 -186 t-20.5 -160l-58 -428h-383z" />
<glyph unicode="N" horiz-adv-x="1404" d="M98 0v1382h488l200 -411q45 -92 89.5 -183.5t78.5 -175.5q-8 72 -11 147t-3 140v483h367v-1382h-484l-231 473q-41 82 -76 162t-61 149q6 -61 8 -106t2 -113v-565h-367z" />
<glyph unicode="O" horiz-adv-x="1435" d="M43 672q0 168 55.5 304t150.5 232.5t223 149.5t273 53q135 0 253 -38t206 -122t138.5 -216t50.5 -320q0 -170 -54.5 -307.5t-149.5 -233.5t-223 -149.5t-276 -53.5q-164 0 -284.5 48.5t-201.5 138.5t-121 220t-40 294zM449 700q0 -178 60 -278t200 -100q45 0 94 17t90 60 t67.5 114.5t26.5 182.5q0 367 -270 367q-49 0 -97.5 -20.5t-86 -63.5t-61 -111.5t-23.5 -167.5z" />
<glyph unicode="P" horiz-adv-x="1110" d="M98 0v1382q96 4 199.5 7.5t218.5 3.5q279 0 425 -117t146 -346q0 -100 -33.5 -192.5t-102 -162t-172 -110.5t-242.5 -41h-21.5t-36.5 2v-426h-381zM479 743q10 -2 17.5 -2h11.5q74 0 130 45.5t56 131.5q0 68 -40 116.5t-138 48.5h-14t-23 -2v-338z" />
<glyph unicode="Q" horiz-adv-x="1435" d="M43 672q0 168 55.5 304t150.5 232.5t223 149.5t273 53q135 0 253 -38t206 -122t138.5 -216t50.5 -320q0 -170 -54.5 -307.5t-149.5 -233.5t-223 -149.5t-276 -53.5q-164 0 -284.5 48.5t-201.5 138.5t-121 220t-40 294zM449 700q0 -178 60 -278t200 -100q45 0 94 17t90 60 t67.5 114.5t26.5 182.5q0 367 -270 367q-49 0 -97.5 -20.5t-86 -63.5t-61 -111.5t-23.5 -167.5zM565 -98q83 8 151 8h26q77 -2 141.5 -11.5t123 -21.5t121 -20.5t135 -8.5t167.5 15v-332q-102 -18 -182 -19h-18q-70 0 -130 7q-68 8 -127.5 20t-122 22.5t-130.5 14.5 q-20 1 -41 1q-53 0 -114 -7v332z" />
<glyph unicode="R" horiz-adv-x="1200" d="M98 0v1382q98 6 220 8.5t253 2.5q264 0 406.5 -101.5t142.5 -330.5q0 -61 -16.5 -120t-49 -110t-78.5 -90t-104 -59q29 -41 53.5 -80t47.5 -80l244 -422h-463l-256 504h-19v-504h-381zM479 778q10 -2 28.5 -3t35.5 -1q78 0 127 40t49 118q0 61 -37 104t-131 43 q-18 0 -40 -1t-32 -3v-297z" />
<glyph unicode="S" horiz-adv-x="1028" d="M51 958q0 207 150.5 329t425.5 122q53 0 122.5 -6t131.5 -21l-33 -329q-57 20 -114.5 30.5t-121.5 10.5q-80 0 -115.5 -26t-35.5 -67q0 -43 40 -70.5t98 -51t128 -52t128 -75.5t98 -117.5t40 -181.5q0 -102 -42 -189.5t-117.5 -152t-179 -101.5t-228.5 -37 q-104 0 -185 8.5t-157 26.5l33 363q70 -29 147.5 -47.5t169.5 -18.5q55 0 94 24.5t39 73.5t-37.5 78t-95 50.5t-125 47t-125 70.5t-95.5 118t-38 191z" />
<glyph unicode="T" horiz-adv-x="1028" d="M25 1055v327h979v-327h-299v-1055h-381v1055h-299z" />
<glyph unicode="U" horiz-adv-x="1359" d="M98 500v882h381v-864q0 -111 42 -169t161 -58q115 0 159 54t44 183v854h377v-833q0 -152 -42 -260.5t-120 -179t-189.5 -104.5t-251.5 -34q-166 0 -274.5 41t-171.5 113t-89 168t-26 207z" />
<glyph unicode="V" horiz-adv-x="1318" d="M-16 1382h409l211 -692q16 -55 34.5 -121.5t29.5 -124.5h4q29 133 69 267l205 671h389l-448 -1382h-449z" />
<glyph unicode="W" horiz-adv-x="1945" d="M20 1382h404l127 -565q16 -66 26.5 -144.5t16.5 -156.5h2q10 76 21.5 148.5t29.5 146.5l146 571h383l139 -551q16 -59 30.5 -138t24.5 -165h2q25 176 55 322l115 532h383l-336 -1382h-463l-114 518q-16 76 -29.5 165t-24.5 187h-2q-6 -92 -19 -174t-32 -164l-121 -532 h-432z" />
<glyph unicode="X" horiz-adv-x="1374" d="M0 0l422 700l-397 682h440l217 -409l211 409h434l-391 -688l438 -694h-481l-219 418l-219 -418h-455z" />
<glyph unicode="Y" horiz-adv-x="1222" d="M-14 1382h413l129 -299q27 -59 46.5 -111t35.5 -100h4q18 55 45 116t56 126l119 268h403l-438 -905v-477h-381v475z" />
<glyph unicode="Z" horiz-adv-x="1093" d="M88 0v301l381 664q12 20 24.5 39.5t28.5 37.5q-8 0 -18 -1t-28.5 -1h-49.5h-78h-248v342h895v-315l-401 -659q-10 -14 -18.5 -27.5t-20.5 -30.5q16 2 65.5 2h165.5h220v-352h-918z" />
<glyph unicode="[" horiz-adv-x="688" d="M102 -436v2044h519v-301h-166v-1440h166v-303h-519z" />
<glyph unicode="\" horiz-adv-x="1093" d="M0 1550h375l719 -1880h-377z" />
<glyph unicode="]" horiz-adv-x="688" d="M68 -133h165v1440h-165v301h518v-2044h-518v303z" />
<glyph unicode="^" d="M86 799l330 583h278l346 -579l-262 -131l-229 452l-219 -452z" />
<glyph unicode="_" d="M0 -193h1126v-303h-1126v303z" />
<glyph unicode="`" horiz-adv-x="778" d="M137 1321l152 252l434 -252l-123 -207z" />
<glyph unicode="a" horiz-adv-x="1083" d="M51 289q0 102 43 172.5t119 113.5t177.5 61.5t215.5 18.5v27q0 43 -35.5 61.5t-126.5 18.5q-66 0 -139.5 -17.5t-134.5 -46.5l-59 289q82 27 189.5 43.5t209.5 16.5q137 0 228 -24t145.5 -70t77 -113.5t22.5 -155.5v-467q0 -47 1 -103.5t7 -113.5h-348q0 29 1 61.5 t7 67.5h-2q-37 -72 -116.5 -113t-178.5 -41q-78 0 -134 26t-94 69t-56.5 99t-18.5 120zM401 326q0 -29 19.5 -49.5t56.5 -20.5q57 0 93 40t36 93v35q-123 0 -164 -25.5t-41 -72.5z" />
<glyph unicode="b" horiz-adv-x="1144" d="M96 31v1464h373v-356q0 -51 -4 -110.5t-10 -100.5h2q35 51 102.5 82.5t161.5 31.5q186 0 279.5 -130t93.5 -345q0 -121 -37 -229.5t-108.5 -189t-180.5 -128t-252 -47.5q-119 0 -221 14.5t-199 43.5zM469 281q12 -4 28.5 -6.5t43.5 -2.5q33 0 61.5 12.5t50 42t34.5 78.5 t13 123q0 111 -24.5 157t-75.5 46t-91 -58.5t-40 -176.5v-215z" />
<glyph unicode="c" horiz-adv-x="837" d="M49 477q0 113 32 215.5t99.5 180t172 123.5t249.5 46q43 0 91 -6t93 -20l-51 -324q-70 29 -131 29q-86 0 -125 -57.5t-39 -161.5q0 -102 44 -151.5t120 -49.5q35 0 72 6t69 23l41 -316q-53 -20 -122.5 -29.5t-135.5 -9.5q-127 0 -218 36t-149.5 101.5t-85 157.5 t-26.5 207z" />
<glyph unicode="d" horiz-adv-x="1144" d="M51 449q0 121 36 229t106.5 189t175 128t239.5 47q18 0 36 -1t32 -3v457h373v-1495h-338q0 27 1 53.5t5 61.5h-4q-41 -59 -112 -100.5t-181 -41.5q-182 0 -275.5 130t-93.5 346zM444 489q0 -111 25 -157.5t76 -46.5t91 60.5t40 182.5v209q-31 8 -72 8q-33 0 -61.5 -12 t-50 -41.5t-35 -79t-13.5 -123.5z" />
<glyph unicode="e" horiz-adv-x="1073" d="M49 496q0 119 33 219t97.5 174t159.5 114.5t218 40.5q119 0 205 -37.5t142.5 -103t84 -156t27.5 -196.5q0 -78 -12 -160h-578q4 -53 56.5 -91t162.5 -38q72 0 147.5 14.5t153.5 49.5l33 -279q-92 -37 -195.5 -54.5t-197.5 -17.5q-256 0 -396.5 125t-140.5 396zM424 633 h229v17q1 60 -25 90q-30 34 -79 34q-53 0 -87 -39t-38 -102z" />
<glyph unicode="f" horiz-adv-x="739" d="M20 731v287h130v94q0 100 22.5 176t73.5 127t133 77t201 26q41 0 81.5 -3.5t81.5 -13.5l-22 -303q-23 10 -48.5 13t-45.5 3q-53 0 -79 -22.5t-26 -77.5v-96h174v-287h-174v-731h-372v731h-130z" />
<glyph unicode="g" horiz-adv-x="1130" d="M51 -199q0 33 11.5 67t31 63.5t44 54t50.5 37.5q-45 23 -70.5 64.5t-25.5 96.5q0 66 38 121t91 76q-70 35 -111.5 104.5t-41.5 167.5q0 78 28.5 148.5t87 125t148.5 86t211 31.5q59 0 104 -7t92 -19h346v-293h-94q4 -10 4 -20.5v-22.5q0 -172 -111.5 -267.5t-334.5 -95.5 h-37q-12 -6 -18.5 -16t-6.5 -18q0 -12 5.5 -20.5t19.5 -12.5t40 -5t69 -3l114 -4q166 -6 259 -76t93 -232q0 -84 -39.5 -162.5t-115.5 -139t-185.5 -96.5t-246.5 -36q-215 0 -332 75t-117 228zM416 -125q0 -41 32.5 -68.5t104.5 -27.5q86 0 128 30.5t42 73.5 q0 29 -19.5 52.5t-72.5 25.5l-144 4h-30q-20 -20 -30.5 -43.5t-10.5 -46.5zM420 674q0 -47 28.5 -78t88.5 -31q53 0 81.5 29t28.5 76t-28.5 77.5t-88.5 30.5q-53 0 -81.5 -28.5t-28.5 -75.5z" />
<glyph unicode="h" horiz-adv-x="1155" d="M96 0v1495h373v-373q0 -41 -4 -100t-14 -111h2q45 57 121.5 94t183.5 37q84 0 141 -25.5t93 -69.5t51.5 -102.5t15.5 -123.5v-721h-373v643q0 39 -12 61.5t-45 22.5q-31 0 -59.5 -20.5t-51 -53t-36 -74.5t-13.5 -85v-494h-373z" />
<glyph unicode="i" horiz-adv-x="565" d="M59 1311q0 45 17.5 84t48.5 67.5t71 46t87 17.5q45 0 86 -17.5t71.5 -46t48 -67.5t17.5 -84t-17.5 -84t-48 -69t-71.5 -46t-86 -16q-47 0 -87 16t-71 46t-48.5 69t-17.5 84zM96 0v1018h373v-1018h-373z" />
<glyph unicode="j" horiz-adv-x="567" d="M-139 -469l18 313q29 -10 59.5 -16t53.5 -6q57 0 81.5 28.5t24.5 83.5v1084h373v-1041q0 -104 -23.5 -190t-78 -147.5t-142.5 -95t-215 -33.5q-37 0 -76.5 5t-74.5 15zM59 1311q0 45 17.5 84t48.5 67.5t71 46t87 17.5q45 0 86 -17.5t71.5 -46t48 -67.5t17.5 -84 t-17.5 -84t-48 -69t-71.5 -46t-86 -16q-47 0 -87 16t-71 46t-48.5 69t-17.5 84z" />
<glyph unicode="k" horiz-adv-x="1157" d="M96 0v1495h373v-868l209 391h459l-310 -467l330 -551h-461l-227 471v-471h-373z" />
<glyph unicode="l" horiz-adv-x="565" d="M96 0v1495h373v-1495h-373z" />
<glyph unicode="m" horiz-adv-x="1736" d="M96 0v1018h346q0 -20 -2 -58t-8 -79h2q47 76 129 118.5t185 42.5q94 0 167.5 -35.5t108.5 -125.5q43 76 124 118.5t183 42.5q309 0 309 -348v-694h-372v631q0 47 -12.5 71.5t-45.5 24.5q-27 0 -54.5 -18.5t-51 -51t-37.5 -74.5t-14 -91v-492h-369v631q0 47 -12.5 71.5 t-44.5 24.5q-27 0 -54.5 -18.5t-51 -51t-38 -74.5t-14.5 -91v-492h-373z" />
<glyph unicode="n" horiz-adv-x="1155" d="M96 0v1018h344q0 -20 -2 -60t-8 -75h2q47 68 128 113.5t198 45.5q84 0 141 -25.5t93 -69.5t51.5 -102.5t15.5 -123.5v-721h-373v643q0 39 -12 61.5t-45 22.5q-31 0 -59.5 -20.5t-51 -53t-36 -73.5t-13.5 -84v-496h-373z" />
<glyph unicode="o" horiz-adv-x="1155" d="M47 479q0 129 43 233.5t118 178.5t177 112.5t219 38.5q252 0 378 -133t126 -377q0 -127 -44 -230t-119 -176t-176 -112t-216 -39t-208 28t-159.5 87.5t-102.5 155.5t-36 233zM434 520q0 -119 32 -170t107 -51q72 0 110 57.5t38 153.5q0 111 -31 162t-108 51 q-55 0 -101.5 -47t-46.5 -156z" />
<glyph unicode="p" horiz-adv-x="1144" d="M96 -477v1495h338v-53.5t-4 -61.5h4q43 68 111.5 103.5t179.5 35.5q182 0 275.5 -129t93.5 -344q0 -129 -33 -236.5t-100.5 -185t-172 -121.5t-247.5 -44q-45 0 -72 6v-465h-373zM469 281q16 -4 32.5 -6.5t39.5 -2.5q33 0 61.5 12.5t50 42t34.5 78.5t13 123 q0 111 -24.5 158t-75.5 47t-91 -60.5t-40 -183.5v-208z" />
<glyph unicode="q" horiz-adv-x="1144" d="M51 446q0 121 36 229.5t108.5 189.5t181 129t256.5 48q131 0 228 -9t188 -25v-1485h-373v362q0 53 3 110.5t11 110.5h-4q-37 -63 -103.5 -98t-152.5 -35q-186 0 -282.5 121t-96.5 352zM444 489q0 -111 25 -157.5t74 -46.5q53 0 93 61.5t40 190.5v202q-12 2 -28.5 4 t-43.5 2q-33 0 -61.5 -12t-50 -41.5t-35 -79t-13.5 -123.5z" />
<glyph unicode="r" horiz-adv-x="729" d="M96 0v1018h344q0 -27 -3 -69t-7 -83h2q44 84 114 134q63 45 154 45q9 0 19 -1l-19 -368q-38 10 -70 10q-63 0 -102 -38q-59 -56 -59 -222v-426h-373z" />
<glyph unicode="s" horiz-adv-x="829" d="M55 690q0 72 28 136.5t85 112.5t146 76.5t212 28.5q82 0 170 -16l-8 -287q-37 12 -81 18.5t-87 6.5q-76 0 -76 -47q0 -23 25 -38t62.5 -32.5t80.5 -39t81 -56.5t62.5 -88t24.5 -131q0 -86 -34.5 -152.5t-97 -112.5t-150.5 -70t-193 -24q-121 0 -225 29l16 299 q45 -23 97.5 -33t107.5 -10q82 0 82 45q0 27 -24.5 43.5t-60.5 31.5t-79 34.5t-79 53.5t-60.5 87t-24.5 135z" />
<glyph unicode="t" horiz-adv-x="778" d="M20 731v287h130v287l372 100v-387h191v-287h-191v-342q0 -57 19.5 -80.5t66.5 -23.5t94 12l21 -289q-55 -14 -120.5 -23.5t-125.5 -9.5q-92 0 -155.5 15.5t-101.5 54.5t-54 104.5t-16 163.5v418h-130z" />
<glyph unicode="u" horiz-adv-x="1150" d="M94 297v721h373v-643q0 -39 12.5 -61.5t44.5 -22.5q31 0 59.5 20.5t51 53t36 73.5t13.5 84v496h373v-1018h-344q0 20 2 60t8 75h-2q-47 -68 -128 -114t-198 -46q-84 0 -142 26t-93 70t-50.5 102t-15.5 124z" />
<glyph unicode="v" horiz-adv-x="1095" d="M-10 1018h405l82 -244q20 -61 42 -135t38 -137h4q14 61 31.5 129.5t38.5 132.5l80 254h395l-369 -1018h-377z" />
<glyph unicode="w" horiz-adv-x="1638" d="M0 1018h403l41 -158q23 -82 45.5 -170t45.5 -194h4q16 109 35.5 188.5t41.5 155.5l50 178h333l48 -158q23 -80 47 -170t45 -194h4q16 100 34.5 185t36.5 159l46 178h378l-309 -1018h-393l-68 238q-16 59 -30.5 121.5t-30.5 140.5h-2q-14 -74 -29.5 -133.5t-34.5 -122.5 l-69 -244h-365z" />
<glyph unicode="x" horiz-adv-x="1110" d="M-6 0l317 518l-295 500h439l118 -268l117 268h408l-271 -502l289 -516h-461l-110 272l-111 -272h-440z" />
<glyph unicode="y" horiz-adv-x="1093" d="M-16 -477l43 315q69 -22 135 -22h6q20 0 46 5t51.5 19.5t47 39t31.5 61.5l16 59l-360 1018h410l59 -187q20 -63 43 -150t39 -169h4q10 45 22.5 93t24.5 93t23.5 84t21.5 66l58 170h399l-387 -1034q-55 -145 -114.5 -237.5t-127 -146t-145.5 -74t-170 -20.5 q-39 0 -90.5 5.5t-85.5 11.5z" />
<glyph unicode="z" horiz-adv-x="931" d="M86 0v266l295 420q-10 -2 -46 -3t-97 -1h-140v336h742v-268l-283 -410q8 0 27.5 1t43 1h48h45.5h125v-342h-760z" />
<glyph unicode="{" horiz-adv-x="802" d="M49 494v274q39 2 74 10t60.5 33t40 67t14.5 111v86q0 147 25.5 248.5t80.5 164t140 91.5t202 29h53v-301q-45 0 -74.5 -7.5t-47 -31t-24.5 -69.5t-7 -124v-86q0 -100 -15.5 -165.5t-41 -106.5t-59.5 -59.5t-71 -24.5v-4q37 -6 71 -26.5t59.5 -63.5t41 -111t15.5 -168 v-156q0 -78 7 -125t24.5 -71.5t47 -32.5t74.5 -8v-303h-53q-117 0 -202 28.5t-140 93t-80.5 167t-25.5 249.5v158q0 70 -14.5 114t-40 70.5t-60.5 37t-74 12.5z" />
<glyph unicode="|" horiz-adv-x="598" d="M143 -477v2048h297v-2048h-297z" />
<glyph unicode="}" horiz-adv-x="802" d="M63 -133q45 0 75 8t47.5 32.5t24.5 72t7 124.5v156q0 100 15.5 168t41 111t59.5 63.5t70 26.5v4q-37 6 -70.5 24.5t-59 59.5t-41 106.5t-15.5 165.5v86q0 78 -7 124t-24.5 69.5t-47 31t-75.5 7.5v301h54q117 0 201.5 -29t140 -91.5t81 -163.5t25.5 -249v-86 q0 -70 14.5 -111.5t40 -66.5t59.5 -33t75 -10v-274q-41 -2 -75 -12.5t-59.5 -37t-40 -70.5t-14.5 -114v-158q0 -147 -25.5 -249.5t-81 -167t-140.5 -93t-201 -28.5h-54v303z" />
<glyph unicode="~" d="M51 852v61q0 168 96.5 267.5t262.5 99.5q90 0 142 -30.5t85 -67.5t54.5 -68t49.5 -31q31 0 44.5 31t13.5 111h276v-62q0 -168 -96 -267t-262 -99q-90 0 -142.5 30.5t-85 67.5t-54 67.5t-50.5 30.5q-31 0 -44 -30.5t-13 -110.5h-277z" />
<glyph unicode="&#xa1;" horiz-adv-x="663" d="M98 -446l52 1021h327l58 -1021h-437zM106 842q0 43 16.5 79.5t45.5 64.5t67.5 44.5t83.5 16.5t84 -16.5t68 -44.5t45 -64.5t16 -79.5t-16 -81t-45 -65.5t-67.5 -43t-84.5 -15.5q-45 0 -83.5 15.5t-67.5 43t-45.5 65.5t-16.5 81z" />
<glyph unicode="&#xa2;" d="M133 662q0 186 96.5 317t288.5 184v168h275v-157q41 -4 91 -14.5t87 -20.5l-78 -295q-35 16 -79 24.5t-91 8.5q-88 0 -143.5 -52.5t-55.5 -146.5q0 -47 17.5 -81t45 -57.5t64.5 -34.5t76 -11q94 0 170 41l88 -295q-39 -18 -94 -32.5t-98 -19.5v-188h-275v188 q-100 14 -173 56.5t-120 105t-69.5 142t-22.5 170.5z" />
<glyph unicode="&#xa3;" d="M80 522v287h129q-4 29 -6 54.5t-2 47.5q0 125 36.5 211t105.5 138.5t165 76t215 23.5q53 0 125 -8.5t139 -22.5l-76 -311q-39 12 -91 23.5t-111 11.5q-129 0 -129 -117q0 -29 2 -61.5t6 -65.5h282v-287h-249q2 -8 2 -18v-21q0 -59 -15.5 -98t-48.5 -72q33 2 65.5 3 t63.5 1h344v-317h-907v252q66 45 93.5 104.5t27.5 122.5v21.5t-2 21.5h-164z" />
<glyph unicode="&#xa4;" d="M37 268l127 162q-53 90 -53 232q0 139 63 241l-135 178l293 203l137 -186q29 4 58.5 7t60.5 3q23 0 43 -1t41 -3l129 184l293 -211l-123 -159q23 -45 34 -99.5t11 -126.5q0 -70 -17.5 -129t-48.5 -110l144 -185l-295 -209l-146 197q-57 -10 -112 -10q-18 0 -37 1t-37 3 l-133 -187zM430 676q0 -74 33 -119t96 -45q25 0 49.5 7t44 26.5t31.5 53.5t12 85q0 86 -32.5 122t-98.5 36q-25 0 -48 -9.5t-42.5 -30t-32 -51t-12.5 -75.5z" />
<glyph unicode="&#xa5;" d="M0 1331h412l94 -239q16 -45 32.5 -93.5t24.5 -74.5h4q10 29 27.5 77t34.5 86l96 244h401l-284 -606h198v-227h-288v-88h288v-228h-288v-182h-377v182h-289v228h289v88h-289v227h201z" />
<glyph unicode="&#xa6;" horiz-adv-x="598" d="M143 297h297v-774h-297v774zM143 817v754h297v-754h-297z" />
<glyph unicode="&#xa7;" horiz-adv-x="1114" d="M84 627q0 98 43 178t109 127q-37 43 -54.5 91t-17.5 120q0 74 26.5 141.5t88 119.5t161 83t244.5 31q47 0 96 -3.5t90 -11.5l-16 -309q-35 10 -73 15t-76 5q-76 0 -107 -16t-31 -51q0 -33 33 -62.5t82 -64.5t106.5 -77t106.5 -98.5t82 -131t33 -172.5q0 -96 -45 -177 t-109 -128q33 -37 53.5 -90.5t20.5 -125.5q0 -66 -29 -131t-95.5 -118.5t-175 -87t-270.5 -33.5q-39 0 -91 5t-91 13l21 312q35 -10 77.5 -16.5t83.5 -6.5q92 0 128 24.5t36 53.5q0 35 -32.5 65.5t-82 62.5t-105.5 70.5t-105 93t-82 127t-33 173.5zM416 674q0 -29 7 -52.5 t31.5 -51t70.5 -65.5t122 -93q33 29 33 80q0 39 -15.5 66.5t-44 56t-72.5 61.5t-99 80q-14 -14 -23.5 -36t-9.5 -46z" />
<glyph unicode="&#xa8;" horiz-adv-x="1118" d="M131 1311q0 78 54.5 132t131.5 54q78 0 132.5 -54t54.5 -132t-54.5 -132.5t-132.5 -54.5t-132 54.5t-54 132.5zM575 1311q0 78 54.5 132t132.5 54t132 -54t54 -132t-54 -132.5t-132 -54.5t-132.5 54.5t-54.5 132.5z" />
<glyph unicode="&#xa9;" horiz-adv-x="1576" d="M70 680q0 150 56 281t153.5 228t228.5 153.5t280 56.5q150 0 281 -56.5t228.5 -153.5t153.5 -228t56 -281t-56 -281t-153.5 -228t-228.5 -153.5t-281 -56.5t-280.5 56.5t-228 153.5t-153.5 228t-56 281zM342 680q0 -92 35 -173t96.5 -142.5t142 -96.5t172.5 -35t173 35 t142.5 96.5t96.5 142.5t35 173t-35 173t-96.5 142.5t-142 96t-173.5 34.5q-92 0 -172.5 -34.5t-142 -96t-96.5 -142.5t-35 -173zM444 676q0 76 22.5 143.5t68 118.5t114 80t158.5 29q57 0 100 -10.5t78 -26.5l-45 -236q-14 16 -42 25.5t-60 9.5q-45 0 -71 -30.5t-26 -100.5 q0 -59 25 -84t59 -25q31 0 60.5 6.5t56.5 22.5l55 -231q-47 -25 -99 -37.5t-118 -12.5q-70 0 -131 24t-106 70t-72 112.5t-27 152.5z" />
<glyph unicode="&#xaa;" horiz-adv-x="870" d="M55 817q0 82 37 138.5t95.5 89t133 46t152.5 13.5v22q0 23 -17.5 39.5t-82.5 16.5q-66 0 -123 -14.5t-115 -41.5l-29 234q63 23 141.5 36t172.5 13q98 0 163.5 -20.5t103.5 -56.5t54.5 -82t16.5 -95v-375v-68.5t4 -99.5h-266q0 18 1 42t5 46h-2q-27 -53 -84.5 -82.5 t-122.5 -29.5q-125 0 -181.5 65.5t-56.5 163.5zM80 254v287h706v-287h-706zM322 856q0 -20 14 -34.5t41 -14.5q43 0 69.5 29.5t26.5 68.5v23q-72 0 -111.5 -12.5t-39.5 -59.5z" />
<glyph unicode="&#xab;" horiz-adv-x="1167" d="M49 596l211 444l295 -120l-154 -324l160 -317l-307 -123zM569 596l236 428l285 -125l-168 -303l174 -297l-297 -127z" />
<glyph unicode="&#xac;" d="M72 455v311h952v-594h-334v283h-618z" />
<glyph unicode="&#xad;" horiz-adv-x="696" d="M82 391v297h532v-297h-532z" />
<glyph unicode="&#xae;" horiz-adv-x="1159" d="M59 1092q0 106 41 199t112 162t165 107.5t203 38.5q106 0 201.5 -38.5t166 -107.5t111.5 -162t41 -199q0 -109 -41 -201t-111.5 -160.5t-166 -107.5t-201.5 -39q-109 0 -203 39t-165 107.5t-112 160.5t-41 201zM270 1092q0 -63 24.5 -120t66.5 -99t98.5 -66.5 t120.5 -24.5q63 0 119.5 24.5t98.5 66.5t66.5 99t24.5 120t-24.5 119.5t-66.5 98.5t-98.5 66.5t-119.5 24.5t-120 -24.5t-99 -66.5t-66.5 -98.5t-24.5 -119.5zM389 872v441h229q86 0 126 -37t40 -96q0 -47 -17 -76t-46 -45q12 -12 22 -45l43 -142h-184l-33 144h-22v-144 h-158zM547 1124h14q18 0 31.5 9.5t13.5 27.5q0 35 -43 35h-16v-72z" />
<glyph unicode="&#xaf;" horiz-adv-x="808" d="M102 1178v266h605v-266h-605z" />
<glyph unicode="&#xb0;" horiz-adv-x="829" d="M53 1194q0 78 32 138.5t83 101.5t114.5 62.5t129.5 21.5q94 0 159.5 -26t107.5 -69t60.5 -101.5t18.5 -121.5q0 -84 -31 -145.5t-82 -102.5t-116.5 -61.5t-135.5 -20.5q-160 0 -250 85t-90 239zM319 1196q0 -47 24 -71.5t65 -24.5t62.5 29.5t21.5 72.5q0 35 -23 62.5 t-57 27.5q-41 0 -67 -26.5t-26 -69.5z" />
<glyph unicode="&#xb1;" d="M72 741v308h313v333h356v-333h314v-308h-314v-335h-356v335h-313zM84 0v311h958v-311h-958z" />
<glyph unicode="&#xb2;" horiz-adv-x="675" d="M76 717v201l71 51q68 49 92.5 79.5t24.5 49.5q0 35 -43 35q-51 0 -110 -27l-31 213q49 14 111.5 25.5t121.5 11.5q78 0 131.5 -16.5t85 -44t46 -63.5t14.5 -77q0 -49 -32 -97t-109 -108l-25 -18h176v-215h-524z" />
<glyph unicode="&#xb3;" horiz-adv-x="655" d="M70 711l22 168q16 -6 44 -10.5t57 -4.5q45 0 63 12.5t18 30.5q0 10 -6 20.5t-24.5 17.5t-51 7t-88.5 -8v152h9q94 0 122.5 15t28.5 40q0 16 -11 24.5t-42 8.5q-27 0 -58.5 -6.5t-54.5 -20.5l-24 166q35 10 96 21.5t127 11.5q78 0 130 -14.5t84 -39t45 -55t13 -63.5 q0 -49 -20.5 -89t-71.5 -63q53 -4 85 -45t32 -82q0 -98 -83 -155.5t-263 -57.5q-45 0 -100.5 7.5t-77.5 11.5z" />
<glyph unicode="&#xb4;" horiz-adv-x="819" d="M158 1319l434 254l151 -252l-462 -207z" />
<glyph unicode="&#xb5;" horiz-adv-x="1314" d="M119 -477v1495h373v-643q0 -84 57 -84q70 0 115 64.5t45 174.5v488h372v-637q0 -43 2 -69.5t8.5 -41t15.5 -18.5t21 -4q18 0 37 12t35 31l115 -176q-53 -61 -126 -100.5t-194 -39.5q-63 0 -104 14.5t-67.5 36t-40 48t-19.5 53.5h-2q-33 -63 -89.5 -102t-142.5 -39 q-41 0 -73 16l55 -479h-393z" />
<glyph unicode="&#xb6;" horiz-adv-x="1273" d="M78 901q0 117 40 206t110.5 150.5t168 93t213.5 31.5v-960q-141 0 -242.5 39t-166 104.5t-94 152.5t-29.5 183zM643 106h133v1276h422v-303h-117v-1276h-438v303z" />
<glyph unicode="&#xb7;" horiz-adv-x="655" d="M102 610q0 45 17.5 86t48.5 72t72 49.5t88 18.5q45 0 86 -18.5t71.5 -49.5t49 -72t18.5 -86q0 -47 -18.5 -88t-49 -71.5t-71.5 -48t-86 -17.5q-47 0 -88 17.5t-72 48t-48.5 71.5t-17.5 88z" />
<glyph unicode="&#xb8;" horiz-adv-x="819" d="M213 -477q66 74 72 147.5t-68 171.5l299 78q82 -119 65.5 -221t-102.5 -176h-266z" />
<glyph unicode="&#xb9;" horiz-adv-x="675" d="M68 1270l184 61h276v-614h-295v395l-120 -45z" />
<glyph unicode="&#xba;" horiz-adv-x="890" d="M51 989q0 102 33 181t90 132.5t131 81t158 27.5q186 0 281.5 -99t95.5 -304q0 -96 -32 -173t-88 -131.5t-132 -84t-164 -29.5q-74 0 -141.5 20.5t-118.5 68.5t-82 124t-31 186zM80 254v287h731v-287h-731zM336 999q0 -72 25.5 -115.5t78.5 -43.5q20 0 41 7t36 25.5 t25.5 49t10.5 77.5q0 84 -24.5 122t-84.5 38q-41 0 -74.5 -34.5t-33.5 -125.5z" />
<glyph unicode="&#xbb;" horiz-adv-x="1167" d="M72 897l297 127l229 -424l-236 -428l-284 125l168 303zM606 918l307 122l205 -440l-211 -444l-295 120l154 324z" />
<glyph unicode="&#xbc;" horiz-adv-x="1536" d="M68 1270l184 61h276v-614h-295v395l-120 -45zM109 117l1038 1261l229 -168l-1038 -1261zM831 260l181 354h370v-342h76v-192h-76v-80h-252v80h-280zM1036 270h97v189z" />
<glyph unicode="&#xbd;" horiz-adv-x="1536" d="M66 1270l184 61h276v-614h-295v395l-120 -45zM106 117l1039 1261l229 -168l-1038 -1261zM928 0v201l71 51q68 49 92.5 79.5t24.5 49.5q0 35 -43 35q-51 0 -110 -27l-31 213q49 14 111.5 25.5t121.5 11.5q78 0 131.5 -16.5t85 -44t46 -63.5t14.5 -77q0 -49 -32 -97 t-110 -108l-24 -18h176v-215h-524z" />
<glyph unicode="&#xbe;" horiz-adv-x="1556" d="M86 711l23 168q16 -6 43.5 -10.5t56.5 -4.5q45 0 63.5 12.5t18.5 30.5q0 10 -6 20.5t-24.5 17.5t-51.5 7t-88 -8v152h8q94 0 123 15t29 40q0 16 -11.5 24.5t-42.5 8.5q-27 0 -58.5 -6.5t-53.5 -20.5l-25 166q35 10 96.5 21.5t126.5 11.5q78 0 130.5 -14.5t84 -39t45 -55 t13.5 -63.5q0 -49 -20.5 -89t-71.5 -63q53 -4 84.5 -45t31.5 -82q0 -98 -83 -155.5t-263 -57.5q-45 0 -100 7.5t-78 11.5zM129 117l1038 1261l230 -168l-1039 -1261zM852 260l180 354h371v-342h76v-192h-76v-80h-252v80h-281zM1057 270h96v189z" />
<glyph unicode="&#xbf;" horiz-adv-x="940" d="M57 -20q0 88 28 147t69 104t86 81t79.5 73t49 82t-3.5 108h364q33 -90 27 -155.5t-36 -114.5t-73 -86t-84 -68.5t-69.5 -63.5t-28.5 -69q0 -78 99.5 -112.5t287.5 -38.5l-45 -338q-207 2 -349.5 42t-231.5 102.5t-129 142.5t-40 164zM328 842q0 43 16 79.5t45 64.5 t68 44.5t84 16.5t84 -16.5t67.5 -44.5t45 -64.5t16.5 -79.5t-16.5 -81t-45 -65.5t-67.5 -43t-84 -15.5t-84 15.5t-68 43t-45 65.5t-16 81z" />
<glyph unicode="&#xc0;" horiz-adv-x="1312" d="M-23 0l451 1382h436l473 -1382h-415l-72 225h-426l-70 -225h-377zM223 1540l72 252l500 -156l-54 -196zM514 524h242l-70 224q-16 51 -28.5 99t-22.5 95h-4q-18 -92 -49 -197z" />
<glyph unicode="&#xc1;" horiz-adv-x="1312" d="M-23 0l451 1382h436l473 -1382h-415l-72 225h-426l-70 -225h-377zM424 1636l500 156l71 -252l-518 -100zM514 524h242l-70 224q-16 51 -28.5 99t-22.5 95h-4q-18 -92 -49 -197z" />
<glyph unicode="&#xc2;" horiz-adv-x="1312" d="M-23 0l451 1382h436l473 -1382h-415l-72 225h-426l-70 -225h-377zM283 1608l360 184l361 -184l-76 -168l-285 112l-287 -112zM514 524h242l-70 224q-16 51 -28.5 99t-22.5 95h-4q-18 -92 -49 -197z" />
<glyph unicode="&#xc3;" horiz-adv-x="1312" d="M-23 0l451 1382h436l473 -1382h-415l-72 225h-426l-70 -225h-377zM205 1589q111 195 297 195q53 0 89 -13.5t62.5 -29t48 -27.5t48.5 -12q37 0 59 19.5t45 60.5l180 -119q-111 -195 -297 -195q-53 0 -89 12.5t-62.5 28t-48 28.5t-48.5 13q-37 0 -59 -19.5t-45 -60.5z M514 524h242l-70 224q-16 51 -28.5 99t-22.5 95h-4q-18 -92 -49 -197z" />
<glyph unicode="&#xc4;" horiz-adv-x="1312" d="M-23 0l451 1382h436l473 -1382h-415l-72 225h-426l-70 -225h-377zM252 1626q0 66 47 113t113 47t112.5 -47t46.5 -113t-47 -113t-112 -47q-66 0 -113 47.5t-47 112.5zM514 524h242l-70 224q-16 51 -28.5 99t-22.5 95h-4q-18 -92 -49 -197zM698 1626q0 66 47.5 113 t112.5 47q66 0 113 -47t47 -113t-47 -113t-113 -47t-113 47.5t-47 112.5z" />
<glyph unicode="&#xc5;" horiz-adv-x="1312" d="M-23 0l422 1292q-25 35 -39 76t-14 88q0 61 23.5 113.5t64.5 90.5t96.5 59.5t116.5 21.5t116.5 -21.5t96.5 -59.5t64.5 -90t23.5 -114q0 -47 -14 -89t-39 -77l442 -1290h-415l-72 225h-426l-70 -225h-377zM516 524h238l-56 174q-18 59 -35.5 116.5t-27.5 123.5h-4 q-10 -59 -27.5 -127t-40.5 -135zM549 1456q0 -41 28.5 -69.5t69.5 -28.5t69.5 28.5t28.5 69.5t-28.5 69.5t-69.5 28.5t-69.5 -28.5t-28.5 -69.5z" />
<glyph unicode="&#xc6;" horiz-adv-x="1622" d="M-66 0l613 1382h991v-323h-424v-195h410v-311h-410v-223h432v-330h-796v264h-324l-107 -264h-385zM547 559h203v504h-2q-33 -88 -61 -161t-56 -140z" />
<glyph unicode="&#xc7;" horiz-adv-x="1107" d="M55 635q0 172 48.5 312t139.5 239.5t223 153t302 53.5q68 0 137.5 -9.5t128.5 -27.5l-47 -348q-98 39 -219 39q-135 0 -214 -90.5t-79 -258.5q0 -180 73 -274t234 -94q45 0 103.5 10t101.5 33l51 -340q-72 -27 -157.5 -39t-169.5 -12q-203 0 -331 62t-201 159.5 t-98.5 212t-25.5 219.5zM453 -477q66 74 72 147.5t-68 171.5l299 78q82 -119 65.5 -221t-102.5 -176h-266z" />
<glyph unicode="&#xc8;" horiz-adv-x="983" d="M98 0v1382h809v-323h-428v-195h406v-311h-406v-223h428v-330h-809zM127 1540l72 252l499 -156l-53 -196z" />
<glyph unicode="&#xc9;" horiz-adv-x="983" d="M98 0v1382h809v-323h-428v-195h406v-311h-406v-223h428v-330h-809zM336 1636l500 156l71 -252l-518 -100z" />
<glyph unicode="&#xca;" horiz-adv-x="983" d="M98 0v1382h809v-323h-428v-195h406v-311h-406v-223h428v-330h-809zM137 1608l361 184l360 -184l-76 -168l-284 112l-287 -112z" />
<glyph unicode="&#xcb;" horiz-adv-x="983" d="M98 0v1382h809v-323h-428v-195h406v-311h-406v-223h428v-330h-809zM115 1626q0 66 47 113t112 47q66 0 113 -47t47 -113t-47 -113t-113 -47t-112.5 47.5t-46.5 112.5zM561 1626q0 66 47 113t113 47t113 -47t47 -113t-47.5 -113t-112.5 -47q-66 0 -113 47.5t-47 112.5z " />
<glyph unicode="&#xcc;" horiz-adv-x="577" d="M-43 1540l72 252l499 -156l-53 -196zM98 0v1382h381v-1382h-381z" />
<glyph unicode="&#xcd;" horiz-adv-x="577" d="M43 1636l500 156l71 -252l-518 -100zM98 0v1382h381v-1382h-381z" />
<glyph unicode="&#xce;" horiz-adv-x="577" d="M-72 1608l361 184l360 -184l-76 -168l-284 112l-287 -112zM98 0v1382h381v-1382h-381z" />
<glyph unicode="&#xcf;" horiz-adv-x="577" d="M-100 1626q0 66 47 113t112 47q66 0 113 -47t47 -113t-47 -113t-113 -47t-112.5 47.5t-46.5 112.5zM98 0v1382h381v-1382h-381zM346 1626q0 66 47 113t113 47t113 -47t47 -113t-47.5 -113t-112.5 -47q-66 0 -113 47.5t-47 112.5z" />
<glyph unicode="&#xd0;" horiz-adv-x="1343" d="M8 549v287h107v542q82 4 212 8.5t281 4.5q152 0 277 -34t215 -112t140 -206t50 -314q0 -178 -53 -314.5t-150.5 -230.5t-234.5 -142t-307 -48q-221 0 -430 12v547h-107zM489 326q27 -6 91 -7q63 0 118.5 23t96.5 69t64.5 116.5t23.5 166.5q0 80 -10.5 148.5t-42 119 t-90 79t-152.5 28.5h-55.5t-43.5 -4v-229h187v-287h-187v-223z" />
<glyph unicode="&#xd1;" horiz-adv-x="1404" d="M98 0v1382h488l200 -411q45 -92 89.5 -183.5t78.5 -175.5q-8 72 -11 147t-3 140v483h367v-1382h-484l-231 473q-41 82 -76 162t-61 149q6 -61 8 -106t2 -113v-565h-367zM266 1589q111 195 297 195q53 0 89 -13.5t62.5 -29t48 -27.5t48.5 -12q37 0 59.5 19.5t44.5 60.5 l181 -119q-111 -195 -297 -195q-53 0 -89 12.5t-62.5 28t-48 28.5t-48.5 13q-37 0 -59.5 -19.5t-45.5 -60.5z" />
<glyph unicode="&#xd2;" horiz-adv-x="1435" d="M43 672q0 168 55.5 304t150.5 232.5t223 149.5t273 53q135 0 253 -38t206 -122t138.5 -216t50.5 -320q0 -170 -54.5 -307.5t-149.5 -233.5t-223 -149.5t-276 -53.5q-164 0 -284.5 48.5t-201.5 138.5t-121 220t-40 294zM379 1540l72 252l499 -156l-53 -196zM449 700 q0 -178 60 -278t200 -100q45 0 94 17t90 60t67.5 114.5t26.5 182.5q0 367 -270 367q-49 0 -97.5 -20.5t-86 -63.5t-61 -111.5t-23.5 -167.5z" />
<glyph unicode="&#xd3;" horiz-adv-x="1435" d="M43 672q0 168 55.5 304t150.5 232.5t223 149.5t273 53q135 0 253 -38t206 -122t138.5 -216t50.5 -320q0 -170 -54.5 -307.5t-149.5 -233.5t-223 -149.5t-276 -53.5q-164 0 -284.5 48.5t-201.5 138.5t-121 220t-40 294zM449 700q0 -178 60 -278t200 -100q45 0 94 17t90 60 t67.5 114.5t26.5 182.5q0 367 -270 367q-49 0 -97.5 -20.5t-86 -63.5t-61 -111.5t-23.5 -167.5zM520 1636l500 156l72 -252l-519 -100z" />
<glyph unicode="&#xd4;" horiz-adv-x="1435" d="M43 672q0 168 55.5 304t150.5 232.5t223 149.5t273 53q135 0 253 -38t206 -122t138.5 -216t50.5 -320q0 -170 -54.5 -307.5t-149.5 -233.5t-223 -149.5t-276 -53.5q-164 0 -284.5 48.5t-201.5 138.5t-121 220t-40 294zM393 1608l361 184l360 -184l-76 -168l-284 112 l-287 -112zM449 700q0 -178 60 -278t200 -100q45 0 94 17t90 60t67.5 114.5t26.5 182.5q0 367 -270 367q-49 0 -97.5 -20.5t-86 -63.5t-61 -111.5t-23.5 -167.5z" />
<glyph unicode="&#xd5;" horiz-adv-x="1435" d="M43 672q0 168 55.5 304t150.5 232.5t223 149.5t273 53q135 0 253 -38t206 -122t138.5 -216t50.5 -320q0 -170 -54.5 -307.5t-149.5 -233.5t-223 -149.5t-276 -53.5q-164 0 -284.5 48.5t-201.5 138.5t-121 220t-40 294zM291 1589q111 195 297 195q53 0 89 -13.5t62.5 -29 t48 -27.5t48.5 -12q37 0 59.5 19.5t44.5 60.5l180 -119q-111 -195 -297 -195q-53 0 -89 12.5t-62.5 28t-48 28.5t-48.5 13q-37 0 -59 -19.5t-45 -60.5zM449 700q0 -178 60 -278t200 -100q45 0 94 17t90 60t67.5 114.5t26.5 182.5q0 367 -270 367q-49 0 -97.5 -20.5 t-86 -63.5t-61 -111.5t-23.5 -167.5z" />
<glyph unicode="&#xd6;" horiz-adv-x="1435" d="M43 672q0 168 55.5 304t150.5 232.5t223 149.5t273 53q135 0 253 -38t206 -122t138.5 -216t50.5 -320q0 -170 -54.5 -307.5t-149.5 -233.5t-223 -149.5t-276 -53.5q-164 0 -284.5 48.5t-201.5 138.5t-121 220t-40 294zM356 1626q0 66 47.5 113t112.5 47q66 0 113 -47 t47 -113t-47 -113t-113 -47t-113 47.5t-47 112.5zM449 700q0 -178 60 -278t200 -100q45 0 94 17t90 60t67.5 114.5t26.5 182.5q0 367 -270 367q-49 0 -97.5 -20.5t-86 -63.5t-61 -111.5t-23.5 -167.5zM803 1626q0 66 47 113t113 47t112.5 -47t46.5 -113t-47 -113t-112 -47 q-66 0 -113 47.5t-47 112.5z" />
<glyph unicode="&#xd7;" d="M72 319l274 277l-274 274l229 230l274 -275l277 275l203 -203l-277 -274l277 -277l-230 -229l-276 276l-275 -276z" />
<glyph unicode="&#xd8;" horiz-adv-x="1435" d="M43 672q0 168 54.5 304t149.5 232.5t223 149.5t275 53h23.5t28.5 -2l61 186l272 -82l-57 -172q70 -35 128.5 -89t101.5 -131t66.5 -177t23.5 -229q0 -170 -54.5 -307.5t-148.5 -233.5t-223 -149.5t-277 -53.5h-36.5t-35.5 2l-63 -192l-272 82l61 184q-154 82 -227.5 244 t-73.5 381zM430 700q0 -90 12.5 -153.5t34.5 -102.5l211 631q-45 -4 -82 -20q-78 -35 -127 -121t-49 -234zM727 307q23 0 47 6q39 10 81 35t75 71t54.5 113.5t21.5 163.5q0 84 -14.5 155t-45.5 114z" />
<glyph unicode="&#xd9;" horiz-adv-x="1359" d="M98 500v882h381v-864q0 -111 42 -169t161 -58q115 0 159 54t44 183v854h377v-833q0 -152 -42 -260.5t-120 -179t-189.5 -104.5t-251.5 -34q-166 0 -274.5 41t-171.5 113t-89 168t-26 207zM283 1540l71 252l500 -156l-53 -196z" />
<glyph unicode="&#xda;" horiz-adv-x="1359" d="M98 500v882h381v-864q0 -111 42 -169t161 -58q115 0 159 54t44 183v854h377v-833q0 -152 -42 -260.5t-120 -179t-189.5 -104.5t-251.5 -34q-166 0 -274.5 41t-171.5 113t-89 168t-26 207zM512 1636l500 156l71 -252l-518 -100z" />
<glyph unicode="&#xdb;" horiz-adv-x="1359" d="M98 500v882h381v-864q0 -111 42 -169t161 -58q115 0 159 54t44 183v854h377v-833q0 -152 -42 -260.5t-120 -179t-189.5 -104.5t-251.5 -34q-166 0 -274.5 41t-171.5 113t-89 168t-26 207zM324 1608l360 184l360 -184l-75 -168l-285 112l-287 -112z" />
<glyph unicode="&#xdc;" horiz-adv-x="1359" d="M98 500v882h381v-864q0 -111 42 -169t161 -58q115 0 159 54t44 183v854h377v-833q0 -152 -42 -260.5t-120 -179t-189.5 -104.5t-251.5 -34q-166 0 -274.5 41t-171.5 113t-89 168t-26 207zM285 1626q0 66 47 113t112 47q66 0 113 -47t47 -113t-47 -113t-113 -47 t-112.5 47.5t-46.5 112.5zM731 1626q0 66 47 113t113 47t113 -47t47 -113t-47.5 -113t-112.5 -47q-66 0 -113 47.5t-47 112.5z" />
<glyph unicode="&#xdd;" horiz-adv-x="1222" d="M-14 1382h413l129 -299q27 -59 46.5 -111t35.5 -100h4q18 55 45 116t56 126l119 268h403l-438 -905v-477h-381v475zM406 1636l499 156l72 -252l-518 -100z" />
<glyph unicode="&#xde;" horiz-adv-x="1155" d="M98 0v1382h381v-170q23 2 50.5 3.5t68.5 1.5q246 0 390.5 -118t144.5 -358q0 -106 -39 -200.5t-113 -165t-182.5 -112.5t-247.5 -42h-37.5t-34.5 2v-223h-381zM479 537q39 -6 84 -7q33 0 64.5 11.5t56.5 35t40 59.5t15 87q0 74 -43 129t-143 55q-20 0 -36.5 -1t-37.5 -3 v-366z" />
<glyph unicode="&#xdf;" horiz-adv-x="1288" d="M96 0v995q0 139 44 237.5t118 161t171 91t204 28.5q102 0 190 -21.5t152.5 -64.5t101.5 -106.5t37 -149.5q0 -92 -28.5 -145t-62.5 -90t-61.5 -68.5t-27.5 -81.5q0 -31 23.5 -53t58.5 -45.5t77 -51.5t76.5 -68t58 -94t23.5 -130q0 -88 -34.5 -156.5t-94 -116.5 t-141.5 -74t-176 -26q-78 0 -139.5 11.5t-100.5 27.5l17 295q41 -23 89 -37t97 -14q55 0 74.5 17.5t19.5 39.5q0 31 -22.5 52.5t-57 43t-74.5 47t-75 63.5t-57.5 90t-22.5 130q0 88 26.5 142.5t57.5 96.5t57.5 81t26.5 94q0 76 -96 76q-72 0 -114 -55.5t-42 -161.5v-1010 h-373z" />
<glyph unicode="&#xe0;" horiz-adv-x="1083" d="M51 289q0 102 43 172.5t119 113.5t177.5 61.5t215.5 18.5v27q0 43 -35.5 61.5t-126.5 18.5q-66 0 -139.5 -17.5t-134.5 -46.5l-59 289q82 27 189.5 43.5t209.5 16.5q137 0 228 -24t145.5 -70t77 -113.5t22.5 -155.5v-467q0 -47 1 -103.5t7 -113.5h-348q0 29 1 61.5 t7 67.5h-2q-37 -72 -116.5 -113t-178.5 -41q-78 0 -134 26t-94 69t-56.5 99t-18.5 120zM211 1321l152 252l434 -252l-123 -207zM401 326q0 -29 19.5 -49.5t56.5 -20.5q57 0 93 40t36 93v35q-123 0 -164 -25.5t-41 -72.5z" />
<glyph unicode="&#xe1;" horiz-adv-x="1083" d="M51 289q0 102 43 172.5t119 113.5t177.5 61.5t215.5 18.5v27q0 43 -35.5 61.5t-126.5 18.5q-66 0 -139.5 -17.5t-134.5 -46.5l-59 289q82 27 189.5 43.5t209.5 16.5q137 0 228 -24t145.5 -70t77 -113.5t22.5 -155.5v-467q0 -47 1 -103.5t7 -113.5h-348q0 29 1 61.5 t7 67.5h-2q-37 -72 -116.5 -113t-178.5 -41q-78 0 -134 26t-94 69t-56.5 99t-18.5 120zM310 1319l434 254l151 -252l-462 -207zM401 326q0 -29 19.5 -49.5t56.5 -20.5q57 0 93 40t36 93v35q-123 0 -164 -25.5t-41 -72.5z" />
<glyph unicode="&#xe2;" horiz-adv-x="1083" d="M51 289q0 102 43 172.5t119 113.5t177.5 61.5t215.5 18.5v27q0 43 -35.5 61.5t-126.5 18.5q-66 0 -139.5 -17.5t-134.5 -46.5l-59 289q82 27 189.5 43.5t209.5 16.5q137 0 228 -24t145.5 -70t77 -113.5t22.5 -155.5v-467q0 -47 1 -103.5t7 -113.5h-348q0 29 1 61.5 t7 67.5h-2q-37 -72 -116.5 -113t-178.5 -41q-78 0 -134 26t-94 69t-56.5 99t-18.5 120zM195 1282l356 291l356 -291l-133 -168l-223 158l-223 -158zM401 326q0 -29 19.5 -49.5t56.5 -20.5q57 0 93 40t36 93v35q-123 0 -164 -25.5t-41 -72.5z" />
<glyph unicode="&#xe3;" horiz-adv-x="1083" d="M51 289q0 102 43 172.5t119 113.5t177.5 61.5t215.5 18.5v27q0 43 -35.5 61.5t-126.5 18.5q-66 0 -139.5 -17.5t-134.5 -46.5l-59 289q82 27 189.5 43.5t209.5 16.5q137 0 228 -24t145.5 -70t77 -113.5t22.5 -155.5v-467q0 -47 1 -103.5t7 -113.5h-348q0 29 1 61.5 t7 67.5h-2q-37 -72 -116.5 -113t-178.5 -41q-78 0 -134 26t-94 69t-56.5 99t-18.5 120zM145 1278q51 106 122 161.5t163 55.5q51 0 86 -14.5t60.5 -31.5t47 -31.5t45.5 -14.5q35 0 56.5 22.5t44.5 65.5l172 -131q-51 -106 -122 -161.5t-163 -55.5q-53 0 -87 14t-59.5 31.5 t-47 32t-46.5 14.5q-35 0 -56 -22.5t-44 -65.5zM401 326q0 -29 19.5 -49.5t56.5 -20.5q57 0 93 40t36 93v35q-123 0 -164 -25.5t-41 -72.5z" />
<glyph unicode="&#xe4;" horiz-adv-x="1083" d="M51 289q0 102 43 172.5t119 113.5t177.5 61.5t215.5 18.5v27q0 43 -35.5 61.5t-126.5 18.5q-66 0 -139.5 -17.5t-134.5 -46.5l-59 289q82 27 189.5 43.5t209.5 16.5q137 0 228 -24t145.5 -70t77 -113.5t22.5 -155.5v-467q0 -47 1 -103.5t7 -113.5h-348q0 29 1 61.5 t7 67.5h-2q-37 -72 -116.5 -113t-178.5 -41q-78 0 -134 26t-94 69t-56.5 99t-18.5 120zM139 1311q0 78 54.5 132t131.5 54q78 0 132.5 -54t54.5 -132t-54.5 -132.5t-132.5 -54.5t-132 54.5t-54 132.5zM401 326q0 -29 19.5 -49.5t56.5 -20.5q57 0 93 40t36 93v35 q-123 0 -164 -25.5t-41 -72.5zM583 1311q0 78 54.5 132t132.5 54t132 -54t54 -132t-54 -132.5t-132 -54.5t-132.5 54.5t-54.5 132.5z" />
<glyph unicode="&#xe5;" horiz-adv-x="1083" d="M51 289q0 102 43 172.5t119 113.5t177.5 61.5t215.5 18.5v27q0 43 -35.5 61.5t-126.5 18.5q-66 0 -139.5 -17.5t-134.5 -46.5l-59 289q82 27 189.5 43.5t209.5 16.5q137 0 228 -24t145.5 -70t77 -113.5t22.5 -155.5v-467q0 -47 1 -103.5t7 -113.5h-348q0 29 1 61.5 t7 67.5h-2q-37 -72 -116.5 -113t-178.5 -41q-78 0 -134 26t-94 69t-56.5 99t-18.5 120zM235 1380q0 61 23.5 113.5t64.5 90.5t96.5 59.5t116.5 21.5t116.5 -21.5t96.5 -59.5t64.5 -90.5t23.5 -113.5t-23.5 -113t-64.5 -90t-96 -59.5t-117 -21.5q-61 0 -116.5 21.5 t-96.5 59.5t-64.5 90t-23.5 113zM401 326q0 -29 19.5 -49.5t56.5 -20.5q57 0 93 40t36 93v35q-123 0 -164 -25.5t-41 -72.5zM438 1380q0 -41 28.5 -69.5t69.5 -28.5t69.5 28.5t28.5 69.5t-28.5 70t-69.5 29t-69.5 -29t-28.5 -70z" />
<glyph unicode="&#xe6;" horiz-adv-x="1619" d="M51 289q0 102 43 172.5t119 113.5t177.5 61.5t215.5 18.5v27q0 43 -35.5 61.5t-126.5 18.5q-66 0 -139.5 -17.5t-134.5 -46.5l-59 289q82 27 189.5 43.5t209.5 16.5q88 0 173 -14.5t153 -67.5h2q47 37 116.5 58t149.5 21q119 0 205 -37.5t142 -103t84 -156t28 -196.5 q0 -78 -13 -160h-577q4 -53 56 -91t163 -38q72 0 147.5 14.5t153.5 49.5l33 -279q-92 -37 -195.5 -54.5t-197.5 -17.5q-152 0 -259.5 43t-154.5 129h-2q-51 -84 -138 -128t-219 -44q-80 0 -137 26t-96 69t-57.5 99t-18.5 120zM401 326q0 -29 19.5 -49.5t56.5 -20.5 q57 0 93 40t36 93v35q-123 0 -164 -25.5t-41 -72.5zM971 633h229q4 74 -25.5 107.5t-78.5 33.5q-53 0 -87 -39t-38 -102z" />
<glyph unicode="&#xe7;" horiz-adv-x="837" d="M49 477q0 113 32 215.5t99.5 180t172 123.5t249.5 46q43 0 91 -6t93 -20l-51 -324q-70 29 -131 29q-86 0 -125 -57.5t-39 -161.5q0 -102 44 -151.5t120 -49.5q35 0 72 6t69 23l41 -316q-53 -20 -122.5 -29.5t-135.5 -9.5q-127 0 -218 36t-149.5 101.5t-85 157.5 t-26.5 207zM276 -477q66 74 72 147.5t-68 171.5l299 78q82 -119 65.5 -221t-102.5 -176h-266z" />
<glyph unicode="&#xe8;" horiz-adv-x="1073" d="M49 496q0 119 33 219t97.5 174t159.5 114.5t218 40.5q119 0 205 -37.5t142.5 -103t84 -156t27.5 -196.5q0 -78 -12 -160h-578q4 -53 56.5 -91t162.5 -38q72 0 147.5 14.5t153.5 49.5l33 -279q-92 -37 -195.5 -54.5t-197.5 -17.5q-256 0 -396.5 125t-140.5 396zM233 1321 l152 252l434 -252l-123 -207zM424 633h229q4 74 -25.5 107.5t-78.5 33.5q-53 0 -87 -39t-38 -102z" />
<glyph unicode="&#xe9;" horiz-adv-x="1073" d="M49 496q0 119 33 219t97.5 174t159.5 114.5t218 40.5q119 0 205 -37.5t142.5 -103t84 -156t27.5 -196.5q0 -78 -12 -160h-578q4 -53 56.5 -91t162.5 -38q72 0 147.5 14.5t153.5 49.5l33 -279q-92 -37 -195.5 -54.5t-197.5 -17.5q-256 0 -396.5 125t-140.5 396zM328 1319 l434 254l151 -252l-462 -207zM424 633h229q4 74 -25.5 107.5t-78.5 33.5q-53 0 -87 -39t-38 -102z" />
<glyph unicode="&#xea;" horiz-adv-x="1073" d="M49 496q0 119 33 219t97.5 174t159.5 114.5t218 40.5q119 0 205 -37.5t142.5 -103t84 -156t27.5 -196.5q0 -78 -12 -160h-578q4 -53 56.5 -91t162.5 -38q72 0 147.5 14.5t153.5 49.5l33 -279q-92 -37 -195.5 -54.5t-197.5 -17.5q-256 0 -396.5 125t-140.5 396zM191 1282 l356 291l356 -291l-133 -168l-223 158l-223 -158zM424 633h229q4 74 -25.5 107.5t-78.5 33.5q-53 0 -87 -39t-38 -102z" />
<glyph unicode="&#xeb;" horiz-adv-x="1073" d="M49 496q0 119 33 219t97.5 174t159.5 114.5t218 40.5q119 0 205 -37.5t142.5 -103t84 -156t27.5 -196.5q0 -78 -12 -160h-578q4 -53 56.5 -91t162.5 -38q72 0 147.5 14.5t153.5 49.5l33 -279q-92 -37 -195.5 -54.5t-197.5 -17.5q-256 0 -396.5 125t-140.5 396zM149 1311 q0 78 54.5 132t131.5 54q78 0 132.5 -54t54.5 -132t-54.5 -132.5t-132.5 -54.5t-132 54.5t-54 132.5zM424 633h229q4 74 -25.5 107.5t-78.5 33.5q-53 0 -87 -39t-38 -102zM593 1311q0 78 54.5 132t132.5 54t132 -54t54 -132t-54 -132.5t-132 -54.5t-132.5 54.5t-54.5 132.5z " />
<glyph unicode="&#xec;" horiz-adv-x="565" d="M6 1321l152 252l434 -252l-123 -207zM96 0v1018h373v-1018h-373z" />
<glyph unicode="&#xed;" horiz-adv-x="565" d="M-24 1319l434 254l151 -252l-462 -207zM96 0v1018h373v-1018h-373z" />
<glyph unicode="&#xee;" horiz-adv-x="565" d="M-71 1282l356 291l356 -291l-133 -168l-223 158l-223 -158zM96 0v1018h373v-1018h-373z" />
<glyph unicode="&#xef;" horiz-adv-x="565" d="M-127 1311q0 78 54.5 132t131.5 54q78 0 132.5 -54t54.5 -132t-54.5 -132.5t-132.5 -54.5t-132 54.5t-54 132.5zM96 0v1018h373v-1018h-373zM317 1311q0 78 54.5 132t132.5 54t132 -54t54 -132t-54 -132.5t-132 -54.5t-132.5 54.5t-54.5 132.5z" />
<glyph unicode="&#xf0;" horiz-adv-x="1161" d="M49 479q0 135 42 238.5t111.5 174.5t162 106.5t192.5 35.5q25 0 47.5 -4t38.5 -14q-10 12 -17.5 24.5t-17.5 26.5q-29 45 -76 92l-161 -69l-146 161l140 60q-61 47 -140 92l361 151q31 -23 61.5 -47t59.5 -53l149 64l145 -162l-147 -62q125 -156 187.5 -333.5 t62.5 -374.5q0 -154 -43 -268.5t-117 -190.5t-172 -114t-209 -38t-205 30t-162.5 91.5t-107.5 156.5t-39 226zM436 510q0 -109 40 -160t106 -51q133 0 133 233q0 88 -33 139.5t-107 51.5q-59 0 -99 -51t-40 -162z" />
<glyph unicode="&#xf1;" horiz-adv-x="1155" d="M96 0v1018h344q0 -20 -2 -60t-8 -75h2q47 68 128 113.5t198 45.5q84 0 141 -25.5t93 -69.5t51.5 -102.5t15.5 -123.5v-721h-373v643q0 39 -12 61.5t-45 22.5q-31 0 -59.5 -20.5t-51 -53t-36 -73.5t-13.5 -84v-496h-373zM182 1278q51 106 122 161.5t163 55.5 q51 0 86 -14.5t60.5 -31.5t47 -31.5t45.5 -14.5q35 0 56.5 22.5t44.5 65.5l172 -131q-51 -106 -122 -161.5t-163 -55.5q-53 0 -87 14t-59.5 31.5t-47 32t-46.5 14.5q-35 0 -56 -22.5t-44 -65.5z" />
<glyph unicode="&#xf2;" horiz-adv-x="1155" d="M47 479q0 129 43 233.5t118 178.5t177 112.5t219 38.5q252 0 378 -133t126 -377q0 -127 -44 -230t-119 -176t-176 -112t-216 -39t-208 28t-159.5 87.5t-102.5 155.5t-36 233zM258 1321l152 252l434 -252l-123 -207zM434 520q0 -119 32 -170t107 -51q72 0 110 57.5 t38 153.5q0 111 -31 162t-108 51q-55 0 -101.5 -47t-46.5 -156z" />
<glyph unicode="&#xf3;" horiz-adv-x="1155" d="M47 479q0 129 43 233.5t118 178.5t177 112.5t219 38.5q252 0 378 -133t126 -377q0 -127 -44 -230t-119 -176t-176 -112t-216 -39t-208 28t-159.5 87.5t-102.5 155.5t-36 233zM353 1319l434 254l151 -252l-462 -207zM434 520q0 -119 32 -170t107 -51q72 0 110 57.5 t38 153.5q0 111 -31 162t-108 51q-55 0 -101.5 -47t-46.5 -156z" />
<glyph unicode="&#xf4;" horiz-adv-x="1155" d="M47 479q0 129 43 233.5t118 178.5t177 112.5t219 38.5q252 0 378 -133t126 -377q0 -127 -44 -230t-119 -176t-176 -112t-216 -39t-208 28t-159.5 87.5t-102.5 155.5t-36 233zM238 1282l356 291l356 -291l-133 -168l-223 158l-223 -158zM434 520q0 -119 32 -170t107 -51 q72 0 110 57.5t38 153.5q0 111 -31 162t-108 51q-55 0 -101.5 -47t-46.5 -156z" />
<glyph unicode="&#xf5;" horiz-adv-x="1155" d="M47 479q0 129 43 233.5t118 178.5t177 112.5t219 38.5q252 0 378 -133t126 -377q0 -127 -44 -230t-119 -176t-176 -112t-216 -39t-208 28t-159.5 87.5t-102.5 155.5t-36 233zM199 1278q51 106 122 161.5t163 55.5q51 0 86 -14.5t60.5 -31.5t47 -31.5t45.5 -14.5 q35 0 56.5 22.5t44.5 65.5l172 -131q-51 -106 -122 -161.5t-163 -55.5q-53 0 -87 14t-59.5 31.5t-47 32t-46.5 14.5q-35 0 -56 -22.5t-44 -65.5zM434 520q0 -119 32 -170t107 -51q72 0 110 57.5t38 153.5q0 111 -31 162t-108 51q-55 0 -101.5 -47t-46.5 -156z" />
<glyph unicode="&#xf6;" horiz-adv-x="1155" d="M47 479q0 129 43 233.5t118 178.5t177 112.5t219 38.5q252 0 378 -133t126 -377q0 -127 -44 -230t-119 -176t-176 -112t-216 -39t-208 28t-159.5 87.5t-102.5 155.5t-36 233zM190 1311q0 78 54.5 132t131.5 54q78 0 132.5 -54t54.5 -132t-54.5 -132.5t-132.5 -54.5 t-132 54.5t-54 132.5zM434 520q0 -119 32 -170t107 -51q72 0 110 57.5t38 153.5q0 111 -31 162t-108 51q-55 0 -101.5 -47t-46.5 -156zM634 1311q0 78 54.5 132t132.5 54t132 -54t54 -132t-54 -132.5t-132 -54.5t-132.5 54.5t-54.5 132.5z" />
<glyph unicode="&#xf7;" d="M72 455v311h983v-311h-983zM350 201q0 43 16.5 82t46 68.5t68.5 46t82 16.5t82 -16.5t68.5 -46t46 -68.5t16.5 -82t-16.5 -82t-46 -69t-68.5 -46t-82 -16t-82 16t-68.5 46t-46 69t-16.5 82zM350 1020q0 43 16.5 82t46 68.5t68.5 46t82 16.5t82 -16.5t68.5 -46t46 -68.5 t16.5 -82t-16.5 -82t-46 -68.5t-68.5 -46t-82 -16.5t-82 16.5t-68.5 46t-46 68.5t-16.5 82z" />
<glyph unicode="&#xf8;" horiz-adv-x="1155" d="M47 479q0 135 44 239.5t119 176.5t176 109.5t218 37.5h30.5t35.5 -2l73 191l199 -60l-72 -182q49 -27 93.5 -65.5t76 -94t50 -129.5t18.5 -168q0 -129 -44 -231t-120 -175t-177 -112t-216 -39q-18 0 -38.5 1t-37.5 4l-80 -205l-198 59l75 195q-106 55 -165.5 165.5 t-59.5 284.5zM395 520q0 -37 4 -75.5t15 -65.5l141 364q-18 0 -39 -8q-51 -20 -86 -68.5t-35 -146.5zM588 276l37 7q55 14 95 67.5t40 157.5q0 45 -5 79t-18 70z" />
<glyph unicode="&#xf9;" horiz-adv-x="1150" d="M94 297v721h373v-643q0 -39 12.5 -61.5t44.5 -22.5q31 0 59.5 20.5t51 53t36 73.5t13.5 84v496h373v-1018h-344q0 20 2 60t8 75h-2q-47 -68 -128 -114t-198 -46q-84 0 -142 26t-93 70t-50.5 102t-15.5 124zM203 1321l152 252l434 -252l-123 -207z" />
<glyph unicode="&#xfa;" horiz-adv-x="1150" d="M94 297v721h373v-643q0 -39 12.5 -61.5t44.5 -22.5q31 0 59.5 20.5t51 53t36 73.5t13.5 84v496h373v-1018h-344q0 20 2 60t8 75h-2q-47 -68 -128 -114t-198 -46q-84 0 -142 26t-93 70t-50.5 102t-15.5 124zM396 1319l434 254l151 -252l-462 -207z" />
<glyph unicode="&#xfb;" horiz-adv-x="1150" d="M94 297v721h373v-643q0 -39 12.5 -61.5t44.5 -22.5q31 0 59.5 20.5t51 53t36 73.5t13.5 84v496h373v-1018h-344q0 20 2 60t8 75h-2q-47 -68 -128 -114t-198 -46q-84 0 -142 26t-93 70t-50.5 102t-15.5 124zM213 1282l356 291l356 -291l-133 -168l-223 158l-223 -158z" />
<glyph unicode="&#xfc;" horiz-adv-x="1150" d="M94 297v721h373v-643q0 -39 12.5 -61.5t44.5 -22.5q31 0 59.5 20.5t51 53t36 73.5t13.5 84v496h373v-1018h-344q0 20 2 60t8 75h-2q-47 -68 -128 -114t-198 -46q-84 0 -142 26t-93 70t-50.5 102t-15.5 124zM149 1311q0 78 54.5 132t131.5 54q78 0 132.5 -54t54.5 -132 t-54.5 -132.5t-132.5 -54.5t-132 54.5t-54 132.5zM593 1311q0 78 54.5 132t132.5 54t132 -54t54 -132t-54 -132.5t-132 -54.5t-132.5 54.5t-54.5 132.5z" />
<glyph unicode="&#xfd;" horiz-adv-x="1093" d="M-16 -477l43 315q72 -23 141 -22q20 0 46 5t51.5 19.5t47 39t31.5 61.5l16 59l-360 1018h410l59 -187q20 -63 43 -150t39 -169h4q10 45 22.5 93t24.5 93t23.5 84t21.5 66l58 170h399l-387 -1034q-55 -145 -114.5 -237.5t-127 -146t-145.5 -74t-170 -20.5q-39 0 -90.5 5.5 t-85.5 11.5zM398 1319l434 254l151 -252l-462 -207z" />
<glyph unicode="&#xfe;" horiz-adv-x="1144" d="M96 -477v1972h373v-373q0 -39 -1 -85t-7 -99h4q35 43 95.5 73.5t164.5 30.5q182 0 275.5 -129t93.5 -344q0 -129 -33 -236.5t-100.5 -185t-172 -121.5t-247.5 -44q-45 0 -72 6v-465h-373zM469 281q16 -4 32.5 -6.5t39.5 -2.5q33 0 61.5 12.5t50 42t34.5 78.5t13 123 q0 111 -24.5 158t-75.5 47t-91 -60.5t-40 -183.5v-208z" />
<glyph unicode="&#xff;" horiz-adv-x="1093" d="M-16 -477l43 315q72 -23 141 -22q20 0 46 5t51.5 19.5t47 39t31.5 61.5l16 59l-360 1018h410l59 -187q20 -63 43 -150t39 -169h4q10 45 22.5 93t24.5 93t23.5 84t21.5 66l58 170h399l-387 -1034q-55 -145 -114.5 -237.5t-127 -146t-145.5 -74t-170 -20.5q-39 0 -90.5 5.5 t-85.5 11.5zM147 1311q0 78 54.5 132t131.5 54q78 0 132.5 -54t54.5 -132t-54.5 -132.5t-132.5 -54.5t-132 54.5t-54 132.5zM591 1311q0 78 54.5 132t132.5 54t132 -54t54 -132t-54 -132.5t-132 -54.5t-132.5 54.5t-54.5 132.5z" />
<glyph unicode="&#x152;" horiz-adv-x="1753" d="M43 672q0 168 55.5 304t148.5 232.5t218 149.5t264 53q66 0 120 -7t107 -22h721v-323h-428v-195h406v-311h-406v-223h428v-330h-768q-47 -12 -104 -20.5t-115 -8.5q-164 0 -284.5 48.5t-201.5 138.5t-121 220t-40 294zM449 700q0 -178 60 -278t200 -100q41 0 81.5 11 t77.5 27v676q-70 27 -151 27q-49 0 -97.5 -20.5t-86 -63.5t-61 -111.5t-23.5 -167.5z" />
<glyph unicode="&#x153;" horiz-adv-x="1722" d="M47 479q0 131 43 235.5t118 177.5t176 111.5t220 38.5q80 0 164 -21.5t143 -68.5q59 45 131 68.5t164 23.5q119 0 205 -37.5t142.5 -103t84 -156t27.5 -196.5q0 -78 -12 -160h-578q4 -53 56.5 -91t162.5 -38q72 0 148 14.5t153 49.5l33 -279q-92 -37 -195.5 -54.5 t-197.5 -17.5q-121 0 -207 27t-151 80q-59 -49 -145.5 -78t-178.5 -29q-115 0 -208 27t-158.5 87.5t-102.5 155.5t-37 234zM434 520q0 -119 32 -170t107 -51q72 0 110 57.5t38 153.5q0 111 -31 162t-108 51q-55 0 -101.5 -47t-46.5 -156zM1073 633h230q4 74 -26 107.5 t-79 33.5q-53 0 -87 -39t-38 -102z" />
<glyph unicode="&#x178;" horiz-adv-x="1222" d="M-14 1382h413l129 -299q27 -59 46.5 -111t35.5 -100h4q18 55 45 116t56 126l119 268h403l-438 -905v-477h-381v475zM217 1626q0 66 47 113t113 47t113 -47t47 -113t-47.5 -113t-112.5 -47q-66 0 -113 47.5t-47 112.5zM664 1626q0 66 47 113t112 47q66 0 113 -47t47 -113 t-47 -113t-113 -47t-112.5 47.5t-46.5 112.5z" />
<glyph unicode="&#x2c6;" horiz-adv-x="851" d="M70 1282l356 291l356 -291l-133 -168l-223 158l-223 -158z" />
<glyph unicode="&#x2dc;" horiz-adv-x="870" d="M45 1278q51 106 122 161.5t163 55.5q51 0 86 -14.5t60.5 -31.5t47 -31.5t45.5 -14.5q35 0 56.5 22.5t44.5 65.5l172 -131q-51 -106 -122 -161.5t-163 -55.5q-53 0 -87 14t-59.5 31.5t-47 32t-46.5 14.5q-35 0 -56 -22.5t-44 -65.5z" />
<glyph unicode="&#x2000;" horiz-adv-x="896" />
<glyph unicode="&#x2001;" horiz-adv-x="1792" />
<glyph unicode="&#x2002;" horiz-adv-x="896" />
<glyph unicode="&#x2003;" horiz-adv-x="1792" />
<glyph unicode="&#x2004;" horiz-adv-x="597" />
<glyph unicode="&#x2005;" horiz-adv-x="448" />
<glyph unicode="&#x2006;" horiz-adv-x="298" />
<glyph unicode="&#x2007;" horiz-adv-x="298" />
<glyph unicode="&#x2008;" horiz-adv-x="224" />
<glyph unicode="&#x2009;" horiz-adv-x="358" />
<glyph unicode="&#x200a;" horiz-adv-x="99" />
<glyph unicode="&#x2010;" horiz-adv-x="696" d="M82 391v297h532v-297h-532z" />
<glyph unicode="&#x2011;" horiz-adv-x="696" d="M82 391v297h532v-297h-532z" />
<glyph unicode="&#x2012;" horiz-adv-x="696" d="M82 391v297h532v-297h-532z" />
<glyph unicode="&#x2013;" d="M0 446v328h1126v-328h-1126z" />
<glyph unicode="&#x2014;" horiz-adv-x="2048" d="M205 446v328h1638v-328h-1638z" />
<glyph unicode="&#x2018;" horiz-adv-x="614" d="M81 1006.5q-3 78.5 29.5 170t103.5 190.5t189 198l150 -133q-57 -61 -89 -108.5t-40 -87.5t5 -76t46 -73q39 -43 46 -102t-14.5 -112.5t-72.5 -90.5t-127 -37q-63 0 -114.5 33t-80 91.5t-31.5 137z" />
<glyph unicode="&#x2019;" horiz-adv-x="614" d="M61 856q57 61 89 108.5t40.5 87.5t-5 75.5t-46.5 72.5q-39 43 -46 102.5t14.5 112.5t71.5 90t128 37q63 0 114.5 -32.5t80 -91t32 -137.5t-29.5 -170t-103.5 -190.5t-189.5 -197.5z" />
<glyph unicode="&#x201a;" horiz-adv-x="614" d="M61 -276q57 61 89 108t40.5 87t-5 76t-46.5 73q-39 43 -46 102t14.5 112.5t71.5 90.5t128 37q63 0 114.5 -33t80 -91.5t32 -137t-29.5 -170t-103.5 -190.5t-189.5 -198z" />
<glyph unicode="&#x201c;" horiz-adv-x="1146" d="M81 1006.5q-3 78.5 29.5 170t103.5 190.5t189 198l150 -133q-57 -61 -89 -108.5t-40 -87.5t5 -76t46 -73q39 -43 46 -102t-14.5 -112.5t-72.5 -90.5t-127 -37q-63 0 -114.5 33t-80 91.5t-31.5 137zM613 1006.5q-3 78.5 30 170t103.5 190.5t189.5 198l149 -133 q-57 -61 -88.5 -108.5t-40 -87.5t5 -76t46.5 -73q39 -43 46 -102t-14.5 -112.5t-73 -90.5t-126.5 -37q-63 0 -114.5 33t-80.5 91.5t-32 137z" />
<glyph unicode="&#x201d;" horiz-adv-x="1146" d="M61 856q57 61 89 108.5t40.5 87.5t-5 75.5t-46.5 72.5q-39 43 -46 102.5t14.5 112.5t71.5 90t128 37q63 0 114.5 -32.5t80 -91t32 -137.5t-29.5 -170t-103.5 -190.5t-189.5 -197.5zM594 856q57 61 89 108.5t40 87.5t-5 75.5t-46 72.5q-39 43 -46.5 102.5t14.5 112.5 t72 90t128 37q63 0 114.5 -32.5t80 -91t31.5 -137.5t-29.5 -170t-103.5 -190.5t-190 -197.5z" />
<glyph unicode="&#x201e;" horiz-adv-x="1146" d="M61 -276q57 61 89 108t40.5 87t-5 76t-46.5 73q-39 43 -46 102t14.5 112.5t71.5 90.5t128 37q63 0 114.5 -33t80 -91.5t32 -137t-29.5 -170t-103.5 -190.5t-189.5 -198zM594 -276q57 61 89 108t40 87t-5 76t-46 73q-39 43 -46.5 102t14.5 112.5t72 90.5t128 37 q63 0 114.5 -33t80 -91.5t31.5 -137t-29.5 -170t-103.5 -190.5t-190 -198z" />
<glyph unicode="&#x2022;" horiz-adv-x="872" d="M51 608q0 80 30 149.5t82 122t122.5 83t150.5 30.5t149.5 -30.5t122 -83t83 -122t30.5 -149.5t-30.5 -149.5t-83 -121.5t-122 -83t-149.5 -31t-150.5 31t-122.5 83t-82 121.5t-30 149.5z" />
<glyph unicode="&#x2026;" horiz-adv-x="1654" d="M82 184q0 43 16.5 82t46 69t68.5 46t82 16t82 -16t68.5 -46t46 -69t16.5 -82t-16.5 -82t-46 -68.5t-68.5 -46t-82 -16.5t-82 16.5t-68.5 46t-46 68.5t-16.5 82zM614 184q0 43 16.5 82t46.5 69t68.5 46t81.5 16t82 -16t69 -46t46 -69t16 -82t-16 -82t-46 -68.5t-69 -46 t-82 -16.5t-81.5 16.5t-68.5 46t-46.5 68.5t-16.5 82zM1147 184q0 43 16.5 82t46 69t68.5 46t82 16t82 -16t68.5 -46t46 -69t16.5 -82t-16.5 -82t-46 -68.5t-68.5 -46t-82 -16.5t-82 16.5t-68.5 46t-46 68.5t-16.5 82z" />
<glyph unicode="&#x202f;" horiz-adv-x="358" />
<glyph unicode="&#x2039;" horiz-adv-x="636" d="M45 596l223 438l291 -125l-162 -313l168 -307l-303 -127z" />
<glyph unicode="&#x203a;" horiz-adv-x="636" d="M72 907l303 127l217 -434l-223 -438l-291 125l162 313z" />
<glyph unicode="&#x205f;" horiz-adv-x="448" />
<glyph unicode="&#x20ac;" d="M23 395v219h122v39v64h-122v219h159q27 90 76 168t123 134t176 89t236 33q72 0 147.5 -14.5t142.5 -36.5l-84 -293q-47 23 -105 36t-116 13q-152 0 -211 -129h264v-219h-307v-41v-62h307v-219h-268q29 -76 84 -102.5t133 -26.5q61 0 114.5 12.5t109.5 36.5l81 -280 q-72 -31 -164 -47.5t-190 -16.5q-109 0 -201 21.5t-164.5 71t-124 130t-75.5 201.5h-143z" />
<glyph unicode="&#x2122;" horiz-adv-x="1382" d="M14 1159v223h486v-223h-113v-352h-252v352h-121zM487 807l97 575h288l37 -159l13 -70l10 70l31 159h292l103 -575h-268l-25 170l-6 78l-12 -78l-29 -170h-221l-33 176l-10 72l-4 -72l-21 -176h-242z" />
<glyph unicode="&#x25fc;" horiz-adv-x="1013" d="M0 0v1014h1014v-1014h-1014z" />
<glyph unicode="&#xfb01;" horiz-adv-x="1234" d="M20 731v287h130v24q0 242 130 359t412 117q104 0 184 -9.5t175 -29.5l-60 -310q-59 16 -125.5 27.5t-126.5 11.5q-117 0 -167 -35.5t-50 -117.5v-37h617v-1018h-373v731h-244v-731h-372v731h-130z" />
<glyph unicode="&#xfb02;" horiz-adv-x="1234" d="M20 731v287h130v72q0 92 28.5 169.5t94 135t171 90.5t258.5 33q80 0 195 -11.5t242 -31.5v-1475h-373v1202q-41 8 -94 8q-70 0 -110 -30.5t-40 -96.5v-65h150v-287h-150v-731h-372v731h-130z" />
</font>
</defs>
</svg>
