<?xml version="1.0" standalone="no"?>
<!DOCTYPE svg PUBLIC "-//W3C//DTD SVG 1.1//EN" "http://www.w3.org/Graphics/SVG/1.1/DTD/svg11.dtd" >
<svg xmlns="http://www.w3.org/2000/svg">
<metadata></metadata>
<defs>
<font id="thesansregular" horiz-adv-x="1126" >
<font-face units-per-em="2048" ascent="1638" descent="-410" />
<missing-glyph horiz-adv-x="446" />
<glyph horiz-adv-x="0" />
<glyph unicode="&#xd;" horiz-adv-x="446" />
<glyph unicode=" "  horiz-adv-x="446" />
<glyph unicode="&#x09;" horiz-adv-x="446" />
<glyph unicode="&#xa0;" horiz-adv-x="446" />
<glyph unicode="!" horiz-adv-x="655" d="M221 102q0 51 36 86t89 35t88 -35t35 -86t-35 -85.5t-88 -34.5t-89 34.5t-36 85.5zM238 1440h217l-31 -1096h-154z" />
<glyph unicode="&#x22;" horiz-adv-x="749" d="M106 1432h195l-31 -471h-135zM449 1432h194l-29 -471h-137z" />
<glyph unicode="#" d="M63 373v127h195l35 344h-180v127h192l39 360h139l-37 -360h299l39 360h140l-39 -360h178v-127h-191l-34 -344h176v-127h-191l-39 -373h-141l41 373h-299l-41 -373h-139l39 373h-181zM397 500h299l35 344h-299z" />
<glyph unicode="$" d="M170 952q0 66 23.5 123.5t66.5 103.5t103.5 76.5t134.5 40.5v199h137v-188q59 -2 116.5 -8.5t104.5 -16.5l-20 -162q-117 35 -228 35q-72 0 -120 -16.5t-76.5 -42t-42 -57t-13.5 -64.5q0 -63 43 -103.5t108.5 -70t141.5 -58t141.5 -69.5t108.5 -103.5t43 -158.5 q0 -68 -23.5 -128.5t-67.5 -109.5t-107.5 -84t-145.5 -49v-215h-137v207q-72 0 -134.5 7t-121.5 21l18 172q55 -23 129 -34t133 -11q113 0 189 47.5t76 151.5q0 66 -43 107t-107.5 69.5t-139.5 56t-139.5 68.5t-107.5 102.5t-43 161.5z" />
<glyph unicode="%" horiz-adv-x="1536" d="M90 1024q0 70 21.5 130t61.5 104.5t97.5 69t126.5 24.5q145 0 217 -79t72 -231q0 -74 -22.5 -134t-62.5 -104t-96 -68.5t-126 -24.5q-150 0 -219.5 83t-69.5 230zM197 43l1017 1327l119 -86l-1018 -1327zM242 1036q0 -203 151 -202q61 0 101.5 53t40.5 141 q0 104 -35 151.5t-113 47.5q-66 0 -105.5 -52.5t-39.5 -138.5zM850 293q0 70 21.5 130t61.5 104t97 69t127 25q145 0 217 -79t72 -229q0 -74 -22.5 -134t-62.5 -105t-96.5 -69.5t-125.5 -24.5q-150 0 -219.5 82.5t-69.5 230.5zM1001 305q0 -201 152 -201q61 0 101 52.5 t40 142.5q0 102 -34.5 150.5t-112.5 48.5q-66 0 -106 -52.5t-40 -140.5z" />
<glyph unicode="&#x26;" horiz-adv-x="1628" d="M115 381q0 139 78.5 242.5t205.5 201.5q-53 61 -90 111.5t-59.5 94.5t-31.5 84t-9 83q0 61 23.5 117.5t69.5 99.5t114.5 67.5t156.5 24.5q160 0 244 -77.5t84 -198.5q0 -104 -58.5 -199.5t-197.5 -204.5q45 -47 99.5 -99t112.5 -106.5t119.5 -108.5t121.5 -101v-2 q68 96 107.5 225t31.5 283h184q4 -174 -44 -330t-144 -279q78 -59 151.5 -113.5t128.5 -93.5l-118 -141q-74 51 -153 109.5t-138 107.5q-100 -88 -235.5 -143t-305.5 -55q-111 0 -194.5 30.5t-140 85t-85 128t-28.5 157.5zM303 403q0 -53 20.5 -101t58.5 -85t92 -58.5 t122 -21.5q123 0 218 42.5t161 99.5q-63 51 -129 108t-127.5 115.5t-115.5 113t-97 101.5q-109 -86 -156 -160t-47 -154zM391 1206q0 -51 33 -113.5t117 -158.5q86 72 131 136t45 142q0 63 -37 109.5t-123 46.5q-72 0 -119 -45t-47 -117z" />
<glyph unicode="'" horiz-adv-x="407" d="M106 1432h195l-31 -471h-135z" />
<glyph unicode="(" horiz-adv-x="620" d="M143 582q0 113 14.5 233.5t49.5 249.5t93 263t144 271l134 -63q-125 -215 -189.5 -453.5t-64.5 -490.5q0 -522 256 -952l-138 -68q-90 143 -148 276.5t-92 259t-46.5 243.5t-12.5 231z" />
<glyph unicode=")" horiz-adv-x="620" d="M51 1534l139 65q90 -143 147.5 -276t91.5 -258t46 -242.5t12 -230.5t-14 -233.5t-49 -249.5t-92.5 -264.5t-145.5 -272.5l-133 66q127 215 190.5 453.5t63.5 488.5q0 264 -62.5 499.5t-193.5 454.5z" />
<glyph unicode="*" horiz-adv-x="765" d="M78 1096l211 92l-211 94l69 119l185 -135l-23 229h137l-24 -229l186 135l68 -119l-211 -92l211 -94l-70 -119l-184 135l22 -229h-137l23 229l-185 -135z" />
<glyph unicode="+" d="M86 532v154h389v410h174v-410h391v-154h-391v-411h-174v411h-389z" />
<glyph unicode="," horiz-adv-x="466" d="M53 -246q98 106 110.5 178t-22.5 117q-23 27 -24.5 58.5t10.5 59.5t38.5 46t63.5 18q57 0 93 -45t33 -119.5t-54 -174t-170 -207.5z" />
<glyph unicode="-" horiz-adv-x="675" d="M96 512v152h484v-152h-484z" />
<glyph unicode="." horiz-adv-x="466" d="M106 109q0 53 37 90t90 37t90 -37t37 -90t-36.5 -90t-90.5 -37q-53 0 -90 36.5t-37 90.5z" />
<glyph unicode="/" horiz-adv-x="897" d="M6 -330l717 1880h176l-717 -1880h-176z" />
<glyph unicode="0" d="M96 672q0 174 36 303t99.5 212t151.5 124t192 41q98 0 182.5 -33t144 -111t93 -206.5t33.5 -321.5q0 -190 -41 -324.5t-107.5 -217.5t-152.5 -120.5t-176 -37.5q-111 0 -195 35.5t-142 117.5t-88 214t-30 325zM295 684q0 -283 59.5 -415t206.5 -132q127 0 197.5 129.5 t70.5 401.5q0 147 -16 248.5t-49 164t-84 89t-119 26.5q-57 0 -105 -26.5t-84 -87t-56.5 -158t-20.5 -240.5z" />
<glyph unicode="1" d="M150 1188l403 143h147v-1165h316v-166h-864v166h358v979l-328 -129z" />
<glyph unicode="2" d="M119 0v150l293 288q104 102 169.5 175t100.5 128.5t47 100.5t12 94q0 104 -67.5 177t-196.5 73q-92 0 -171 -32t-130 -73l-45 160q76 47 172 78t207 31q109 0 189.5 -32t135 -85t81 -122t26.5 -144q0 -66 -14.5 -126.5t-51 -125t-100 -138t-162.5 -167.5l-247 -236v-2 q66 2 173 3t248 1h203v-176h-872z" />
<glyph unicode="3" d="M158 12l20 166q55 -18 118.5 -29.5t133.5 -11.5q168 0 254 67.5t86 178.5t-84 174.5t-248 63.5q-55 0 -101 -2.5t-99 -8.5v148h47q217 0 337.5 59.5t120.5 186.5q0 92 -67.5 143t-183.5 51q-86 0 -158 -20.5t-135 -55.5l-19 162q72 29 157 48.5t187 19.5t180 -24.5 t130.5 -67.5t78 -101.5t25.5 -126.5q0 -119 -66.5 -197.5t-187.5 -113.5l-2 -2q61 -6 114.5 -33t92.5 -69t60.5 -96t21.5 -113q0 -98 -40 -177t-113 -135.5t-176 -86t-230 -29.5q-70 0 -136.5 9t-117.5 23z" />
<glyph unicode="4" d="M47 457l565 874h250v-856h219v-168h-219v-307h-182v307h-619zM236 469q45 2 109.5 3l129 2t120.5 1h87v672h-2z" />
<glyph unicode="5" d="M174 8v170q57 -18 121.5 -28.5t138.5 -10.5q166 0 253 74t87 201q0 123 -94 186.5t-254 63.5q-66 0 -124 -5.5t-99 -11.5v684h721v-176h-549v-348q27 2 58.5 3t53.5 1q119 0 210 -28.5t152.5 -80t92.5 -119t31 -147.5q0 -102 -40 -186t-112.5 -143.5t-174 -92 t-226.5 -32.5q-131 0 -246 26z" />
<glyph unicode="6" d="M106 541q0 213 50.5 366.5t140.5 251.5t215 144.5t274 46.5q33 0 66 -1t55 -6v-161q-31 4 -62.5 7t-72.5 3q-205 0 -315.5 -111.5t-151.5 -316.5q-4 -16 -9 -42t-9 -58h2q51 86 138 130t194 44q100 0 176.5 -31t129 -83t80 -122.5t27.5 -152.5q0 -106 -32.5 -192.5 t-94 -148t-146.5 -95t-190 -33.5q-217 0 -341 146t-124 415zM309 432q0 -61 17.5 -116.5t53.5 -96.5t88 -64.5t120 -23.5q123 0 190.5 80t67.5 207q0 119 -66.5 193.5t-197.5 74.5q-66 0 -116 -23.5t-85 -60.5t-53.5 -82t-18.5 -88z" />
<glyph unicode="7" d="M115 1151v180h899v-160q-78 -145 -150.5 -296.5t-138.5 -302t-122 -296t-101 -276.5h-215q51 139 110.5 286.5t125 296t135 293t143.5 279.5q-18 0 -72.5 -1t-127.5 -2t-153.5 -1h-152.5h-180z" />
<glyph unicode="8" d="M111 313q0 63 23.5 115.5t62.5 95.5t91 79t107 69q-117 59 -184.5 136t-67.5 191q0 76 31 140.5t88 111.5t136 74t175 27t172 -24.5t128.5 -67.5t80 -102.5t27.5 -129.5q0 -57 -20.5 -104t-55.5 -87t-81 -74t-97 -65q55 -29 106.5 -61.5t91.5 -74.5t64.5 -96t24.5 -124 q0 -84 -36 -150.5t-97.5 -113.5t-146.5 -72.5t-183 -25.5q-100 0 -181 23.5t-138.5 67.5t-89 105.5t-31.5 136.5zM303 328q0 -86 68.5 -142.5t197.5 -56.5q106 0 179 51.5t73 143.5q0 55 -22.5 95t-60.5 72.5t-87 58t-102 50.5q-49 -27 -93 -55.5t-78 -61t-54.5 -70.5 t-20.5 -85zM334 1016q0 -41 14 -74t44 -61.5t75 -55t106 -57.5q45 25 85 51.5t70 55t47.5 62.5t17.5 75q0 92 -63.5 142t-170.5 50q-109 0 -167 -55t-58 -133z" />
<glyph unicode="9" d="M92 889q0 104 34 190t95.5 146.5t145.5 93.5t184 33q104 0 189 -33t145.5 -101.5t93.5 -174t33 -252.5q0 -219 -51.5 -373t-142.5 -250t-216 -141t-272 -45q-41 0 -82 3t-82 11v166q43 -10 90 -15.5t94 -5.5q199 0 308.5 100.5t144.5 299.5q4 29 8 50t10 48h-2 q-49 -72 -131 -112t-188 -40q-98 0 -174 31t-128.5 84t-79 127t-26.5 160zM279 918q0 -125 67.5 -199t190.5 -74q66 0 115.5 20.5t84.5 55.5t52.5 81t17.5 99q0 129 -68.5 214t-201.5 85q-61 0 -108.5 -21.5t-81.5 -60.5t-51 -90t-17 -110z" />
<glyph unicode=":" horiz-adv-x="585" d="M197 109q0 53 36.5 90t90.5 37q53 0 90 -37t37 -90t-37 -90t-90 -37t-90 36.5t-37 90.5zM197 709q0 53 36.5 90t90.5 37q53 0 90 -37t37 -90t-37 -90t-90 -37t-90 36.5t-37 90.5z" />
<glyph unicode=";" horiz-adv-x="585" d="M145 -246q98 106 110.5 178t-22.5 117q-23 27 -24.5 58.5t10.5 59.5t39 46t64 18q57 0 93 -45t32.5 -119.5t-54.5 -174t-170 -207.5zM197 709q0 53 36.5 90t90.5 37q53 0 90 -37t37 -90t-37 -90t-90 -37t-90 36.5t-37 90.5z" />
<glyph unicode="&#x3c;" d="M147 618l648 582l118 -119l-530 -460l530 -455l-118 -127z" />
<glyph unicode="=" d="M115 358v152h897v-152h-897zM115 709v151h897v-151h-897z" />
<glyph unicode="&#x3e;" d="M213 158l530 460l-530 455l119 127l647 -579l-647 -582z" />
<glyph unicode="?" horiz-adv-x="911" d="M172 1286l23 168q143 -4 253.5 -39t186.5 -89t114.5 -123.5t38.5 -145.5q0 -84 -30.5 -143.5t-73.5 -107.5t-91 -91t-83 -94.5t-47 -117t16 -159.5h-178q-33 100 -24.5 175t40 131.5t77.5 101.5t89 88t73 90t30 108q0 102 -110.5 171t-303.5 77zM268 102q0 51 35 86 t88 35t89 -35t36 -86t-36 -85.5t-89 -34.5t-88 34.5t-35 85.5z" />
<glyph unicode="@" horiz-adv-x="2002" d="M176 575q0 203 71.5 373t193.5 293t285 191.5t347 68.5q186 0 324.5 -55t229.5 -147.5t136 -213.5t45 -254q0 -137 -35.5 -242.5t-98 -178t-147.5 -109.5t-184 -37q-63 0 -107 19.5t-69.5 50.5t-35 70.5t-3.5 82.5h-6q-12 -31 -40.5 -69.5t-69.5 -72.5t-91.5 -57.5 t-105.5 -23.5q-100 0 -150.5 71t-50.5 206q0 113 29 213t87 175t145.5 118t203.5 43q70 0 136.5 -8.5t113.5 -20.5l-78 -436q-20 -111 11.5 -160t109.5 -49q57 0 106.5 25.5t85 75.5t56 126t20.5 178q0 100 -31.5 195.5t-100 170.5t-179 121t-266.5 46q-150 0 -281 -55.5 t-227 -156t-152.5 -238.5t-56.5 -304q0 -143 40 -259t120 -197t198.5 -124t274.5 -43q92 0 175 13.5t169 40.5l27 -150q-92 -29 -197.5 -43t-196.5 -14q-186 0 -331.5 53t-244.5 150.5t-151.5 236.5t-52.5 311zM770 573q0 -158 88 -157q37 0 78 25.5t79 78.5t69.5 132 t52.5 188l22 108q-49 12 -119 13q-72 0 -122 -39t-83.5 -96.5t-49 -126t-15.5 -126.5z" />
<glyph unicode="A" horiz-adv-x="1259" d="M20 0l504 1382h209l508 -1382h-211l-115 324h-587l-115 -324h-193zM377 473h489l-184 510q-18 51 -32.5 97t-26.5 91h-5q-12 -45 -26 -91t-31 -95z" />
<glyph unicode="B" horiz-adv-x="1167" d="M174 0v1382q76 2 177.5 4.5t226.5 2.5q223 0 332.5 -88.5t109.5 -243.5q0 -111 -62.5 -197t-175.5 -125v-4q72 -12 125.5 -43t88 -74t51 -95t16.5 -105q0 -61 -22.5 -135t-83 -137.5t-164 -105.5t-265.5 -42q-61 0 -156.5 2t-197.5 4zM362 158q57 -10 177 -11 q170 0 247.5 73t77.5 188q0 68 -28.5 112.5t-77.5 72.5t-118 39t-148 11h-61.5t-68.5 -2v-483zM362 786q29 -2 59 -2h66q172 0 254 63.5t82 178.5q0 45 -13 84t-45 67.5t-85 44t-133 15.5q-49 0 -96.5 -1t-88.5 -3v-447z" />
<glyph unicode="C" horiz-adv-x="1193" d="M94 657q0 158 40 293t123 233.5t210 155t303 56.5q80 0 162 -10.5t155 -32.5l-30 -172q-72 25 -151 39t-156 14q-119 0 -204 -43t-140.5 -117t-81 -173t-25.5 -212q0 -256 113.5 -396t355.5 -140q76 0 159 19t144 50l31 -164q-78 -33 -176.5 -53t-202.5 -20 q-166 0 -286 50t-195.5 140t-111.5 213t-36 270z" />
<glyph unicode="D" horiz-adv-x="1388" d="M174 0v1380q80 2 189.5 5.5t224.5 3.5q166 0 297 -40t222 -123t139 -212t48 -307t-56 -311.5t-158.5 -223.5t-244 -135t-311.5 -45q-104 0 -188 4t-162 4zM362 164q39 -6 90.5 -9t92.5 -3q121 0 222 31.5t174 98t114 169t41 243.5q0 266 -128 403.5t-399 137.5 q-53 0 -110.5 -2t-96.5 -4v-1065z" />
<glyph unicode="E" horiz-adv-x="1026" d="M174 0v1382h711v-155h-523v-439h498v-151h-498v-479h523v-158h-711z" />
<glyph unicode="F" horiz-adv-x="960" d="M174 0v1382h705v-155h-517v-449h490v-151h-490v-627h-188z" />
<glyph unicode="G" horiz-adv-x="1396" d="M88 664q0 160 51 295t147.5 233t234.5 153.5t310 55.5q102 0 197.5 -15.5t185.5 -44.5l-40 -170q-86 33 -175.5 50.5t-183.5 17.5q-106 0 -201.5 -35t-168 -103.5t-114.5 -173t-42 -241.5q0 -129 35.5 -229.5t103.5 -170t162 -105.5t211 -36q70 0 129 10.5t114 26.5v523 h187v-644q-104 -39 -223 -59t-234 -20q-158 0 -283.5 46t-216 134t-138.5 215t-48 287z" />
<glyph unicode="H" horiz-adv-x="1429" d="M174 0v1382h188v-585h705v585h188v-1382h-188v637h-705v-637h-188z" />
<glyph unicode="I" horiz-adv-x="536" d="M174 0v1382h188v-1382h-188z" />
<glyph unicode="J" horiz-adv-x="673" d="M2 2v164q29 -10 65.5 -16.5t75.5 -6.5q41 0 73 10.5t53.5 36t32.5 69.5t11 114v1009h189v-1022q0 -172 -79 -273t-267 -101q-84 0 -154 16z" />
<glyph unicode="K" horiz-adv-x="1196" d="M174 0v1382h188v-651l549 651h232l-584 -667l606 -715h-256l-547 684v-684h-188z" />
<glyph unicode="L" horiz-adv-x="872" d="M174 0v1382h188v-1220h496v-162h-684z" />
<glyph unicode="M" horiz-adv-x="1820" d="M98 0l203 1382h231l291 -870q18 -55 40 -127t38 -147h4q18 72 35.5 133t40.5 129l299 882h233l209 -1382h-198l-117 799q-16 111 -26.5 194.5t-16.5 145.5h-4q-10 -49 -26.5 -111.5t-41.5 -138.5l-297 -889h-200l-281 831q-29 84 -50.5 160t-37.5 148h-2 q-6 -86 -16.5 -171t-22.5 -188l-94 -780h-193z" />
<glyph unicode="N" horiz-adv-x="1447" d="M174 0v1382h248l514 -829q47 -74 89 -151.5t81 -151.5q-4 63 -6 154.5t-4 192.5t-3 203.5t-1 188.5v393h182v-1382h-246l-526 856q-47 76 -85 146.5t-73 140.5q2 -55 5 -140t5 -182.5t3 -196t1 -180.5v-444h-184z" />
<glyph unicode="O" horiz-adv-x="1443" d="M86 676q0 172 51 307t140.5 228.5t209 142.5t254.5 49q139 0 253 -45t195 -133t125 -218t44 -300q0 -172 -52.5 -307.5t-141.5 -228.5t-207.5 -142t-254.5 -49q-156 0 -271.5 50t-192 141t-114.5 219t-38 286zM287 702q0 -123 26.5 -225t79.5 -176t134 -114t192 -40 q84 0 163 34t140 101.5t98 168t37 233.5q0 268 -113.5 410.5t-322.5 142.5q-86 0 -165 -35t-138.5 -102.5t-95 -166.5t-35.5 -231z" />
<glyph unicode="P" horiz-adv-x="1073" d="M174 0v1382q78 4 162 6.5t178 2.5q240 0 367 -110t127 -296q0 -102 -40 -186t-111 -145.5t-169 -95.5t-215 -34h-54.5t-56.5 4v-528h-188zM362 688q27 -4 55.5 -6t57.5 -2q154 2 245 79t91 208q0 129 -77 198.5t-240 69.5h-71t-61 -2v-545z" />
<glyph unicode="Q" horiz-adv-x="1441" d="M86 676q0 172 51 307t140.5 228.5t209 142.5t254.5 49q139 0 253 -45t195 -133t125 -218t44 -300q0 -172 -52.5 -307.5t-141.5 -228.5t-207.5 -142t-254.5 -49q-156 0 -271.5 50t-192 141t-114.5 219t-38 286zM287 702q0 -123 26.5 -225t79.5 -176t134 -114t192 -40 q84 0 163 34t140 101.5t98 168t37 233.5q0 268 -113.5 410.5t-322.5 142.5q-86 0 -165 -35t-138.5 -102.5t-95 -166.5t-35.5 -231zM655 -147q60 7 112 7q20 0 39 -1q68 -4 128.5 -14.5t117 -25t116 -24.5t126.5 -14q16 -1 34 -1q52 0 112 9v-168q-77 -10 -143 -10 q-47 0 -89 5q-98 13 -185 33.5t-173 36.5q-45 8 -97 8q-46 0 -98 -7v166z" />
<glyph unicode="R" horiz-adv-x="1132" d="M174 0v1382q72 4 152 6.5t194 2.5q102 0 188.5 -19.5t149 -62.5t97 -112t34.5 -167q0 -88 -32.5 -157.5t-88 -118.5t-129 -78t-155.5 -35q29 -37 60.5 -75t57.5 -72l377 -494h-239l-453 621h-25v-621h-188zM362 762q16 -2 46 -3t71 -1q150 0 232 68.5t82 179.5 q0 125 -77 178t-229 53q-35 0 -65.5 -1t-59.5 -3v-471z" />
<glyph unicode="S" horiz-adv-x="1030" d="M104 1010q0 86 32 157.5t93.5 123.5t151.5 81t207 29q59 0 124.5 -6t125.5 -21l-23 -166q-55 16 -116.5 26.5t-120.5 10.5q-141 0 -210 -58.5t-69 -156.5q0 -74 47 -120t116.5 -78.5t152.5 -62.5t153 -75t117 -112t47 -176q0 -92 -37 -170t-103.5 -134.5t-160.5 -88 t-211 -31.5q-86 0 -162 10t-141 28l22 181q66 -27 139.5 -41.5t151.5 -14.5q59 0 113.5 13.5t95.5 41t65.5 72.5t24.5 109q0 78 -46 124t-115.5 79.5t-150.5 62.5t-150.5 73t-116 111.5t-46.5 178.5z" />
<glyph unicode="T" horiz-adv-x="1056" d="M37 1225v157h985v-157h-399v-1225h-189v1225h-397z" />
<glyph unicode="U" horiz-adv-x="1419" d="M174 465v917h188v-903q0 -72 14.5 -134t52.5 -109.5t104.5 -74t171.5 -26.5q180 0 267 85t87 294v868h184v-854q0 -274 -139 -411t-412 -137q-162 0 -263 40.5t-157.5 109.5t-77 156t-20.5 179z" />
<glyph unicode="V" horiz-adv-x="1265" d="M23 1382h208l310 -888q20 -59 44.5 -135t43.5 -148h4q18 72 42.5 147.5t53.5 149.5l318 874h192l-508 -1382h-211z" />
<glyph unicode="W" horiz-adv-x="1949" d="M70 1382h200l234 -901q18 -70 31.5 -134t23.5 -132h2q23 135 55 256l256 911h213l265 -919q16 -53 30.5 -116.5t24.5 -127.5h2q10 59 21.5 114.5t25.5 110.5l240 938h186l-364 -1382h-232l-264 930q-16 59 -28.5 119.5t-22.5 119.5h-2q-14 -117 -49 -237l-259 -932h-225z " />
<glyph unicode="X" horiz-adv-x="1226" d="M35 0l454 713l-426 669h218l327 -528l322 528h213l-420 -663l469 -719h-236l-352 571l-350 -571h-219z" />
<glyph unicode="Y" horiz-adv-x="1099" d="M18 1382h207l219 -467q57 -123 105 -239h2q25 63 55.5 129.5t63.5 134.5l213 442h196l-440 -884v-498h-188v498z" />
<glyph unicode="Z" horiz-adv-x="1103" d="M94 0v139l580 914q29 45 55.5 85t56.5 81q-49 -2 -121.5 -3.5t-179.5 -1.5h-370v168h891v-143l-611 -950q-20 -31 -39.5 -60.5t-42.5 -60.5q33 4 121 4h223h357v-172h-920z" />
<glyph unicode="[" horiz-adv-x="659" d="M176 -408v1987h406v-141h-234v-1700h234v-146h-406z" />
<glyph unicode="\" horiz-adv-x="905" d="M23 1550h178l717 -1880h-179z" />
<glyph unicode="]" horiz-adv-x="659" d="M78 -262h233v1700h-233v141h405v-1987h-405v146z" />
<glyph unicode="^" d="M131 770l338 612h149l353 -610l-135 -70l-295 543l-283 -543z" />
<glyph unicode="_" d="M0 -365h1126v-145h-1126v145z" />
<glyph unicode="`" horiz-adv-x="755" d="M193 1401l100 123l287 -256l-80 -101z" />
<glyph unicode="a" horiz-adv-x="1067" d="M94 256q0 166 160 258t453 92v68q0 106 -48.5 162.5t-175.5 56.5q-72 0 -152.5 -20.5t-142.5 -55.5l-38 150q74 31 169 51t193 20q111 0 183.5 -24.5t116.5 -68.5t61.5 -106.5t17.5 -136.5v-409q0 -72 1 -149.5t3 -143.5h-178q0 53 1 106.5t9 96.5h-4 q-37 -94 -128 -157.5t-218 -63.5t-205 75.5t-78 198.5zM274 283q0 -68 42 -112t114 -44q61 0 112.5 27.5t88.5 73.5t56.5 104.5t19.5 118.5v26q-127 0 -210 -16.5t-132.5 -43t-70 -61t-20.5 -73.5z" />
<glyph unicode="b" horiz-adv-x="1142" d="M174 27v1468h184v-494q0 -45 -4 -98t-14 -92l4 -2q41 109 130 168t206 59q180 0 277.5 -121.5t97.5 -357.5q0 -133 -37 -239.5t-105.5 -180.5t-167 -112.5t-221.5 -38.5q-106 0 -187 9t-163 32zM358 156q41 -12 84 -18.5t97 -6.5q74 0 133 22.5t101 71.5t65.5 127 t23.5 189q0 166 -54 255t-171 89q-70 0 -122 -37t-87 -93.5t-52.5 -126t-17.5 -134.5v-338z" />
<glyph unicode="c" horiz-adv-x="890" d="M84 475q0 123 31.5 225.5t93 177t155 115.5t216.5 41q70 0 133 -11t116 -32l-34 -157q-47 20 -107.5 33.5t-124.5 13.5q-70 0 -123 -28t-89 -79t-54 -120.5t-18 -153.5q0 -74 13 -139.5t46 -113.5t89 -76t140 -28q133 0 238 50l29 -154q-66 -27 -146 -41t-158 -14 q-92 0 -173 24.5t-141 80.5t-96 150.5t-36 235.5z" />
<glyph unicode="d" horiz-adv-x="1140" d="M84 461q0 133 37 239.5t105.5 180t165.5 112.5t218 39q41 0 83 -3t89 -7v473h185v-1495h-179q0 43 3.5 102.5t13.5 104.5l-4 2q-43 -104 -132 -165.5t-210 -61.5q-188 0 -281.5 128t-93.5 351zM279 477q0 -166 54 -255t171 -89q70 0 122 37t87 93t52 126t17 137v338 q-47 12 -92 17.5t-88 5.5q-74 0 -133 -22.5t-101 -72t-65.5 -127t-23.5 -188.5z" />
<glyph unicode="e" horiz-adv-x="1040" d="M84 504q0 115 30.5 212t89 168.5t142.5 111.5t193 40q106 0 184 -33.5t127 -92t72.5 -136.5t23.5 -166q0 -33 -6 -94h-666v-27q0 -180 76 -265q82 -91 246 -91q74 0 148.5 15.5t142.5 46.5l26 -148q-78 -31 -167 -47t-185 -16q-233 0 -355 125.5t-122 396.5zM281 645h477 v14q0 107 -58 173q-62 70 -170 69q-100 0 -166.5 -69.5t-82.5 -186.5z" />
<glyph unicode="f" horiz-adv-x="716" d="M14 874v144h209v76q0 211 99.5 312t291.5 101q84 0 168 -18l-16 -154q-35 12 -74 17.5t-76 5.5q-111 0 -159.5 -63.5t-48.5 -198.5v-78h282v-144h-282v-874h-185v874h-209z" />
<glyph unicode="g" horiz-adv-x="1107" d="M82 -219q0 90 50 160.5t120 109.5q-47 20 -73.5 60.5t-26.5 91.5q0 53 30.5 100t81.5 72q-70 41 -109.5 110.5t-39.5 169.5q0 76 28.5 145.5t83 122t135 83t185.5 30.5q41 0 72.5 -4t70.5 -14h346v-146h-168q39 -31 60.5 -80t21.5 -108q0 -78 -26.5 -145.5t-79.5 -116.5 t-134 -78t-190 -29q-57 0 -108 15q-33 -16 -49.5 -39t-16.5 -47q0 -43 41 -59.5t133 -20.5l187 -6q166 -6 254 -81t88 -214q0 -80 -39 -150.5t-111 -123t-171 -83t-218 -30.5q-199 0 -313.5 78.5t-114.5 226.5zM266 -186q0 -92 77 -142.5t198 -50.5q156 0 238.5 62.5 t82.5 156.5q0 74 -50 117t-159 47l-196 8h-30.5t-29.5 2q-59 -41 -95 -91t-36 -109zM297 672q0 -106 60.5 -164.5t174.5 -58.5q111 0 173.5 58.5t62.5 164.5q0 104 -59.5 165.5t-169.5 61.5q-117 0 -179.5 -64.5t-62.5 -162.5z" />
<glyph unicode="h" horiz-adv-x="1177" d="M174 0v1495h184v-483q0 -49 -4 -105.5t-14 -97.5l4 -2q45 104 135 166.5t219 62.5q88 0 146.5 -25.5t94.5 -69.5t51.5 -103.5t15.5 -126.5v-711h-185v655q0 111 -35.5 170.5t-138.5 59.5q-63 0 -116.5 -31t-91.5 -84t-59.5 -126t-21.5 -157v-487h-184z" />
<glyph unicode="i" horiz-adv-x="532" d="M143 1339q0 51 36 86t87 35t87 -35t36 -86q0 -49 -36 -83.5t-87 -34.5t-87 33.5t-36 84.5zM174 0v1018h184v-1018h-184z" />
<glyph unicode="j" horiz-adv-x="544" d="M-121 -502l17 162q29 -10 62.5 -17.5t66.5 -7.5q47 0 78.5 11.5t50 38t26.5 72.5t8 114v1147h183v-1131q0 -102 -17.5 -179t-58.5 -127t-107.5 -75.5t-167.5 -25.5q-35 0 -72.5 4t-68.5 14zM158 1339q0 51 35.5 86t87.5 35q49 0 84.5 -35t35.5 -86q0 -49 -35.5 -83.5 t-84.5 -34.5q-51 0 -87 33.5t-36 84.5z" />
<glyph unicode="k" horiz-adv-x="1009" d="M174 0v1495h184v-924l359 447h223l-391 -465l422 -553h-236l-377 524v-524h-184z" />
<glyph unicode="l" horiz-adv-x="532" d="M174 0v1495h184v-1495h-184z" />
<glyph unicode="m" horiz-adv-x="1800" d="M174 0v1018h178q0 -47 -3 -107.5t-13 -107.5l4 -2q45 109 138 172t216 63q80 0 133.5 -24.5t85 -59t45 -75.5t17.5 -72q16 37 45 77t72 74.5t100 57t131 22.5q145 0 224 -79.5t79 -254.5v-702h-184v653q0 104 -33 168t-133 64q-55 0 -106.5 -28t-91.5 -80t-63.5 -127 t-23.5 -167v-483h-182v653q0 49 -6 91t-24.5 73t-51.5 49.5t-84 18.5q-59 0 -110.5 -30t-90.5 -83t-61.5 -127t-22.5 -162v-483h-184z" />
<glyph unicode="n" horiz-adv-x="1177" d="M174 0v1018h178q0 -47 -3 -107.5t-13 -107.5h4q45 104 136 168.5t222 64.5q88 0 146.5 -25.5t94.5 -69.5t51.5 -103.5t15.5 -126.5v-711h-185v655q0 111 -35.5 170.5t-138.5 59.5q-63 0 -116.5 -31t-91.5 -84t-59.5 -126t-21.5 -157v-487h-184z" />
<glyph unicode="o" horiz-adv-x="1116" d="M80 500q0 113 33.5 210t98 169.5t157 114.5t206.5 42q98 0 182.5 -27.5t146 -89t96 -159t34.5 -234.5q0 -115 -35.5 -214t-100 -172.5t-157 -115.5t-204.5 -42q-104 0 -188.5 30.5t-144 94t-92 161t-32.5 232.5zM272 518q0 -186 73 -283.5t214 -97.5q57 0 108.5 22.5 t90.5 69.5t61.5 118t22.5 169q0 174 -71 270.5t-212 96.5q-55 0 -107.5 -21.5t-92.5 -66.5t-63.5 -114t-23.5 -163z" />
<glyph unicode="p" horiz-adv-x="1142" d="M174 -506v1524h178q0 -43 -3 -103.5t-13 -103.5l4 -2q43 106 131 166.5t211 60.5q180 0 276.5 -121.5t96.5 -357.5q0 -274 -138.5 -421.5t-386.5 -147.5q-47 0 -87 2t-85 10v-506h-184zM358 156q80 -25 181 -25q74 0 133 22.5t101 71.5t65.5 127t23.5 189q0 166 -54 255 t-171 89q-70 0 -122 -37t-87 -93.5t-52.5 -126t-17.5 -136.5v-336z" />
<glyph unicode="q" horiz-adv-x="1142" d="M88 459q0 270 141.5 422.5t395.5 152.5q92 0 179 -8t165 -20v-1512h-183v529q0 35 2.5 85t12.5 97l-4 2q-41 -104 -129 -164.5t-203 -60.5q-180 0 -278.5 118.5t-98.5 358.5zM283 477q0 -166 53 -255t170 -89q70 0 122 37t87 93t53 127t18 138v338q-88 20 -182 21 q-145 0 -233 -95.5t-88 -314.5z" />
<glyph unicode="r" horiz-adv-x="727" d="M174 0v1018h178q0 -47 -5 -112.5t-17 -129.5h4q16 53 44 103.5t71 87.5t101 57q41 14 92 14q20 0 42 -2l-8 -182q-33 6 -62 6q-116 0 -178 -91q-78 -114 -78 -359v-410h-184z" />
<glyph unicode="s" horiz-adv-x="870" d="M102 731q0 131 101.5 218t304.5 87q47 0 98 -5t99 -15l-15 -152q-45 16 -96 23.5t-102 7.5q-102 0 -150.5 -40t-48.5 -105q0 -57 34.5 -87t88 -50.5t115 -39t114.5 -48t88 -81t35 -137.5q0 -70 -29.5 -129t-85 -103t-135.5 -68.5t-180 -24.5q-59 0 -118.5 6t-106.5 20 l16 164q49 -20 108.5 -30.5t116.5 -10.5q98 0 159.5 42t61.5 114q0 57 -34.5 88t-88 50t-113.5 35.5t-113.5 47.5t-88.5 82t-35 141z" />
<glyph unicode="t" horiz-adv-x="759" d="M6 874v144h209v330l184 51v-381h285v-144h-285v-520q0 -63 6.5 -104t23.5 -65.5t45 -34t71 -9.5q70 0 129 17l18 -152q-45 -10 -100 -16t-105 -6q-78 0 -130 16t-83.5 53t-45 95.5t-13.5 140.5v585h-209z" />
<glyph unicode="u" horiz-adv-x="1177" d="M174 307v711h182v-656q0 -111 37 -170t137 -59q63 0 116.5 31t92.5 84t60.5 125.5t21.5 156.5v488h183v-1018h-179q0 47 4.5 107.5t12.5 107.5h-4q-45 -104 -136.5 -168.5t-222.5 -64.5q-88 0 -146.5 25.5t-94 69.5t-50 103.5t-14.5 126.5z" />
<glyph unicode="v" horiz-adv-x="995" d="M16 1018h207l215 -606q16 -49 31.5 -97.5t28.5 -95.5h4q12 45 26.5 92t30.5 95l221 612h199l-389 -1018h-191z" />
<glyph unicode="w" horiz-adv-x="1624" d="M33 1018h203l155 -543q20 -72 39 -139.5t35 -126.5h2q16 68 32.5 133.5t37.5 128.5l174 547h196l176 -541q14 -47 26.5 -85t22 -68.5t16.5 -59t13 -57.5h2q16 66 31.5 125t38.5 137l164 549h194l-329 -1018h-207l-203 600q-16 47 -29.5 98.5t-27.5 104.5h-2 q-16 -68 -34 -129.5t-38 -126.5l-170 -547h-205z" />
<glyph unicode="x" horiz-adv-x="1060" d="M43 0l375 510l-357 508h226l252 -383l256 383h206l-350 -502l369 -516h-238l-258 391l-258 -391h-223z" />
<glyph unicode="y" horiz-adv-x="983" d="M-49 -510l20 164q25 -8 60 -12t63 -4q39 0 76 11t70.5 39.5t63.5 77t58 123.5l41 111l-385 1018h209l193 -529q25 -70 43 -131t35 -120h4q6 27 17 63.5t24.5 77.5t29 85t29.5 87l164 467h201l-418 -1104q-47 -123 -95 -207t-105.5 -134t-125 -72.5t-153.5 -22.5 q-29 0 -62 4t-57 8z" />
<glyph unicode="z" horiz-adv-x="915" d="M98 0v129l488 729q-43 -2 -114 -3t-155 -1h-208v164h692v-129l-482 -723q20 0 53.5 1t72 2t77.5 1h74h215v-170h-713z" />
<glyph unicode="{" horiz-adv-x="698" d="M59 575v146q61 2 102.5 14.5t67 37t36.5 66.5t11 103v240q0 88 16.5 161.5t53.5 126t98.5 81t151.5 28.5h37v-141q-53 0 -89 -12.5t-57.5 -41t-31 -76.5t-9.5 -120v-238q0 -137 -48 -209.5t-142 -89.5v-4q92 -14 141 -91t49 -212v-356q0 -72 9.5 -120t31 -77t57.5 -41 t89 -12v-146h-37q-176 0 -248 99.5t-72 300.5v358q0 121 -49 170t-168 55z" />
<glyph unicode="|" horiz-adv-x="583" d="M217 -506v2048h145v-2048h-145z" />
<glyph unicode="}" horiz-adv-x="692" d="M78 -262q53 0 89 12t57.5 41t30.5 77t9 120v356q0 135 49 212t142 91v4q-190 25 -191 291v246q0 72 -9 120t-30.5 76.5t-57.5 41t-89 12.5v141h37q90 0 151.5 -28.5t98 -81t53 -126t16.5 -161.5v-232q0 -66 11.5 -108.5t37 -68t66.5 -38t102 -14.5v-146q-119 -6 -168 -55 t-49 -170v-358q0 -201 -71.5 -300.5t-247.5 -99.5h-37v146z" />
<glyph unicode="~" d="M111 899v21q0 135 73.5 218t200.5 83q57 0 97 -16.5t69 -42t51.5 -55.5t45 -55.5t48 -42t62.5 -16.5q63 0 92 50.5t31 132.5h137v-21q0 -133 -73 -216t-200 -83q-86 0 -134 35t-83.5 78t-68.5 77.5t-86 34.5q-66 0 -94.5 -50t-30.5 -132h-137z" />
<glyph unicode="&#xa1;" horiz-adv-x="655" d="M186 915q0 51 35 86t88 35t88 -35t35 -86t-35 -85.5t-88 -34.5t-88 34.5t-35 85.5zM199 -422l30 1096h156l33 -1096h-219z" />
<glyph unicode="&#xa2;" d="M162 674q0 195 107.5 317.5t299.5 155.5v184h144v-178q55 -2 116.5 -13.5t116.5 -33.5l-35 -154q-51 23 -110.5 37.5t-124.5 14.5q-147 0 -234.5 -82t-87.5 -242q0 -70 17.5 -127t56.5 -99t98.5 -65.5t145.5 -23.5q66 0 129 16t114 45l48 -147q-57 -29 -121 -46.5 t-129 -21.5v-211h-144v211q-199 12 -303 131t-104 332z" />
<glyph unicode="&#xa3;" d="M111 588v143h196q-10 57 -17 114.5t-7 110.5q0 211 109.5 303.5t295.5 92.5q51 0 118.5 -9.5t127.5 -25.5l-41 -158q-49 16 -106.5 28.5t-112.5 12.5q-205 0 -205 -223q0 -59 8 -121.5t19 -124.5h325v-143h-307q12 -72 12 -137q0 -92 -38.5 -160t-116.5 -135q35 2 76.5 3 t89.5 1h446v-160h-833v127q94 80 143 153.5t49 159.5q0 35 -4 73t-10 75h-217z" />
<glyph unicode="&#xa4;" d="M123 223l149 185q-39 45 -60.5 110.5t-21.5 155.5q0 158 93 256l-160 196l135 99l152 -207q37 20 79.5 28.5t88.5 8.5q39 0 80.5 -7.5t82.5 -27.5l154 207l131 -101l-158 -198q31 -41 49.5 -100.5t18.5 -141.5q0 -74 -21.5 -137.5t-60.5 -110.5l172 -213l-135 -102 l-164 221q-80 -49 -180 -49q-76 0 -139 27l-148 -199zM356 678q0 -51 11.5 -95t36 -78t64.5 -53.5t99 -19.5q80 0 141.5 65.5t61.5 186.5q0 102 -48 168t-165 66q-84 0 -142.5 -63.5t-58.5 -176.5z" />
<glyph unicode="&#xa5;" d="M70 1331h204l193 -411q29 -63 51.5 -123t42.5 -113h4q23 59 50.5 123.5t56.5 124.5l190 399h197l-361 -725h293v-125h-338v-143h338v-125h-338v-213h-186v213h-338v125h338v143h-338v125h295z" />
<glyph unicode="&#xa6;" horiz-adv-x="583" d="M217 268h145v-774h-145v774zM217 788v754h145v-754h-145z" />
<glyph unicode="&#xa7;" horiz-adv-x="1064" d="M147 694q0 86 42 159t120 132q-37 47 -58.5 99.5t-21.5 111.5q0 63 21.5 119.5t68 99.5t115 67.5t164.5 24.5q35 0 77 -4t77 -12l-15 -156q-70 20 -141 21q-86 0 -129 -39t-43 -109q0 -53 35 -104t86 -103.5t111.5 -108.5t111.5 -118.5t86 -135.5t35 -157 q0 -86 -42 -158.5t-120 -129.5q35 -47 57.5 -99.5t22.5 -116.5q0 -61 -23.5 -117.5t-70.5 -100.5t-121 -70.5t-172 -26.5q-35 0 -78 6t-84 17l14 155q45 -14 81 -19t73 -5q92 0 139 44t47 111q0 53 -34.5 104.5t-86 103.5t-112 106.5t-111.5 117t-86 134t-35 157.5zM322 717 q0 -55 25.5 -106.5t68.5 -101.5t98 -103.5t115 -112.5q47 33 66.5 77t19.5 87q0 57 -28 110.5t-71 104.5t-97 102t-109 109q-47 -35 -67.5 -78t-20.5 -88z" />
<glyph unicode="&#xa8;" horiz-adv-x="1118" d="M236 1339q0 47 31.5 79t78.5 32t78 -32t31 -79t-31 -77.5t-78 -30.5t-78.5 30.5t-31.5 77.5zM629 1339q0 47 31.5 79t78.5 32t78 -32t31 -79t-31 -77.5t-78 -30.5t-78.5 30.5t-31.5 77.5z" />
<glyph unicode="&#xa9;" horiz-adv-x="1548" d="M82 684q0 143 54 268t147.5 218.5t218.5 146.5t268 53t269 -53t219.5 -145.5t146.5 -216.5t53 -267t-54 -268t-147.5 -218t-218.5 -147.5t-268 -54.5q-145 0 -271 53t-218.5 145.5t-145.5 217.5t-53 268zM229 688q0 -113 42 -213t116 -175t172 -118t211 -43t212 43 t173 117t116 173t42 212t-42 212t-116 174t-173 118t-212 43t-211 -42t-172 -116t-116 -173t-42 -212zM446 676q0 74 19.5 141.5t62.5 119.5t111 83t164 31q47 0 87 -7.5t75 -19.5l-17 -131q-66 33 -147 33q-53 0 -91 -18.5t-61.5 -51.5t-34 -78t-10.5 -96q0 -111 45 -169 t144 -58q86 0 159 30l21 -127q-94 -35 -203 -34q-84 0 -145.5 26.5t-101.5 72.5t-58.5 110.5t-18.5 142.5z" />
<glyph unicode="&#xaa;" horiz-adv-x="796" d="M98 864q0 117 107.5 183.5t296.5 66.5v37q0 20 -4 41.5t-18.5 40t-41 30t-69.5 11.5q-59 0 -114.5 -15.5t-100.5 -37.5l-15 135q53 20 116.5 31.5t135.5 11.5q76 0 126 -19.5t81 -51.5t43 -73t12 -84q0 -92 -1 -167.5t-1 -122.5q0 -72 1 -112t3 -67h-151q0 23 2 52.5 t8 56.5l-4 2q-20 -49 -78.5 -87t-128.5 -38q-106 0 -155.5 49t-49.5 127zM117 432v146h590v-146h-590zM250 889q0 -35 23.5 -56.5t64.5 -21.5q43 0 73.5 20.5t51 48t30 58.5t9.5 53v19q-135 0 -193.5 -32t-58.5 -89z" />
<glyph unicode="&#xab;" horiz-adv-x="1042" d="M111 600l233 373l139 -72l-188 -299l190 -295l-143 -74zM506 600l252 369l135 -72l-205 -295l207 -291l-139 -73z" />
<glyph unicode="&#xac;" d="M86 532v154h901v-475h-160v321h-741z" />
<glyph unicode="&#xad;" horiz-adv-x="675" d="M96 512v152h484v-152h-484z" />
<glyph unicode="&#xae;" horiz-adv-x="1150" d="M123 1083q0 92 36 174t97 142.5t143 95.5t176 35t176.5 -35t143.5 -94.5t96 -141.5t35 -176q0 -92 -36 -174t-97.5 -142t-143 -96t-174.5 -36q-96 0 -178 35t-143 95t-96 142t-35 176zM248 1085q0 -68 25.5 -129t69.5 -107t104.5 -72.5t127.5 -26.5q68 0 128.5 26.5 t104.5 70.5t69.5 104t25.5 128t-25.5 129.5t-69.5 107.5t-104.5 72.5t-128.5 26.5t-128 -25.5t-104 -70.5t-69.5 -105.5t-25.5 -128.5zM424 852v467h162q86 0 122.5 -34t36.5 -89q0 -59 -29.5 -92t-78.5 -43q8 -8 18.5 -24.5t20.5 -35.5l88 -149h-123l-109 195h-8v-195h-100 zM524 1112h29q47 0 66.5 22.5t19.5 49.5q0 29 -15.5 43t-56.5 14h-43v-129z" />
<glyph unicode="&#xaf;" horiz-adv-x="808" d="M145 1262v139h519v-139h-519z" />
<glyph unicode="&#xb0;" horiz-adv-x="770" d="M109 1243q0 61 23.5 110.5t62 83t89 51t101.5 17.5q70 0 120 -20.5t83 -56t49 -83t16 -98.5q0 -61 -23.5 -110.5t-62.5 -83t-90 -51t-104 -17.5q-123 0 -193.5 69.5t-70.5 188.5zM254 1245q0 -66 35 -102.5t90 -36.5q57 0 94 39t37 100q0 25 -6 49.5t-21.5 45t-40 33.5 t-61.5 13q-53 0 -90 -38.5t-37 -102.5z" />
<glyph unicode="&#xb1;" d="M86 688v152h389v401h176v-401h389v-152h-389v-403h-176v403h-389zM90 0v154h946v-154h-946z" />
<glyph unicode="&#xb2;" horiz-adv-x="649" d="M94 729v107l150 133q66 59 89 94t23 74q0 37 -25.5 62.5t-74.5 25.5q-29 0 -60.5 -10.5t-54.5 -28.5l-41 114q41 23 91.5 35.5t103.5 12.5q61 0 104 -15.5t71 -41t41 -58.5t13 -70q0 -57 -29.5 -108t-101.5 -115l-98 -84h250v-127h-451z" />
<glyph unicode="&#xb3;" horiz-adv-x="626" d="M94 729l21 109q23 -6 51.5 -11.5t56.5 -5.5q66 0 95.5 22.5t29.5 61.5q0 53 -45 71.5t-162 6.5v98h43q86 0 119 26t33 62q0 29 -21.5 51.5t-74.5 22.5q-31 0 -58.5 -8t-50.5 -18l-29 98q35 16 81 24.5t96 8.5q115 0 165 -48.5t50 -109.5q0 -100 -95 -146q57 -8 87 -47 t30 -90q0 -96 -75.5 -145t-211.5 -49q-35 0 -72.5 5t-62.5 11z" />
<glyph unicode="&#xb4;" horiz-adv-x="796" d="M199 1266l286 258l101 -123l-307 -234z" />
<glyph unicode="&#xb5;" horiz-adv-x="1286" d="M180 -506v1524h185v-643q0 -111 38.5 -175.5t147.5 -64.5q59 0 109.5 29t87 78t58 114.5t21.5 139.5v522h185v-719q0 -51 3 -83t10 -50.5t19.5 -25.5t28.5 -7q29 0 52.5 22.5t35.5 51.5l82 -74q-29 -63 -88 -107t-149 -44q-51 0 -84 19t-50.5 50t-20.5 71t3 81h-2 q-37 -98 -123 -158.5t-197 -60.5q-121 0 -186 59l29 -549h-195z" />
<glyph unicode="&#xb6;" horiz-adv-x="1179" d="M135 948q0 94 33 174t93.5 137.5t144 90t186.5 32.5v-876q-117 0 -203 36t-142.5 96t-84 140t-27.5 170zM596 -53h149v1435h312v-143h-146v-1436h-315v144z" />
<glyph unicode="&#xb7;" horiz-adv-x="479" d="M109 608q0 55 37.5 93t93.5 38q55 0 93 -38t38 -93q0 -53 -38 -92t-93 -39t-93 39t-38 92z" />
<glyph unicode="&#xb8;" horiz-adv-x="819" d="M336 -481q39 49 63.5 92t29.5 83t-8 79t-50 84l157 61q78 -104 61.5 -201.5t-104.5 -197.5h-149z" />
<glyph unicode="&#xb9;" horiz-adv-x="632" d="M90 1251l193 80h141v-602h-156v473l-143 -65z" />
<glyph unicode="&#xba;" horiz-adv-x="858" d="M96 1044q0 80 25.5 145.5t71 113t106.5 73t135 25.5q59 0 116.5 -15.5t102.5 -55.5t73 -106.5t28 -168.5q0 -82 -26 -149.5t-72 -115t-109.5 -74t-138.5 -26.5q-68 0 -125.5 19.5t-99.5 61.5t-64.5 109.5t-22.5 163.5zM127 432v146h598v-146h-598zM260 1049q0 -41 7 -81 t25.5 -71t49.5 -50.5t78 -19.5q74 0 122 53.5t48 172.5q0 41 -8.5 79.5t-26.5 68.5t-50 47.5t-79 17.5q-61 0 -113.5 -50.5t-52.5 -166.5z" />
<glyph unicode="&#xbb;" horiz-adv-x="1042" d="M147 309l207 295l-204 291l139 74l250 -363l-256 -368zM559 305l189 299l-189 295l143 74l230 -367l-236 -373z" />
<glyph unicode="&#xbc;" horiz-adv-x="1447" d="M90 1251l193 80h141v-602h-156v473l-143 -65zM113 43l1017 1327l119 -86l-1018 -1327zM782 217l232 385h213v-375h104v-114h-104v-113h-142v113h-294zM918 227h167v275z" />
<glyph unicode="&#xbd;" horiz-adv-x="1456" d="M90 1251l193 80h141v-602h-156v473l-143 -65zM113 43l1017 1327l119 -86l-1018 -1327zM874 0v104l150 136q66 57 89.5 92t23.5 74t-26 64.5t-75 25.5q-29 0 -60.5 -11.5t-53.5 -27.5l-41 114q41 20 91 33.5t103 13.5q61 0 104.5 -15t71 -40.5t41 -59.5t13.5 -69 q0 -57 -30 -109.5t-101 -113.5l-99 -86h250v-125h-451z" />
<glyph unicode="&#xbe;" horiz-adv-x="1449" d="M98 727l21 109q23 -6 51.5 -10.5t56.5 -4.5q68 0 97.5 22.5t29.5 61.5q0 53 -46 71.5t-163 6.5v98h43q86 0 119 26t33 62q0 29 -21.5 51.5t-74.5 22.5q-29 0 -57.5 -8t-51.5 -18l-29 98q35 16 81 24.5t96 8.5q117 0 166 -48.5t49 -109.5q0 -100 -95 -146q59 -8 88 -47 t29 -90q0 -96 -75.5 -146t-211.5 -50q-35 0 -72.5 5t-62.5 11zM117 43l1018 1327l118 -86l-1017 -1327zM784 217l232 385h215v-375h104v-114h-104v-113h-144v113h-294zM920 227h170v275z" />
<glyph unicode="&#xbf;" horiz-adv-x="911" d="M123 -39q0 84 30.5 143.5t73.5 107.5t91.5 91t83 94.5t46 117t-15.5 159.5h180q33 -102 24 -176t-41 -130.5t-78 -101.5t-89 -88t-72.5 -90t-29.5 -108q0 -102 111.5 -171t303.5 -77l-24 -168q-143 4 -254 39t-186.5 89t-114.5 123.5t-39 145.5zM397 915q0 51 35 86 t88 35t88 -35t35 -86t-35 -85.5t-88 -34.5t-88 34.5t-35 85.5z" />
<glyph unicode="&#xc0;" horiz-adv-x="1259" d="M20 0l504 1382h209l508 -1382h-211l-115 324h-587l-115 -324h-193zM313 1599l54 144l372 -152l-34 -106zM377 473h489l-184 510q-18 51 -32.5 97t-26.5 91h-5q-12 -45 -26 -91t-31 -95z" />
<glyph unicode="&#xc1;" horiz-adv-x="1259" d="M20 0l504 1382h209l508 -1382h-211l-115 324h-587l-115 -324h-193zM377 473h489l-184 510q-18 51 -32.5 97t-26.5 91h-5q-12 -45 -26 -91t-31 -95zM487 1591l373 152l53 -144l-389 -114z" />
<glyph unicode="&#xc2;" horiz-adv-x="1259" d="M20 0l504 1382h209l508 -1382h-211l-115 324h-587l-115 -324h-193zM301 1581l322 174l327 -170l-55 -102l-277 129l-270 -129zM377 473h489l-184 510q-18 51 -32.5 97t-26.5 91h-5q-12 -45 -26 -91t-31 -95z" />
<glyph unicode="&#xc3;" horiz-adv-x="1259" d="M20 0l504 1382h209l508 -1382h-211l-115 324h-587l-115 -324h-193zM262 1587q41 72 99.5 112t130.5 40q51 0 87.5 -16.5t66.5 -37t56.5 -37t61.5 -16.5q72 0 127 90l94 -67q-41 -72 -99.5 -111t-129.5 -39q-51 0 -88 16.5t-66 37t-56.5 37t-60.5 16.5q-74 0 -129 -92z M377 473h489l-184 510q-18 51 -32.5 97t-26.5 91h-5q-12 -45 -26 -91t-31 -95z" />
<glyph unicode="&#xc4;" horiz-adv-x="1259" d="M20 0l504 1382h209l508 -1382h-211l-115 324h-587l-115 -324h-193zM301 1599q0 43 29.5 73t72.5 30t74 -30t31 -73t-31 -72.5t-74 -29.5t-72.5 29.5t-29.5 72.5zM377 473h489l-184 510q-18 51 -32.5 97t-26.5 91h-5q-12 -45 -26 -91t-31 -95zM739 1599q0 43 30 73t73 30 t72.5 -30t29.5 -73t-29.5 -72.5t-72.5 -29.5t-73 29.5t-30 72.5z" />
<glyph unicode="&#xc5;" horiz-adv-x="1259" d="M20 0l482 1319q-47 25 -75 71t-28 107q0 47 18.5 88t50.5 72t74 48t89 17q49 0 92 -17t73.5 -48t49 -72t18.5 -88q0 -57 -30.5 -105.5t-77.5 -74.5l485 -1317h-211l-115 324h-587l-115 -324h-193zM377 473h487l-178 496q-25 53 -38 102t-25 98h-5q-12 -47 -27.5 -98 t-35.5 -104zM518 1497q0 -47 33 -82t80 -35t79.5 35t32.5 82t-32.5 82t-79.5 35t-80 -35t-33 -82z" />
<glyph unicode="&#xc6;" horiz-adv-x="1599" d="M-88 0l735 1382h791v-155h-512v-439h491v-151h-491v-479h530v-158h-715v334h-458l-174 -334h-197zM352 483h389v742h-4q-27 -59 -55.5 -123t-79.5 -158z" />
<glyph unicode="&#xc7;" horiz-adv-x="1193" d="M94 657q0 158 40 293t123 233.5t210 155t303 56.5q80 0 162 -10.5t155 -32.5l-30 -172q-72 25 -151 39t-156 14q-119 0 -204 -43t-140.5 -117t-81 -173t-25.5 -212q0 -256 113.5 -396t355.5 -140q76 0 159 19t144 50l31 -164q-78 -33 -176.5 -53t-202.5 -20 q-166 0 -286 50t-195.5 140t-111.5 213t-36 270zM539 -481q39 49 63.5 92t29.5 83t-8 79t-50 84l157 61q78 -104 61.5 -201.5t-104.5 -197.5h-149z" />
<glyph unicode="&#xc8;" horiz-adv-x="1026" d="M174 0v1382h711v-155h-523v-439h498v-151h-498v-479h523v-158h-711zM233 1599l54 144l372 -152l-36 -106z" />
<glyph unicode="&#xc9;" horiz-adv-x="1026" d="M174 0v1382h711v-155h-523v-439h498v-151h-498v-479h523v-158h-711zM399 1591l373 152l53 -144l-389 -114z" />
<glyph unicode="&#xca;" horiz-adv-x="1026" d="M174 0v1382h711v-155h-523v-439h498v-151h-498v-479h523v-158h-711zM199 1581l321 174l328 -170l-53 -102l-279 129l-268 -129z" />
<glyph unicode="&#xcb;" horiz-adv-x="1026" d="M174 0v1382h711v-155h-523v-439h498v-151h-498v-479h523v-158h-711zM197 1599q0 43 29.5 73t72.5 30t72.5 -30t29.5 -73t-29.5 -72.5t-72.5 -29.5t-72.5 29.5t-29.5 72.5zM635 1599q0 43 29.5 73t72.5 30t73 -30t30 -73t-30 -72.5t-73 -29.5t-72.5 29.5t-29.5 72.5z" />
<glyph unicode="&#xcc;" horiz-adv-x="536" d="M-20 1599l51 144l372 -152l-34 -106zM174 0v1382h188v-1382h-188z" />
<glyph unicode="&#xcd;" horiz-adv-x="536" d="M123 1591l371 152l53 -144l-389 -114zM174 0v1382h188v-1382h-188z" />
<glyph unicode="&#xce;" horiz-adv-x="536" d="M-53 1581l321 174l328 -170l-55 -102l-277 129l-270 -129zM174 0v1382h188v-1382h-188z" />
<glyph unicode="&#xcf;" horiz-adv-x="536" d="M-55 1599q0 43 29.5 73t72.5 30t73 -30t30 -73t-30 -72.5t-73 -29.5t-72.5 29.5t-29.5 72.5zM174 0v1382h188v-1382h-188zM383 1599q0 43 29.5 73t72.5 30t73 -30t30 -73t-30 -72.5t-73 -29.5t-72.5 29.5t-29.5 72.5z" />
<glyph unicode="&#xd0;" horiz-adv-x="1406" d="M2 639v143h193v598q82 2 190.5 5.5t220.5 3.5q166 0 298 -40t222.5 -123t138.5 -212t48 -307t-56.5 -312.5t-159 -223.5t-243.5 -134t-311 -45q-104 0 -187.5 4t-160.5 4v639h-193zM381 160q6 0 27.5 -2t49 -3t56.5 -2t51 -1q121 0 222.5 31.5t174 98t113.5 168t41 242.5 q0 268 -128 405.5t-398 137.5q-55 0 -111.5 -2t-97.5 -4v-447h287v-143h-287v-479z" />
<glyph unicode="&#xd1;" horiz-adv-x="1447" d="M174 0v1382h248l514 -829q47 -74 89 -151.5t81 -151.5q-4 63 -6 154.5t-4 192.5t-3 203.5t-1 188.5v393h182v-1382h-246l-526 856q-47 76 -85 146.5t-73 140.5q2 -55 5 -140t5 -182.5t3 -196t1 -180.5v-444h-184zM346 1587q41 72 99.5 112t129.5 40q51 0 88 -16.5t67 -37 t56.5 -37t59.5 -16.5q70 0 129 90l94 -67q-41 -72 -99.5 -111t-129.5 -39q-53 0 -89 16.5t-66 37t-56.5 37t-59.5 16.5q-74 0 -129 -92z" />
<glyph unicode="&#xd2;" horiz-adv-x="1443" d="M86 676q0 172 51 307t140.5 228.5t209 142.5t254.5 49q139 0 253 -45t195 -133t125 -218t44 -300q0 -172 -52.5 -307.5t-141.5 -228.5t-207.5 -142t-254.5 -49q-156 0 -271.5 50t-192 141t-114.5 219t-38 286zM287 702q0 -123 26.5 -225t79.5 -176t134 -114t192 -40 q84 0 163 34t140 101.5t98 168t37 233.5q0 268 -113.5 410.5t-322.5 142.5q-86 0 -165 -35t-138.5 -102.5t-95 -166.5t-35.5 -231zM432 1599l53 144l373 -152l-35 -106z" />
<glyph unicode="&#xd3;" horiz-adv-x="1443" d="M86 676q0 172 51 307t140.5 228.5t209 142.5t254.5 49q139 0 253 -45t195 -133t125 -218t44 -300q0 -172 -52.5 -307.5t-141.5 -228.5t-207.5 -142t-254.5 -49q-156 0 -271.5 50t-192 141t-114.5 219t-38 286zM287 702q0 -123 26.5 -225t79.5 -176t134 -114t192 -40 q84 0 163 34t140 101.5t98 168t37 233.5q0 268 -113.5 410.5t-322.5 142.5q-86 0 -165 -35t-138.5 -102.5t-95 -166.5t-35.5 -231zM600 1591l373 152l53 -144l-389 -114z" />
<glyph unicode="&#xd4;" horiz-adv-x="1443" d="M86 676q0 172 51 307t140.5 228.5t209 142.5t254.5 49q139 0 253 -45t195 -133t125 -218t44 -300q0 -172 -52.5 -307.5t-141.5 -228.5t-207.5 -142t-254.5 -49q-156 0 -271.5 50t-192 141t-114.5 219t-38 286zM287 702q0 -123 26.5 -225t79.5 -176t134 -114t192 -40 q84 0 163 34t140 101.5t98 168t37 233.5q0 268 -113.5 410.5t-322.5 142.5q-86 0 -165 -35t-138.5 -102.5t-95 -166.5t-35.5 -231zM416 1581l321 174l328 -170l-55 -102l-277 129l-268 -129z" />
<glyph unicode="&#xd5;" horiz-adv-x="1443" d="M86 676q0 172 51 307t140.5 228.5t209 142.5t254.5 49q139 0 253 -45t195 -133t125 -218t44 -300q0 -172 -52.5 -307.5t-141.5 -228.5t-207.5 -142t-254.5 -49q-156 0 -271.5 50t-192 141t-114.5 219t-38 286zM287 702q0 -123 26.5 -225t79.5 -176t134 -114t192 -40 q84 0 163 34t140 101.5t98 168t37 233.5q0 268 -113.5 410.5t-322.5 142.5q-86 0 -165 -35t-138.5 -102.5t-95 -166.5t-35.5 -231zM354 1587q41 72 99.5 112t130.5 40q51 0 88 -16.5t66.5 -37t56 -37t59.5 -16.5q74 0 129 90l94 -67q-41 -72 -99 -111t-130 -39 q-53 0 -89 16.5t-65.5 37t-56.5 37t-59 16.5q-74 0 -129 -92z" />
<glyph unicode="&#xd6;" horiz-adv-x="1443" d="M86 676q0 172 51 307t140.5 228.5t209 142.5t254.5 49q139 0 253 -45t195 -133t125 -218t44 -300q0 -172 -52.5 -307.5t-141.5 -228.5t-207.5 -142t-254.5 -49q-156 0 -271.5 50t-192 141t-114.5 219t-38 286zM287 702q0 -123 26.5 -225t79.5 -176t134 -114t192 -40 q84 0 163 34t140 101.5t98 168t37 233.5q0 268 -113.5 410.5t-322.5 142.5q-86 0 -165 -35t-138.5 -102.5t-95 -166.5t-35.5 -231zM399 1599q0 43 30 73t73 30t72.5 -30t29.5 -73t-29.5 -72.5t-72.5 -29.5t-73 29.5t-30 72.5zM836 1599q0 43 30.5 73t73.5 30t72.5 -30 t29.5 -73t-29.5 -72.5t-72.5 -29.5t-73.5 29.5t-30.5 72.5z" />
<glyph unicode="&#xd7;" d="M113 260l344 344l-344 342l112 113l342 -344l344 344l103 -103l-344 -342l344 -344l-113 -112l-344 344l-342 -344z" />
<glyph unicode="&#xd8;" horiz-adv-x="1443" d="M86 680q0 172 51 306t140.5 226.5t208 141.5t253.5 49q74 0 146 -17l71 199l142 -47l-72 -192q156 -70 244 -230t88 -414q0 -172 -50.5 -307t-139.5 -227t-209.5 -140t-262.5 -48q-88 0 -157 18l-78 -209l-139 45l75 209q-164 80 -237.5 249t-73.5 388zM281 698 q0 -160 40.5 -282.5t139.5 -188.5l368 998q-33 8 -65.5 11t-73.5 -1q-84 -6 -157.5 -43t-130 -104.5t-89 -165t-32.5 -224.5zM594 160q33 -10 66.5 -13.5t68.5 -1.5q90 2 170 37t138.5 102.5t92 167t33.5 230.5q0 170 -50 297t-150 188z" />
<glyph unicode="&#xd9;" horiz-adv-x="1419" d="M174 465v917h188v-903q0 -72 14.5 -134t52.5 -109.5t104.5 -74t171.5 -26.5q180 0 267 85t87 294v868h184v-854q0 -274 -139 -411t-412 -137q-162 0 -263 40.5t-157.5 109.5t-77 156t-20.5 179zM416 1599l53 144l371 -152l-35 -106z" />
<glyph unicode="&#xda;" horiz-adv-x="1419" d="M174 465v917h188v-903q0 -72 14.5 -134t52.5 -109.5t104.5 -74t171.5 -26.5q180 0 267 85t87 294v868h184v-854q0 -274 -139 -411t-412 -137q-162 0 -263 40.5t-157.5 109.5t-77 156t-20.5 179zM575 1591l373 152l53 -144l-389 -114z" />
<glyph unicode="&#xdb;" horiz-adv-x="1419" d="M174 465v917h188v-903q0 -72 14.5 -134t52.5 -109.5t104.5 -74t171.5 -26.5q180 0 267 85t87 294v868h184v-854q0 -274 -139 -411t-412 -137q-162 0 -263 40.5t-157.5 109.5t-77 156t-20.5 179zM385 1581l322 174l327 -170l-53 -102l-279 129l-268 -129z" />
<glyph unicode="&#xdc;" horiz-adv-x="1419" d="M174 465v917h188v-903q0 -72 14.5 -134t52.5 -109.5t104.5 -74t171.5 -26.5q180 0 267 85t87 294v868h184v-854q0 -274 -139 -411t-412 -137q-162 0 -263 40.5t-157.5 109.5t-77 156t-20.5 179zM375 1599q0 43 29.5 73t72.5 30t74 -30t31 -73t-31 -72.5t-74 -29.5 t-72.5 29.5t-29.5 72.5zM813 1599q0 43 29.5 73t72.5 30t73 -30t30 -73t-30 -72.5t-73 -29.5t-72.5 29.5t-29.5 72.5z" />
<glyph unicode="&#xdd;" horiz-adv-x="1099" d="M18 1382h207l219 -467q57 -123 105 -239h2q25 63 55.5 129.5t63.5 134.5l213 442h196l-440 -884v-498h-188v498zM436 1591l373 152l51 -144l-389 -114z" />
<glyph unicode="&#xde;" horiz-adv-x="1085" d="M174 0v1382h188v-208q41 2 82 3t91 1q242 0 378 -107.5t136 -318.5q0 -106 -42 -194.5t-116 -151t-177.5 -97.5t-226.5 -35q-35 0 -65.5 2.5t-59.5 6.5v-283h-188zM362 438q31 -4 66 -6t76 -2q164 0 257 78.5t93 228.5q0 129 -83 208t-271 79q-35 0 -69 -2t-69 -8v-576z " />
<glyph unicode="&#xdf;" horiz-adv-x="1214" d="M174 0v1024q0 133 36 225t97.5 148.5t144.5 82t179 25.5q180 0 276.5 -76.5t96.5 -199.5q0 -70 -20.5 -116t-51.5 -77.5t-68 -55.5t-67.5 -47.5t-51 -53t-20.5 -74.5q0 -53 29.5 -89t74.5 -64.5t98.5 -57.5t98.5 -67t74.5 -91t29.5 -131q0 -72 -28.5 -131t-81.5 -102 t-128 -67.5t-169 -24.5q-59 0 -111.5 6t-91.5 16l12 162q43 -16 92.5 -25.5t96.5 -9.5q117 0 169 47t52 107q0 55 -29.5 91t-74.5 64.5t-97.5 56t-97.5 65.5t-74.5 91.5t-29.5 132.5q0 61 20.5 103.5t51 74t66.5 57t66.5 52.5t51 60.5t20.5 80.5q0 76 -54 113t-140 37 q-125 0 -194 -76t-69 -252v-1034h-184z" />
<glyph unicode="&#xe0;" horiz-adv-x="1067" d="M94 256q0 166 160 258t453 92v68q0 106 -48.5 162.5t-175.5 56.5q-72 0 -152.5 -20.5t-142.5 -55.5l-38 150q74 31 169 51t193 20q111 0 183.5 -24.5t116.5 -68.5t61.5 -106.5t17.5 -136.5v-409q0 -72 1 -149.5t3 -143.5h-178q0 53 1 106.5t9 96.5h-4 q-37 -94 -128 -157.5t-218 -63.5t-205 75.5t-78 198.5zM274 283q0 -68 42 -112t114 -44q61 0 112.5 27.5t88.5 73.5t56.5 104.5t19.5 118.5v26q-127 0 -210 -16.5t-132.5 -43t-70 -61t-20.5 -73.5zM279 1401l100 123l287 -256l-80 -101z" />
<glyph unicode="&#xe1;" horiz-adv-x="1067" d="M94 256q0 166 160 258t453 92v68q0 106 -48.5 162.5t-175.5 56.5q-72 0 -152.5 -20.5t-142.5 -55.5l-38 150q74 31 169 51t193 20q111 0 183.5 -24.5t116.5 -68.5t61.5 -106.5t17.5 -136.5v-409q0 -72 1 -149.5t3 -143.5h-178q0 53 1 106.5t9 96.5h-4 q-37 -94 -128 -157.5t-218 -63.5t-205 75.5t-78 198.5zM274 283q0 -68 42 -112t114 -44q61 0 112.5 27.5t88.5 73.5t56.5 104.5t19.5 118.5v26q-127 0 -210 -16.5t-132.5 -43t-70 -61t-20.5 -73.5zM394 1266l286 258l101 -123l-307 -234z" />
<glyph unicode="&#xe2;" horiz-adv-x="1067" d="M94 256q0 166 160 258t453 92v68q0 106 -48.5 162.5t-175.5 56.5q-72 0 -152.5 -20.5t-142.5 -55.5l-38 150q74 31 169 51t193 20q111 0 183.5 -24.5t116.5 -68.5t61.5 -106.5t17.5 -136.5v-409q0 -72 1 -149.5t3 -143.5h-178q0 53 1 106.5t9 96.5h-4 q-37 -94 -128 -157.5t-218 -63.5t-205 75.5t-78 198.5zM240 1253l286 271l283 -267l-82 -90l-203 174l-205 -174zM274 283q0 -68 42 -112t114 -44q61 0 112.5 27.5t88.5 73.5t56.5 104.5t19.5 118.5v26q-127 0 -210 -16.5t-132.5 -43t-70 -61t-20.5 -73.5z" />
<glyph unicode="&#xe3;" horiz-adv-x="1067" d="M94 256q0 166 160 258t453 92v68q0 106 -48.5 162.5t-175.5 56.5q-72 0 -152.5 -20.5t-142.5 -55.5l-38 150q74 31 169 51t193 20q111 0 183.5 -24.5t116.5 -68.5t61.5 -106.5t17.5 -136.5v-409q0 -72 1 -149.5t3 -143.5h-178q0 53 1 106.5t9 96.5h-4 q-37 -94 -128 -157.5t-218 -63.5t-205 75.5t-78 198.5zM144 1307q41 76 96 116.5t127 40.5q49 0 84 -17t63.5 -37.5t54 -38t58.5 -17.5q68 0 123 94l90 -72q-41 -78 -96.5 -118.5t-126.5 -40.5q-49 0 -84 17t-63.5 38.5t-54.5 39t-58 17.5q-68 0 -121 -96zM274 283 q0 -68 42 -112t114 -44q61 0 112.5 27.5t88.5 73.5t56.5 104.5t19.5 118.5v26q-127 0 -210 -16.5t-132.5 -43t-70 -61t-20.5 -73.5z" />
<glyph unicode="&#xe4;" horiz-adv-x="1067" d="M94 256q0 166 160 258t453 92v68q0 106 -48.5 162.5t-175.5 56.5q-72 0 -152.5 -20.5t-142.5 -55.5l-38 150q74 31 169 51t193 20q111 0 183.5 -24.5t116.5 -68.5t61.5 -106.5t17.5 -136.5v-409q0 -72 1 -149.5t3 -143.5h-178q0 53 1 106.5t9 96.5h-4 q-37 -94 -128 -157.5t-218 -63.5t-205 75.5t-78 198.5zM218 1339q0 47 31.5 79t78.5 32t78 -32t31 -79t-31 -77.5t-78 -30.5t-78.5 30.5t-31.5 77.5zM274 283q0 -68 42 -112t114 -44q61 0 112.5 27.5t88.5 73.5t56.5 104.5t19.5 118.5v26q-127 0 -210 -16.5t-132.5 -43 t-70 -61t-20.5 -73.5zM611 1339q0 47 31.5 79t78.5 32t78 -32t31 -79t-31 -77.5t-78 -30.5t-78.5 30.5t-31.5 77.5z" />
<glyph unicode="&#xe5;" horiz-adv-x="1067" d="M94 256q0 166 160 258t453 92v68q0 106 -48.5 162.5t-175.5 56.5q-72 0 -152.5 -20.5t-142.5 -55.5l-38 150q74 31 169 51t193 20q111 0 183.5 -24.5t116.5 -68.5t61.5 -106.5t17.5 -136.5v-409q0 -72 1 -149.5t3 -143.5h-178q0 53 1 106.5t9 96.5h-4 q-37 -94 -128 -157.5t-218 -63.5t-205 75.5t-78 198.5zM274 283q0 -68 42 -112t114 -44q61 0 112.5 27.5t88.5 73.5t56.5 104.5t19.5 118.5v26q-127 0 -210 -16.5t-132.5 -43t-70 -61t-20.5 -73.5zM295 1356q0 49 18.5 90t50 71t73.5 47.5t89 17.5q49 0 92 -17.5t74 -47.5 t49.5 -71t18.5 -90q0 -47 -18.5 -87t-50.5 -70.5t-74 -48t-91 -17.5q-98 0 -164.5 62.5t-66.5 160.5zM414 1356q0 -47 32.5 -80.5t79.5 -33.5t81 33.5t34 80.5t-34 82t-81 35t-79.5 -35t-32.5 -82z" />
<glyph unicode="&#xe6;" horiz-adv-x="1652" d="M94 256q0 166 160 258t453 92v68q0 106 -48.5 162.5t-175.5 56.5q-72 0 -152.5 -20.5t-142.5 -55.5l-38 150q74 31 169 51t193 20q113 0 193.5 -36.5t121.5 -122.5h2q47 68 130 112.5t194 44.5q106 0 183 -33.5t126 -92t73 -136.5t24 -166q0 -33 -7 -94h-663 q-8 -201 75 -292t244 -91q74 0 149 15.5t142 46.5l27 -148q-78 -31 -167 -47t-185 -16q-172 0 -271.5 67.5t-134.5 165.5h-2q-23 -47 -58.5 -89t-85 -74t-110.5 -51t-133 -19q-129 0 -207 75.5t-78 198.5zM274 283q0 -68 42 -112t114 -44q61 0 112.5 27.5t88.5 73.5 t56.5 104.5t19.5 118.5v26q-127 0 -210 -16.5t-132.5 -43t-70 -61t-20.5 -73.5zM893 645h477q4 117 -56.5 186.5t-168.5 69.5q-100 0 -168 -69.5t-84 -186.5z" />
<glyph unicode="&#xe7;" horiz-adv-x="890" d="M84 475q0 123 31.5 225.5t93 177t155 115.5t216.5 41q70 0 133 -11t116 -32l-34 -157q-47 20 -107.5 33.5t-124.5 13.5q-70 0 -123 -28t-89 -79t-54 -120.5t-18 -153.5q0 -74 13 -139.5t46 -113.5t89 -76t140 -28q133 0 238 50l29 -154q-66 -27 -146 -41t-158 -14 q-92 0 -173 24.5t-141 80.5t-96 150.5t-36 235.5zM354 -481q39 49 63.5 92t29.5 83t-8 79t-50 84l157 61q78 -104 61.5 -201.5t-104.5 -197.5h-149z" />
<glyph unicode="&#xe8;" horiz-adv-x="1040" d="M84 504q0 115 30.5 212t89 168.5t142.5 111.5t193 40q106 0 184 -33.5t127 -92t72.5 -136.5t23.5 -166q0 -33 -6 -94h-666q-6 -201 76 -292t246 -91q74 0 148.5 15.5t142.5 46.5l26 -148q-78 -31 -167 -47t-185 -16q-233 0 -355 125.5t-122 396.5zM281 645h477 q4 117 -57.5 186.5t-170.5 69.5q-100 0 -166.5 -69.5t-82.5 -186.5zM287 1401l100 123l287 -256l-80 -101z" />
<glyph unicode="&#xe9;" horiz-adv-x="1040" d="M84 504q0 115 30.5 212t89 168.5t142.5 111.5t193 40q106 0 184 -33.5t127 -92t72.5 -136.5t23.5 -166q0 -33 -6 -94h-666q-6 -201 76 -292t246 -91q74 0 148.5 15.5t142.5 46.5l26 -148q-78 -31 -167 -47t-185 -16q-233 0 -355 125.5t-122 396.5zM281 645h477 q4 117 -57.5 186.5t-170.5 69.5q-100 0 -166.5 -69.5t-82.5 -186.5zM404 1266l286 258l101 -123l-307 -234z" />
<glyph unicode="&#xea;" horiz-adv-x="1040" d="M84 504q0 115 30.5 212t89 168.5t142.5 111.5t193 40q106 0 184 -33.5t127 -92t72.5 -136.5t23.5 -166q0 -33 -6 -94h-666q-6 -201 76 -292t246 -91q74 0 148.5 15.5t142.5 46.5l26 -148q-78 -31 -167 -47t-185 -16q-233 0 -355 125.5t-122 396.5zM248 1253l286 271 l283 -267l-82 -90l-203 174l-205 -174zM281 645h477q4 117 -57.5 186.5t-170.5 69.5q-100 0 -166.5 -69.5t-82.5 -186.5z" />
<glyph unicode="&#xeb;" horiz-adv-x="1040" d="M84 504q0 115 30.5 212t89 168.5t142.5 111.5t193 40q106 0 184 -33.5t127 -92t72.5 -136.5t23.5 -166q0 -33 -6 -94h-666q-6 -201 76 -292t246 -91q74 0 148.5 15.5t142.5 46.5l26 -148q-78 -31 -167 -47t-185 -16q-233 0 -355 125.5t-122 396.5zM234 1339q0 47 31.5 79 t78.5 32t78 -32t31 -79t-31 -77.5t-78 -30.5t-78.5 30.5t-31.5 77.5zM281 645h477q4 117 -57.5 186.5t-170.5 69.5q-100 0 -166.5 -69.5t-82.5 -186.5zM627 1339q0 47 31.5 79t78.5 32t78 -32t31 -79t-31 -77.5t-78 -30.5t-78.5 30.5t-31.5 77.5z" />
<glyph unicode="&#xec;" horiz-adv-x="532" d="M60 1401l100 123l287 -256l-80 -101zM174 0v1018h184v-1018h-184z" />
<glyph unicode="&#xed;" horiz-adv-x="532" d="M99 1266l286 258l101 -123l-307 -234zM174 0v1018h184v-1018h-184z" />
<glyph unicode="&#xee;" horiz-adv-x="532" d="M-14 1253l286 271l283 -267l-82 -90l-203 174l-205 -174zM174 0v1018h184v-1018h-184z" />
<glyph unicode="&#xef;" horiz-adv-x="532" d="M-38 1339q0 47 31.5 79t78.5 32t78 -32t31 -79t-31 -77.5t-78 -30.5t-78.5 30.5t-31.5 77.5zM174 0v1018h184v-1018h-184zM355 1339q0 47 31.5 79t78.5 32t78 -32t31 -79t-31 -77.5t-78 -30.5t-78.5 30.5t-31.5 77.5z" />
<glyph unicode="&#xf0;" horiz-adv-x="1118" d="M82 500q0 113 34 211t96 169.5t151.5 112.5t199.5 41q66 0 125.5 -21.5t89.5 -70.5q-16 33 -33.5 60.5t-27.5 44.5q-25 43 -56.5 86t-74.5 90l-209 -95l-78 97l193 86q-35 33 -77 65.5t-89 69.5l184 78q41 -33 79 -67t75 -73l204 91l80 -97l-200 -86q135 -160 208.5 -345 t73.5 -388q0 -147 -38 -255.5t-103.5 -180.5t-153.5 -106.5t-190 -34.5q-104 0 -189.5 31.5t-145.5 95t-94 161t-34 230.5zM272 514q0 -182 78 -279.5t215 -97.5q57 0 107.5 22.5t87.5 69.5t58.5 123.5t21.5 182.5q0 160 -71 254t-212 94q-55 0 -106.5 -21.5t-91.5 -67.5 t-63.5 -116t-23.5 -164z" />
<glyph unicode="&#xf1;" horiz-adv-x="1177" d="M174 0v1018h178q0 -47 -3 -107.5t-13 -107.5h4q45 104 136 168.5t222 64.5q88 0 146.5 -25.5t94.5 -69.5t51.5 -103.5t15.5 -126.5v-711h-185v655q0 111 -35.5 170.5t-138.5 59.5q-63 0 -116.5 -31t-91.5 -84t-59.5 -126t-21.5 -157v-487h-184zM248 1307q41 76 96 116.5 t127 40.5q49 0 84 -17t63.5 -37.5t54 -38t58.5 -17.5q68 0 123 94l90 -72q-41 -78 -96.5 -118.5t-126.5 -40.5q-49 0 -84 17t-63.5 38.5t-54.5 39t-58 17.5q-68 0 -121 -96z" />
<glyph unicode="&#xf2;" horiz-adv-x="1116" d="M80 500q0 113 33.5 210t98 169.5t157 114.5t206.5 42q98 0 182.5 -27.5t146 -89t96 -159t34.5 -234.5q0 -115 -35.5 -214t-100 -172.5t-157 -115.5t-204.5 -42q-104 0 -188.5 30.5t-144 94t-92 161t-32.5 232.5zM272 518q0 -186 73 -283.5t214 -97.5q57 0 108.5 22.5 t90.5 69.5t61.5 118t22.5 169q0 174 -71 270.5t-212 96.5q-55 0 -107.5 -21.5t-92.5 -66.5t-63.5 -114t-23.5 -163zM324 1401l100 123l287 -256l-80 -101z" />
<glyph unicode="&#xf3;" horiz-adv-x="1116" d="M80 500q0 113 33.5 210t98 169.5t157 114.5t206.5 42q98 0 182.5 -27.5t146 -89t96 -159t34.5 -234.5q0 -115 -35.5 -214t-100 -172.5t-157 -115.5t-204.5 -42q-104 0 -188.5 30.5t-144 94t-92 161t-32.5 232.5zM272 518q0 -186 73 -283.5t214 -97.5q57 0 108.5 22.5 t90.5 69.5t61.5 118t22.5 169q0 174 -71 270.5t-212 96.5q-55 0 -107.5 -21.5t-92.5 -66.5t-63.5 -114t-23.5 -163zM435 1266l286 258l101 -123l-307 -234z" />
<glyph unicode="&#xf4;" horiz-adv-x="1116" d="M80 500q0 113 33.5 210t98 169.5t157 114.5t206.5 42q98 0 182.5 -27.5t146 -89t96 -159t34.5 -234.5q0 -115 -35.5 -214t-100 -172.5t-157 -115.5t-204.5 -42q-104 0 -188.5 30.5t-144 94t-92 161t-32.5 232.5zM272 518q0 -186 73 -283.5t214 -97.5q57 0 108.5 22.5 t90.5 69.5t61.5 118t22.5 169q0 174 -71 270.5t-212 96.5q-55 0 -107.5 -21.5t-92.5 -66.5t-63.5 -114t-23.5 -163zM273 1253l286 271l283 -267l-82 -90l-203 174l-205 -174z" />
<glyph unicode="&#xf5;" horiz-adv-x="1116" d="M80 500q0 113 33.5 210t98 169.5t157 114.5t206.5 42q98 0 182.5 -27.5t146 -89t96 -159t34.5 -234.5q0 -115 -35.5 -214t-100 -172.5t-157 -115.5t-204.5 -42q-104 0 -188.5 30.5t-144 94t-92 161t-32.5 232.5zM191 1307q41 76 96 116.5t127 40.5q49 0 84 -17 t63.5 -37.5t54 -38t58.5 -17.5q68 0 123 94l90 -72q-41 -78 -96.5 -118.5t-126.5 -40.5q-49 0 -84 17t-63.5 38.5t-54.5 39t-58 17.5q-68 0 -121 -96zM272 518q0 -186 73 -283.5t214 -97.5q57 0 108.5 22.5t90.5 69.5t61.5 118t22.5 169q0 174 -71 270.5t-212 96.5 q-55 0 -107.5 -21.5t-92.5 -66.5t-63.5 -114t-23.5 -163z" />
<glyph unicode="&#xf6;" horiz-adv-x="1116" d="M80 500q0 113 33.5 210t98 169.5t157 114.5t206.5 42q98 0 182.5 -27.5t146 -89t96 -159t34.5 -234.5q0 -115 -35.5 -214t-100 -172.5t-157 -115.5t-204.5 -42q-104 0 -188.5 30.5t-144 94t-92 161t-32.5 232.5zM252 1339q0 47 31.5 79t78.5 32t78 -32t31 -79t-31 -77.5 t-78 -30.5t-78.5 30.5t-31.5 77.5zM272 518q0 -186 73 -283.5t214 -97.5q57 0 108.5 22.5t90.5 69.5t61.5 118t22.5 169q0 174 -71 270.5t-212 96.5q-55 0 -107.5 -21.5t-92.5 -66.5t-63.5 -114t-23.5 -163zM645 1339q0 47 31.5 79t78.5 32t78 -32t31 -79t-31 -77.5 t-78 -30.5t-78.5 30.5t-31.5 77.5z" />
<glyph unicode="&#xf7;" d="M86 532v154h954v-154h-954zM436 197q0 51 36 86.5t89 35.5q51 0 87 -35.5t36 -86.5q0 -53 -36 -89t-87 -36q-53 0 -89 35.5t-36 89.5zM436 1020q0 51 36 87t89 36q51 0 87 -36t36 -87t-36 -87t-87 -36q-53 0 -89 36t-36 87z" />
<glyph unicode="&#xf8;" horiz-adv-x="1116" d="M80 500q0 113 35 211t99.5 170.5t155.5 113.5t205 41q23 0 47.5 -2t49.5 -6l73 193l119 -39l-73 -189q51 -25 96 -63.5t77.5 -96t51 -133.5t18.5 -174q0 -115 -35.5 -214t-100 -172.5t-156 -115.5t-203.5 -42q-68 0 -129 16l-82 -211l-119 39l82 213q-111 66 -161 186.5 t-50 274.5zM258 518q0 -98 25.5 -179t76.5 -128l254 672q-41 6 -75 4q-49 -2 -99.5 -22.5t-90.5 -64.5t-65.5 -113t-25.5 -169zM467 147q49 -16 108 -16q55 2 105.5 25.5t89.5 70.5t62.5 119t23.5 170q0 229 -127 320z" />
<glyph unicode="&#xf9;" horiz-adv-x="1177" d="M174 307v711h182v-656q0 -111 37 -170t137 -59q63 0 116.5 31t92.5 84t60.5 125.5t21.5 156.5v488h183v-1018h-179q0 47 4.5 107.5t12.5 107.5h-4q-45 -104 -136.5 -168.5t-222.5 -64.5q-88 0 -146.5 25.5t-94 69.5t-50 103.5t-14.5 126.5zM340 1401l100 123l287 -256 l-80 -101z" />
<glyph unicode="&#xfa;" horiz-adv-x="1177" d="M174 307v711h182v-656q0 -111 37 -170t137 -59q63 0 116.5 31t92.5 84t60.5 125.5t21.5 156.5v488h183v-1018h-179q0 47 4.5 107.5t12.5 107.5h-4q-45 -104 -136.5 -168.5t-222.5 -64.5q-88 0 -146.5 25.5t-94 69.5t-50 103.5t-14.5 126.5zM465 1266l286 258l101 -123 l-307 -234z" />
<glyph unicode="&#xfb;" horiz-adv-x="1177" d="M174 307v711h182v-656q0 -111 37 -170t137 -59q63 0 116.5 31t92.5 84t60.5 125.5t21.5 156.5v488h183v-1018h-179q0 47 4.5 107.5t12.5 107.5h-4q-45 -104 -136.5 -168.5t-222.5 -64.5q-88 0 -146.5 25.5t-94 69.5t-50 103.5t-14.5 126.5zM299 1253l286 271l283 -267 l-82 -90l-203 174l-205 -174z" />
<glyph unicode="&#xfc;" horiz-adv-x="1177" d="M174 307v711h182v-656q0 -111 37 -170t137 -59q63 0 116.5 31t92.5 84t60.5 125.5t21.5 156.5v488h183v-1018h-179q0 47 4.5 107.5t12.5 107.5h-4q-45 -104 -136.5 -168.5t-222.5 -64.5q-88 0 -146.5 25.5t-94 69.5t-50 103.5t-14.5 126.5zM273 1339q0 47 31.5 79 t78.5 32t78 -32t31 -79t-31 -77.5t-78 -30.5t-78.5 30.5t-31.5 77.5zM666 1339q0 47 31.5 79t78.5 32t78 -32t31 -79t-31 -77.5t-78 -30.5t-78.5 30.5t-31.5 77.5z" />
<glyph unicode="&#xfd;" horiz-adv-x="983" d="M-49 -510l20 164q25 -8 60 -12t63 -4q39 0 76 11t70.5 39.5t63.5 77t58 123.5l41 111l-385 1018h209l193 -529q25 -70 43 -131t35 -120h4q6 27 17 63.5t24.5 77.5t29 85t29.5 87l164 467h201l-418 -1104q-47 -123 -95 -207t-105.5 -134t-125 -72.5t-153.5 -22.5 q-29 0 -62 4t-57 8zM396 1266l286 258l101 -123l-307 -234z" />
<glyph unicode="&#xfe;" horiz-adv-x="1142" d="M174 -506v2001h184v-446q0 -55 -3 -121t-11 -107l4 -2q41 98 127 157.5t207 59.5q180 0 276.5 -121.5t96.5 -357.5q0 -274 -138.5 -421.5t-386.5 -147.5q-47 0 -87 2t-85 10v-506h-184zM358 156q80 -25 181 -25q74 0 133 22.5t101 71.5t65.5 127t23.5 189q0 166 -54 255 t-171 89q-70 0 -122 -37t-87 -93.5t-52.5 -126t-17.5 -136.5v-336z" />
<glyph unicode="&#xff;" horiz-adv-x="983" d="M-49 -510l20 164q25 -8 60 -12t63 -4q39 0 76 11t70.5 39.5t63.5 77t58 123.5l41 111l-385 1018h209l193 -529q25 -70 43 -131t35 -120h4q6 27 17 63.5t24.5 77.5t29 85t29.5 87l164 467h201l-418 -1104q-47 -123 -95 -207t-105.5 -134t-125 -72.5t-153.5 -22.5 q-29 0 -62 4t-57 8zM187 1339q0 47 31.5 79t78.5 32t78 -32t31 -79t-31 -77.5t-78 -30.5t-78.5 30.5t-31.5 77.5zM580 1339q0 47 31.5 79t78.5 32t78 -32t31 -79t-31 -77.5t-78 -30.5t-78.5 30.5t-31.5 77.5z" />
<glyph unicode="&#x152;" horiz-adv-x="1767" d="M86 676q0 172 51 307t140.5 228.5t208 142.5t251.5 49q55 0 106.5 -5t100.5 -16h682v-155h-524v-439h500v-151h-500v-479h524v-158h-698q-55 -10 -111.5 -15t-114.5 -5q-156 0 -271.5 50t-192 141t-114.5 219t-38 286zM287 702q0 -123 26.5 -225t79.5 -176t134 -114 t192 -40q47 0 98 7.5t98 21.5v1032q-47 14 -92 21.5t-98 7.5q-88 0 -167 -35t-139.5 -102.5t-96 -166.5t-35.5 -231z" />
<glyph unicode="&#x153;" horiz-adv-x="1785" d="M80 500q0 113 33.5 210t98 169.5t157 114.5t206.5 42q111 0 209.5 -46t155.5 -146q53 86 139 139t207 53q106 0 184 -33.5t127.5 -92t73 -136.5t23.5 -166q0 -33 -6 -94h-666q-6 -201 76 -292t245 -91q74 0 149 15.5t142 46.5l27 -148q-78 -31 -168 -47t-184 -16 q-154 0 -248 55t-146 151q-55 -90 -149 -148t-229 -58q-104 0 -188.5 30.5t-144 94t-92 161t-32.5 232.5zM272 518q0 -186 73 -283.5t214 -97.5q57 0 108.5 22.5t90.5 69.5t61.5 118t22.5 169q0 174 -71 270.5t-212 96.5q-55 0 -107.5 -21.5t-92.5 -66.5t-63.5 -114 t-23.5 -163zM1028 645h477q4 117 -57.5 186.5t-169.5 69.5q-100 0 -167 -69.5t-83 -186.5z" />
<glyph unicode="&#x178;" horiz-adv-x="1099" d="M18 1382h207l219 -467q57 -123 105 -239h2q25 63 55.5 129.5t63.5 134.5l213 442h196l-440 -884v-498h-188v498zM221 1599q0 43 30 73t73 30t72.5 -30t29.5 -73t-29.5 -72.5t-72.5 -29.5t-73 29.5t-30 72.5zM659 1599q0 43 30 73t73 30t72.5 -30t29.5 -73t-29.5 -72.5 t-72.5 -29.5t-73 29.5t-30 72.5z" />
<glyph unicode="&#x2c6;" horiz-adv-x="886" d="M154 1253l286 271l283 -267l-82 -90l-203 174l-205 -174z" />
<glyph unicode="&#x2dc;" horiz-adv-x="1015" d="M154 1307q41 76 96 116.5t127 40.5q49 0 84 -17t63.5 -37.5t54 -38t58.5 -17.5q68 0 123 94l90 -72q-41 -78 -96.5 -118.5t-126.5 -40.5q-49 0 -84 17t-63.5 38.5t-54.5 39t-58 17.5q-68 0 -121 -96z" />
<glyph unicode="&#x2000;" horiz-adv-x="877" />
<glyph unicode="&#x2001;" horiz-adv-x="1755" />
<glyph unicode="&#x2002;" horiz-adv-x="877" />
<glyph unicode="&#x2003;" horiz-adv-x="1755" />
<glyph unicode="&#x2004;" horiz-adv-x="585" />
<glyph unicode="&#x2005;" horiz-adv-x="438" />
<glyph unicode="&#x2006;" horiz-adv-x="292" />
<glyph unicode="&#x2007;" horiz-adv-x="292" />
<glyph unicode="&#x2008;" horiz-adv-x="219" />
<glyph unicode="&#x2009;" horiz-adv-x="351" />
<glyph unicode="&#x200a;" horiz-adv-x="97" />
<glyph unicode="&#x2010;" horiz-adv-x="675" d="M96 512v152h484v-152h-484z" />
<glyph unicode="&#x2011;" horiz-adv-x="675" d="M96 512v152h484v-152h-484z" />
<glyph unicode="&#x2012;" horiz-adv-x="675" d="M96 512v152h484v-152h-484z" />
<glyph unicode="&#x2013;" d="M0 530v160h1126v-160h-1126z" />
<glyph unicode="&#x2014;" horiz-adv-x="2048" d="M242 530v160h1564v-160h-1564z" />
<glyph unicode="&#x2018;" horiz-adv-x="497" d="M112 1153q3 76 54 175t170 208l80 -72q-98 -106 -110.5 -176.5t22.5 -116.5q20 -29 23 -60.5t-9 -59t-40 -46t-64 -18.5q-55 0 -92 45t-34 121z" />
<glyph unicode="&#x2019;" horiz-adv-x="497" d="M80 1044q98 106 110.5 177t-22.5 116q-23 27 -25 60t10.5 60.5t40 46t64.5 18.5q55 0 92 -45t34 -121t-54 -175.5t-170 -207.5z" />
<glyph unicode="&#x201a;" horiz-adv-x="497" d="M80 -246q98 106 110.5 178t-22.5 117q-23 27 -25 58.5t10.5 59.5t40 46t64.5 18q55 0 92 -45t34 -119.5t-54 -174t-170 -207.5z" />
<glyph unicode="&#x201c;" horiz-adv-x="886" d="M112 1153q3 76 54 175t170 208l80 -72q-98 -106 -110.5 -176.5t22.5 -116.5q20 -29 23 -60.5t-9 -59t-40 -46t-64 -18.5q-55 0 -92 45t-34 121zM501 1153q3 76 54 175t170 208l80 -72q-98 -106 -110.5 -176.5t22.5 -116.5q20 -29 23 -60.5t-9 -59t-39.5 -46t-64.5 -18.5 q-55 0 -92 45t-34 121z" />
<glyph unicode="&#x201d;" horiz-adv-x="886" d="M80 1044q98 106 110.5 177t-22.5 116q-23 27 -25 60t10.5 60.5t40 46t64.5 18.5q55 0 92 -45t34 -121t-54 -175.5t-170 -207.5zM469 1044q98 106 110.5 177t-22.5 116q-23 27 -25 60t10.5 60.5t40 46t64.5 18.5q55 0 92 -45t34 -121t-54 -175.5t-170 -207.5z" />
<glyph unicode="&#x201e;" horiz-adv-x="886" d="M80 -246q98 106 110.5 178t-22.5 117q-23 27 -25 58.5t10.5 59.5t40 46t64.5 18q55 0 92 -45t34 -119.5t-54 -174t-170 -207.5zM469 -246q98 106 110.5 178t-22.5 117q-23 27 -25 58.5t10.5 59.5t40 46t64.5 18q55 0 92 -45t34 -119.5t-54 -174t-170 -207.5z" />
<glyph unicode="&#x2022;" horiz-adv-x="860" d="M182 608q0 51 19.5 96.5t53.5 79t79 53t96 19.5t96 -19.5t79 -53t53.5 -79t19.5 -96.5t-19.5 -96t-53.5 -79t-79 -53.5t-96 -19.5t-96 19.5t-79 53.5t-53.5 79t-19.5 96z" />
<glyph unicode="&#x2026;" horiz-adv-x="1361" d="M106 104q0 53 36 89t89 36q51 0 87 -36t36 -89q0 -51 -35.5 -86.5t-87.5 -35.5q-53 0 -89 35.5t-36 86.5zM547 104q0 53 35.5 89t87.5 36q53 0 89 -36t36 -89q0 -51 -36 -86.5t-89 -35.5q-51 0 -87 35.5t-36 86.5zM987 104q0 53 36 89t87 36q53 0 89 -36t36 -89 q0 -51 -36 -86.5t-89 -35.5q-51 0 -87 35.5t-36 86.5z" />
<glyph unicode="&#x202f;" horiz-adv-x="351" />
<glyph unicode="&#x2039;" horiz-adv-x="641" d="M109 600l245 371l135 -74l-198 -295l201 -291l-140 -75z" />
<glyph unicode="&#x203a;" horiz-adv-x="641" d="M150 309l200 295l-198 291l139 76l241 -365l-247 -370z" />
<glyph unicode="&#x205f;" horiz-adv-x="438" />
<glyph unicode="&#x20ac;" d="M23 455v123h170q-2 16 -2.5 32.5t-0.5 32.5q0 29 1.5 58.5t3.5 58.5h-172v123h190q18 102 60 188t109 148.5t159 97.5t215 35q72 0 147.5 -16.5t130.5 -39.5l-45 -147q-51 23 -118.5 38t-139.5 15q-74 0 -129 -24.5t-95 -67.5t-64.5 -101.5t-39.5 -125.5h390v-123h-410 q0 -23 -1 -46.5t-1 -49.5v-44.5t2 -41.5h410v-123h-396q27 -162 111 -241t244 -79q61 0 129.5 15.5t128.5 42.5l43 -144q-78 -35 -167 -52t-169 -17q-223 0 -352 113.5t-162 361.5h-180z" />
<glyph unicode="&#x2122;" horiz-adv-x="1431" d="M90 1270v112h442v-112h-149v-463h-141v463h-152zM567 807l90 575h177l92 -315l20 -94l19 86l96 323h176l88 -575h-141l-45 301l-15 111l-24 -95l-92 -317h-142l-90 321l-22 91l-6 -76l-50 -336h-131z" />
<glyph unicode="&#x25fc;" horiz-adv-x="1013" d="M0 0v1014h1014v-1014h-1014z" />
<glyph unicode="&#xfb01;" horiz-adv-x="1208" d="M14 874v144h209v45q0 217 116 330.5t359 113.5q78 0 150 -10t137 -27l-35 -153q-57 16 -124.5 27.5t-123.5 11.5q-158 0 -226 -71t-68 -202v-65h626v-1018h-184v874h-442v-874h-185v874h-209z" />
<glyph unicode="&#xfb02;" horiz-adv-x="1208" d="M14 874v144h209v117q0 172 113 272t356 100q78 0 167 -8t175 -22v-1477h-184v1343q-84 14 -176 15q-135 0 -200.5 -56.5t-65.5 -183.5v-100h276v-144h-276v-874h-185v874h-209z" />
</font>
</defs>
</svg>
